<ttFont>
    <TTGlyph name=".notdef" xMin="105" yMin="-220" xMax="686" yMax="1030">
      <contour>
        <pt x="105" y="1030" on="1"/>
        <pt x="686" y="1030" on="1"/>
        <pt x="686" y="-220" on="1"/>
        <pt x="105" y="-220" on="1"/>
      </contour>
      <contour>
        <pt x="634" y="-169" on="1"/>
        <pt x="634" y="980" on="1"/>
        <pt x="158" y="980" on="1"/>
        <pt x="158" y="-169" on="1"/>
      </contour>
    </TTGlyph>
    <TTGlyph name="A" xMin="10" yMin="0" xMax="685" yMax="740">
      <contour>
        <pt x="10" y="6" on="1"/>
        <pt x="304" y="740" on="1"/>
        <pt x="391" y="740" on="1"/>
        <pt x="685" y="6" on="1"/>
        <pt x="685" y="0" on="1"/>
        <pt x="629" y="0" on="1"/>
        <pt x="534" y="238" on="1"/>
        <pt x="161" y="238" on="1"/>
        <pt x="66" y="0" on="1"/>
        <pt x="10" y="0" on="1"/>
      </contour>
      <contour>
        <pt x="515" y="288" on="1"/>
        <pt x="400" y="575" on="1"/>
        <pt x="350" y="701" on="1"/>
        <pt x="344" y="701" on="1"/>
        <pt x="295" y="575" on="1"/>
        <pt x="180" y="288" on="1"/>
      </contour>
    </TTGlyph>
    <TTGlyph name="A.sc" xMin="18" yMin="0" xMax="607" yMax="577">
      <contour>
        <pt x="18" y="5" on="1"/>
        <pt x="270" y="577" on="1"/>
        <pt x="355" y="577" on="1"/>
        <pt x="607" y="5" on="1"/>
        <pt x="607" y="0" on="1"/>
        <pt x="553" y="0" on="1"/>
        <pt x="472" y="180" on="1"/>
        <pt x="152" y="180" on="1"/>
        <pt x="72" y="0" on="1"/>
        <pt x="18" y="0" on="1"/>
      </contour>
      <contour>
        <pt x="455" y="223" on="1"/>
        <pt x="358" y="442" on="1"/>
        <pt x="315" y="540" on="1"/>
        <pt x="309" y="540" on="1"/>
        <pt x="266" y="442" on="1"/>
        <pt x="168" y="223" on="1"/>
      </contour>
    </TTGlyph>
    <TTGlyph name="AE" xMin="11" yMin="0" xMax="827" yMax="740">
      <contour>
        <pt x="11" y="7" on="1"/>
        <pt x="331" y="740" on="1"/>
        <pt x="817" y="740" on="1"/>
        <pt x="817" y="691" on="1"/>
        <pt x="465" y="691" on="1"/>
        <pt x="478" y="400" on="1"/>
        <pt x="786" y="400" on="1"/>
        <pt x="786" y="351" on="1"/>
        <pt x="481" y="351" on="1"/>
        <pt x="495" y="49" on="1"/>
        <pt x="827" y="49" on="1"/>
        <pt x="827" y="0" on="1"/>
        <pt x="441" y="0" on="1"/>
        <pt x="431" y="238" on="1"/>
        <pt x="169" y="238" on="1"/>
        <pt x="64" y="0" on="1"/>
        <pt x="11" y="0" on="1"/>
      </contour>
      <contour>
        <pt x="191" y="288" on="1"/>
        <pt x="429" y="288" on="1"/>
        <pt x="413" y="692" on="1"/>
        <pt x="369" y="692" on="1"/>
      </contour>
    </TTGlyph>
    <TTGlyph name="AE.sc" xMin="21" yMin="0" xMax="735" yMax="577">
      <contour>
        <pt x="21" y="6" on="1"/>
        <pt x="298" y="577" on="1"/>
        <pt x="725" y="577" on="1"/>
        <pt x="725" y="532" on="1"/>
        <pt x="423" y="532" on="1"/>
        <pt x="434" y="314" on="1"/>
        <pt x="699" y="314" on="1"/>
        <pt x="699" y="272" on="1"/>
        <pt x="437" y="272" on="1"/>
        <pt x="449" y="45" on="1"/>
        <pt x="735" y="45" on="1"/>
        <pt x="735" y="0" on="1"/>
        <pt x="395" y="0" on="1"/>
        <pt x="387" y="180" on="1"/>
        <pt x="161" y="180" on="1"/>
        <pt x="73" y="0" on="1"/>
        <pt x="21" y="0" on="1"/>
      </contour>
      <contour>
        <pt x="183" y="223" on="1"/>
        <pt x="385" y="223" on="1"/>
        <pt x="371" y="533" on="1"/>
        <pt x="335" y="533" on="1"/>
      </contour>
    </TTGlyph>
    <TTGlyph name="AEacute" xMin="11" yMin="0" xMax="827" yMax="938">
      <contour>
        <pt x="501" y="811" on="1"/>
        <pt x="579" y="938" on="1"/>
        <pt x="637" y="938" on="1"/>
        <pt x="547" y="804" on="1"/>
      </contour>
      <contour>
        <pt x="11" y="7" on="1"/>
        <pt x="331" y="740" on="1"/>
        <pt x="817" y="740" on="1"/>
        <pt x="817" y="691" on="1"/>
        <pt x="465" y="691" on="1"/>
        <pt x="478" y="400" on="1"/>
        <pt x="786" y="400" on="1"/>
        <pt x="786" y="351" on="1"/>
        <pt x="481" y="351" on="1"/>
        <pt x="495" y="49" on="1"/>
        <pt x="827" y="49" on="1"/>
        <pt x="827" y="0" on="1"/>
        <pt x="441" y="0" on="1"/>
        <pt x="431" y="238" on="1"/>
        <pt x="169" y="238" on="1"/>
        <pt x="64" y="0" on="1"/>
        <pt x="11" y="0" on="1"/>
      </contour>
      <contour>
        <pt x="191" y="288" on="1"/>
        <pt x="429" y="288" on="1"/>
        <pt x="413" y="692" on="1"/>
        <pt x="369" y="692" on="1"/>
      </contour>
    </TTGlyph>
    <TTGlyph name="AEacute.sc" xMin="21" yMin="0" xMax="735" yMax="736">
      <contour>
        <pt x="21" y="6" on="1"/>
        <pt x="298" y="577" on="1"/>
        <pt x="725" y="577" on="1"/>
        <pt x="725" y="532" on="1"/>
        <pt x="423" y="532" on="1"/>
        <pt x="434" y="314" on="1"/>
        <pt x="699" y="314" on="1"/>
        <pt x="699" y="272" on="1"/>
        <pt x="437" y="272" on="1"/>
        <pt x="449" y="45" on="1"/>
        <pt x="735" y="45" on="1"/>
        <pt x="735" y="0" on="1"/>
        <pt x="395" y="0" on="1"/>
        <pt x="387" y="180" on="1"/>
        <pt x="161" y="180" on="1"/>
        <pt x="73" y="0" on="1"/>
        <pt x="21" y="0" on="1"/>
      </contour>
      <contour>
        <pt x="385" y="223" on="1"/>
        <pt x="371" y="533" on="1"/>
        <pt x="335" y="533" on="1"/>
        <pt x="183" y="223" on="1"/>
      </contour>
      <contour>
        <pt x="444" y="634" on="1"/>
        <pt x="510" y="736" on="1"/>
        <pt x="567" y="736" on="1"/>
        <pt x="488" y="628" on="1"/>
      </contour>
    </TTGlyph>
    <TTGlyph name="Aacute" xMin="10" yMin="0" xMax="685" yMax="938">
      <contour>
        <pt x="10" y="6" on="1"/>
        <pt x="304" y="740" on="1"/>
        <pt x="391" y="740" on="1"/>
        <pt x="685" y="6" on="1"/>
        <pt x="685" y="0" on="1"/>
        <pt x="629" y="0" on="1"/>
        <pt x="534" y="238" on="1"/>
        <pt x="161" y="238" on="1"/>
        <pt x="66" y="0" on="1"/>
        <pt x="10" y="0" on="1"/>
      </contour>
      <contour>
        <pt x="515" y="288" on="1"/>
        <pt x="400" y="575" on="1"/>
        <pt x="350" y="701" on="1"/>
        <pt x="344" y="701" on="1"/>
        <pt x="295" y="575" on="1"/>
        <pt x="180" y="288" on="1"/>
      </contour>
      <contour>
        <pt x="319" y="811" on="1"/>
        <pt x="397" y="938" on="1"/>
        <pt x="455" y="938" on="1"/>
        <pt x="365" y="804" on="1"/>
      </contour>
    </TTGlyph>
    <TTGlyph name="Aacute.sc" xMin="18" yMin="0" xMax="607" yMax="736">
      <contour>
        <pt x="18" y="5" on="1"/>
        <pt x="270" y="577" on="1"/>
        <pt x="355" y="577" on="1"/>
        <pt x="607" y="5" on="1"/>
        <pt x="607" y="0" on="1"/>
        <pt x="553" y="0" on="1"/>
        <pt x="472" y="180" on="1"/>
        <pt x="152" y="180" on="1"/>
        <pt x="72" y="0" on="1"/>
        <pt x="18" y="0" on="1"/>
      </contour>
      <contour>
        <pt x="455" y="224" on="1"/>
        <pt x="358" y="442" on="1"/>
        <pt x="315" y="540" on="1"/>
        <pt x="309" y="540" on="1"/>
        <pt x="266" y="442" on="1"/>
        <pt x="169" y="224" on="1"/>
      </contour>
      <contour>
        <pt x="286" y="634" on="1"/>
        <pt x="351" y="736" on="1"/>
        <pt x="408" y="736" on="1"/>
        <pt x="329" y="628" on="1"/>
      </contour>
    </TTGlyph>
    <TTGlyph name="Abreve" xMin="10" yMin="0" xMax="685" yMax="954">
      <contour>
        <pt x="10" y="6" on="1"/>
        <pt x="304" y="740" on="1"/>
        <pt x="391" y="740" on="1"/>
        <pt x="685" y="6" on="1"/>
        <pt x="685" y="0" on="1"/>
        <pt x="629" y="0" on="1"/>
        <pt x="534" y="238" on="1"/>
        <pt x="161" y="238" on="1"/>
        <pt x="66" y="0" on="1"/>
        <pt x="10" y="0" on="1"/>
      </contour>
      <contour>
        <pt x="515" y="288" on="1"/>
        <pt x="400" y="575" on="1"/>
        <pt x="350" y="701" on="1"/>
        <pt x="344" y="701" on="1"/>
        <pt x="295" y="575" on="1"/>
        <pt x="180" y="288" on="1"/>
      </contour>
      <contour>
        <pt x="348" y="816" on="1"/>
        <pt x="263" y="816" on="0"/>
        <pt x="174" y="890" on="0"/>
        <pt x="174" y="954" on="1"/>
        <pt x="220" y="954" on="1"/>
        <pt x="220" y="908" on="0"/>
        <pt x="286" y="857" on="0"/>
        <pt x="348" y="857" on="1"/>
        <pt x="409" y="857" on="0"/>
        <pt x="476" y="908" on="0"/>
        <pt x="476" y="954" on="1"/>
        <pt x="522" y="954" on="1"/>
        <pt x="522" y="890" on="0"/>
        <pt x="433" y="816" on="0"/>
      </contour>
    </TTGlyph>
    <TTGlyph name="Abreve.sc" xMin="18" yMin="0" xMax="607" yMax="748">
      <contour>
        <pt x="313" y="636" on="1"/>
        <pt x="238" y="636" on="0"/>
        <pt x="159" y="697" on="0"/>
        <pt x="159" y="748" on="1"/>
        <pt x="202" y="748" on="1"/>
        <pt x="202" y="712" on="0"/>
        <pt x="259" y="672" on="0"/>
        <pt x="313" y="672" on="1"/>
        <pt x="367" y="672" on="0"/>
        <pt x="423" y="712" on="0"/>
        <pt x="423" y="748" on="1"/>
        <pt x="466" y="748" on="1"/>
        <pt x="466" y="697" on="0"/>
        <pt x="388" y="636" on="0"/>
      </contour>
      <contour>
        <pt x="18" y="5" on="1"/>
        <pt x="270" y="577" on="1"/>
        <pt x="355" y="577" on="1"/>
        <pt x="607" y="5" on="1"/>
        <pt x="607" y="0" on="1"/>
        <pt x="553" y="0" on="1"/>
        <pt x="472" y="180" on="1"/>
        <pt x="152" y="180" on="1"/>
        <pt x="72" y="0" on="1"/>
        <pt x="18" y="0" on="1"/>
      </contour>
      <contour>
        <pt x="455" y="224" on="1"/>
        <pt x="358" y="442" on="1"/>
        <pt x="315" y="540" on="1"/>
        <pt x="309" y="540" on="1"/>
        <pt x="266" y="442" on="1"/>
        <pt x="169" y="224" on="1"/>
      </contour>
    </TTGlyph>
    <TTGlyph name="Acircumflex" xMin="10" yMin="0" xMax="685" yMax="942">
      <contour>
        <pt x="10" y="6" on="1"/>
        <pt x="304" y="740" on="1"/>
        <pt x="391" y="740" on="1"/>
        <pt x="685" y="6" on="1"/>
        <pt x="685" y="0" on="1"/>
        <pt x="629" y="0" on="1"/>
        <pt x="534" y="238" on="1"/>
        <pt x="161" y="238" on="1"/>
        <pt x="66" y="0" on="1"/>
        <pt x="10" y="0" on="1"/>
      </contour>
      <contour>
        <pt x="515" y="288" on="1"/>
        <pt x="400" y="575" on="1"/>
        <pt x="350" y="701" on="1"/>
        <pt x="344" y="701" on="1"/>
        <pt x="295" y="575" on="1"/>
        <pt x="180" y="288" on="1"/>
      </contour>
      <contour>
        <pt x="189" y="869" on="1"/>
        <pt x="349" y="942" on="1"/>
        <pt x="509" y="869" on="1"/>
        <pt x="509" y="817" on="1"/>
        <pt x="349" y="890" on="1"/>
        <pt x="189" y="817" on="1"/>
      </contour>
    </TTGlyph>
    <TTGlyph name="Acircumflex.sc" xMin="18" yMin="0" xMax="607" yMax="740">
      <contour>
        <pt x="18" y="5" on="1"/>
        <pt x="270" y="577" on="1"/>
        <pt x="355" y="577" on="1"/>
        <pt x="607" y="5" on="1"/>
        <pt x="607" y="0" on="1"/>
        <pt x="553" y="0" on="1"/>
        <pt x="472" y="180" on="1"/>
        <pt x="152" y="180" on="1"/>
        <pt x="72" y="0" on="1"/>
        <pt x="18" y="0" on="1"/>
      </contour>
      <contour>
        <pt x="455" y="224" on="1"/>
        <pt x="358" y="442" on="1"/>
        <pt x="315" y="540" on="1"/>
        <pt x="309" y="540" on="1"/>
        <pt x="266" y="442" on="1"/>
        <pt x="169" y="224" on="1"/>
      </contour>
      <contour>
        <pt x="173" y="682" on="1"/>
        <pt x="313" y="740" on="1"/>
        <pt x="455" y="682" on="1"/>
        <pt x="455" y="636" on="1"/>
        <pt x="314" y="693" on="1"/>
        <pt x="173" y="636" on="1"/>
      </contour>
    </TTGlyph>
    <TTGlyph name="Adblgrave" xMin="10" yMin="0" xMax="685" yMax="929">
      <contour>
        <pt x="10" y="6" on="1"/>
        <pt x="304" y="740" on="1"/>
        <pt x="391" y="740" on="1"/>
        <pt x="685" y="6" on="1"/>
        <pt x="685" y="0" on="1"/>
        <pt x="629" y="0" on="1"/>
        <pt x="534" y="238" on="1"/>
        <pt x="161" y="238" on="1"/>
        <pt x="66" y="0" on="1"/>
        <pt x="10" y="0" on="1"/>
      </contour>
      <contour>
        <pt x="515" y="288" on="1"/>
        <pt x="400" y="575" on="1"/>
        <pt x="350" y="701" on="1"/>
        <pt x="344" y="701" on="1"/>
        <pt x="295" y="575" on="1"/>
        <pt x="180" y="288" on="1"/>
      </contour>
      <contour>
        <pt x="256" y="795" on="1"/>
        <pt x="166" y="929" on="1"/>
        <pt x="224" y="929" on="1"/>
        <pt x="301" y="809" on="1"/>
      </contour>
      <contour>
        <pt x="396" y="795" on="1"/>
        <pt x="306" y="929" on="1"/>
        <pt x="364" y="929" on="1"/>
        <pt x="441" y="809" on="1"/>
      </contour>
    </TTGlyph>
    <TTGlyph name="Adblgrave.sc" xMin="18" yMin="0" xMax="607" yMax="730">
      <contour>
        <pt x="18" y="5" on="1"/>
        <pt x="270" y="577" on="1"/>
        <pt x="355" y="577" on="1"/>
        <pt x="607" y="5" on="1"/>
        <pt x="607" y="0" on="1"/>
        <pt x="553" y="0" on="1"/>
        <pt x="472" y="180" on="1"/>
        <pt x="152" y="180" on="1"/>
        <pt x="72" y="0" on="1"/>
        <pt x="18" y="0" on="1"/>
      </contour>
      <contour>
        <pt x="455" y="224" on="1"/>
        <pt x="358" y="442" on="1"/>
        <pt x="315" y="540" on="1"/>
        <pt x="309" y="540" on="1"/>
        <pt x="266" y="442" on="1"/>
        <pt x="169" y="224" on="1"/>
      </contour>
      <contour>
        <pt x="150" y="730" on="1"/>
        <pt x="207" y="730" on="1"/>
        <pt x="271" y="632" on="1"/>
        <pt x="229" y="621" on="1"/>
      </contour>
      <contour>
        <pt x="275" y="730" on="1"/>
        <pt x="330" y="730" on="1"/>
        <pt x="396" y="632" on="1"/>
        <pt x="353" y="621" on="1"/>
      </contour>
    </TTGlyph>
    <TTGlyph name="Adieresis" xMin="10" yMin="0" xMax="685" yMax="913">
      <contour>
        <pt x="10" y="6" on="1"/>
        <pt x="304" y="740" on="1"/>
        <pt x="391" y="740" on="1"/>
        <pt x="685" y="6" on="1"/>
        <pt x="685" y="0" on="1"/>
        <pt x="629" y="0" on="1"/>
        <pt x="534" y="238" on="1"/>
        <pt x="161" y="238" on="1"/>
        <pt x="66" y="0" on="1"/>
        <pt x="10" y="0" on="1"/>
      </contour>
      <contour>
        <pt x="515" y="288" on="1"/>
        <pt x="400" y="575" on="1"/>
        <pt x="350" y="701" on="1"/>
        <pt x="344" y="701" on="1"/>
        <pt x="295" y="575" on="1"/>
        <pt x="180" y="288" on="1"/>
      </contour>
      <contour>
        <pt x="213" y="830" on="1"/>
        <pt x="193" y="830" on="0"/>
        <pt x="171" y="850" on="0"/>
        <pt x="171" y="872" on="1"/>
        <pt x="171" y="894" on="0"/>
        <pt x="193" y="913" on="0"/>
        <pt x="213" y="913" on="1"/>
        <pt x="231" y="913" on="0"/>
        <pt x="255" y="894" on="0"/>
        <pt x="255" y="872" on="1"/>
        <pt x="255" y="849" on="0"/>
        <pt x="231" y="830" on="0"/>
      </contour>
      <contour>
        <pt x="484" y="830" on="1"/>
        <pt x="464" y="830" on="0"/>
        <pt x="442" y="850" on="0"/>
        <pt x="442" y="872" on="1"/>
        <pt x="442" y="894" on="0"/>
        <pt x="464" y="913" on="0"/>
        <pt x="484" y="913" on="1"/>
        <pt x="503" y="913" on="0"/>
        <pt x="527" y="894" on="0"/>
        <pt x="527" y="872" on="1"/>
        <pt x="527" y="849" on="0"/>
        <pt x="503" y="830" on="0"/>
      </contour>
    </TTGlyph>
    <TTGlyph name="Adieresis.sc" xMin="18" yMin="0" xMax="607" yMax="721">
      <contour>
        <pt x="193" y="646" on="1"/>
        <pt x="155" y="646" on="0"/>
        <pt x="155" y="683" on="1"/>
        <pt x="155" y="721" on="0"/>
        <pt x="193" y="721" on="1"/>
        <pt x="212" y="721" on="0"/>
        <pt x="234" y="703" on="0"/>
        <pt x="234" y="683" on="1"/>
        <pt x="234" y="663" on="0"/>
        <pt x="212" y="646" on="0"/>
      </contour>
      <contour>
        <pt x="432" y="646" on="1"/>
        <pt x="392" y="646" on="0"/>
        <pt x="392" y="683" on="1"/>
        <pt x="392" y="721" on="0"/>
        <pt x="432" y="721" on="1"/>
        <pt x="449" y="721" on="0"/>
        <pt x="471" y="703" on="0"/>
        <pt x="471" y="683" on="1"/>
        <pt x="471" y="663" on="0"/>
        <pt x="449" y="646" on="0"/>
      </contour>
      <contour>
        <pt x="18" y="5" on="1"/>
        <pt x="270" y="577" on="1"/>
        <pt x="355" y="577" on="1"/>
        <pt x="607" y="5" on="1"/>
        <pt x="607" y="0" on="1"/>
        <pt x="553" y="0" on="1"/>
        <pt x="472" y="180" on="1"/>
        <pt x="152" y="180" on="1"/>
        <pt x="72" y="0" on="1"/>
        <pt x="18" y="0" on="1"/>
      </contour>
      <contour>
        <pt x="455" y="224" on="1"/>
        <pt x="358" y="442" on="1"/>
        <pt x="315" y="540" on="1"/>
        <pt x="309" y="540" on="1"/>
        <pt x="266" y="442" on="1"/>
        <pt x="169" y="224" on="1"/>
      </contour>
    </TTGlyph>
    <TTGlyph name="Agrave" xMin="10" yMin="0" xMax="685" yMax="938">
      <contour>
        <pt x="10" y="6" on="1"/>
        <pt x="304" y="740" on="1"/>
        <pt x="391" y="740" on="1"/>
        <pt x="685" y="6" on="1"/>
        <pt x="685" y="0" on="1"/>
        <pt x="629" y="0" on="1"/>
        <pt x="534" y="238" on="1"/>
        <pt x="161" y="238" on="1"/>
        <pt x="66" y="0" on="1"/>
        <pt x="10" y="0" on="1"/>
      </contour>
      <contour>
        <pt x="515" y="288" on="1"/>
        <pt x="400" y="575" on="1"/>
        <pt x="350" y="701" on="1"/>
        <pt x="344" y="701" on="1"/>
        <pt x="295" y="575" on="1"/>
        <pt x="180" y="288" on="1"/>
      </contour>
      <contour>
        <pt x="328" y="804" on="1"/>
        <pt x="238" y="938" on="1"/>
        <pt x="296" y="938" on="1"/>
        <pt x="373" y="818" on="1"/>
      </contour>
    </TTGlyph>
    <TTGlyph name="Agrave.sc" xMin="18" yMin="0" xMax="607" yMax="736">
      <contour>
        <pt x="18" y="5" on="1"/>
        <pt x="270" y="577" on="1"/>
        <pt x="355" y="577" on="1"/>
        <pt x="607" y="5" on="1"/>
        <pt x="607" y="0" on="1"/>
        <pt x="553" y="0" on="1"/>
        <pt x="472" y="180" on="1"/>
        <pt x="152" y="180" on="1"/>
        <pt x="72" y="0" on="1"/>
        <pt x="18" y="0" on="1"/>
      </contour>
      <contour>
        <pt x="455" y="224" on="1"/>
        <pt x="358" y="442" on="1"/>
        <pt x="315" y="540" on="1"/>
        <pt x="309" y="540" on="1"/>
        <pt x="266" y="442" on="1"/>
        <pt x="169" y="224" on="1"/>
      </contour>
      <contour>
        <pt x="293" y="628" on="1"/>
        <pt x="214" y="736" on="1"/>
        <pt x="271" y="736" on="1"/>
        <pt x="335" y="639" on="1"/>
      </contour>
    </TTGlyph>
    <TTGlyph name="Ainvertedbreve" xMin="10" yMin="0" xMax="685" yMax="955">
      <contour>
        <pt x="10" y="6" on="1"/>
        <pt x="304" y="740" on="1"/>
        <pt x="391" y="740" on="1"/>
        <pt x="685" y="6" on="1"/>
        <pt x="685" y="0" on="1"/>
        <pt x="629" y="0" on="1"/>
        <pt x="534" y="238" on="1"/>
        <pt x="161" y="238" on="1"/>
        <pt x="66" y="0" on="1"/>
        <pt x="10" y="0" on="1"/>
      </contour>
      <contour>
        <pt x="515" y="288" on="1"/>
        <pt x="400" y="575" on="1"/>
        <pt x="350" y="701" on="1"/>
        <pt x="344" y="701" on="1"/>
        <pt x="295" y="575" on="1"/>
        <pt x="180" y="288" on="1"/>
      </contour>
      <contour>
        <pt x="477" y="817" on="1"/>
        <pt x="477" y="862" on="0"/>
        <pt x="410" y="914" on="0"/>
        <pt x="348" y="914" on="1"/>
        <pt x="287" y="914" on="0"/>
        <pt x="220" y="862" on="0"/>
        <pt x="220" y="817" on="1"/>
        <pt x="174" y="817" on="1"/>
        <pt x="174" y="880" on="0"/>
        <pt x="264" y="955" on="0"/>
        <pt x="348" y="955" on="1"/>
        <pt x="433" y="955" on="0"/>
        <pt x="523" y="880" on="0"/>
        <pt x="523" y="817" on="1"/>
      </contour>
    </TTGlyph>
    <TTGlyph name="Ainvertedbreve.sc" xMin="18" yMin="0" xMax="607" yMax="749">
      <contour>
        <pt x="159" y="637" on="1"/>
        <pt x="159" y="688" on="0"/>
        <pt x="238" y="749" on="0"/>
        <pt x="313" y="749" on="1"/>
        <pt x="388" y="749" on="0"/>
        <pt x="466" y="688" on="0"/>
        <pt x="466" y="637" on="1"/>
        <pt x="423" y="637" on="1"/>
        <pt x="423" y="672" on="0"/>
        <pt x="367" y="712" on="0"/>
        <pt x="313" y="712" on="1"/>
        <pt x="259" y="712" on="0"/>
        <pt x="202" y="672" on="0"/>
        <pt x="202" y="637" on="1"/>
      </contour>
      <contour>
        <pt x="18" y="5" on="1"/>
        <pt x="270" y="577" on="1"/>
        <pt x="355" y="577" on="1"/>
        <pt x="607" y="5" on="1"/>
        <pt x="607" y="0" on="1"/>
        <pt x="553" y="0" on="1"/>
        <pt x="472" y="180" on="1"/>
        <pt x="152" y="180" on="1"/>
        <pt x="72" y="0" on="1"/>
        <pt x="18" y="0" on="1"/>
      </contour>
      <contour>
        <pt x="455" y="224" on="1"/>
        <pt x="358" y="442" on="1"/>
        <pt x="315" y="540" on="1"/>
        <pt x="309" y="540" on="1"/>
        <pt x="266" y="442" on="1"/>
        <pt x="169" y="224" on="1"/>
      </contour>
    </TTGlyph>
    <TTGlyph name="Amacron" xMin="10" yMin="0" xMax="685" yMax="888">
      <contour>
        <pt x="10" y="6" on="1"/>
        <pt x="304" y="740" on="1"/>
        <pt x="391" y="740" on="1"/>
        <pt x="685" y="6" on="1"/>
        <pt x="685" y="0" on="1"/>
        <pt x="629" y="0" on="1"/>
        <pt x="534" y="238" on="1"/>
        <pt x="161" y="238" on="1"/>
        <pt x="66" y="0" on="1"/>
        <pt x="10" y="0" on="1"/>
      </contour>
      <contour>
        <pt x="515" y="288" on="1"/>
        <pt x="400" y="575" on="1"/>
        <pt x="350" y="701" on="1"/>
        <pt x="344" y="701" on="1"/>
        <pt x="295" y="575" on="1"/>
        <pt x="180" y="288" on="1"/>
      </contour>
      <contour>
        <pt x="191" y="888" on="1"/>
        <pt x="506" y="888" on="1"/>
        <pt x="506" y="842" on="1"/>
        <pt x="191" y="842" on="1"/>
      </contour>
    </TTGlyph>
    <TTGlyph name="Amacron.sc" xMin="18" yMin="0" xMax="607" yMax="699">
      <contour>
        <pt x="18" y="5" on="1"/>
        <pt x="270" y="577" on="1"/>
        <pt x="355" y="577" on="1"/>
        <pt x="607" y="5" on="1"/>
        <pt x="607" y="0" on="1"/>
        <pt x="553" y="0" on="1"/>
        <pt x="472" y="180" on="1"/>
        <pt x="152" y="180" on="1"/>
        <pt x="72" y="0" on="1"/>
        <pt x="18" y="0" on="1"/>
      </contour>
      <contour>
        <pt x="455" y="224" on="1"/>
        <pt x="358" y="442" on="1"/>
        <pt x="315" y="540" on="1"/>
        <pt x="309" y="540" on="1"/>
        <pt x="266" y="442" on="1"/>
        <pt x="169" y="224" on="1"/>
      </contour>
      <contour>
        <pt x="175" y="699" on="1"/>
        <pt x="453" y="699" on="1"/>
        <pt x="453" y="657" on="1"/>
        <pt x="175" y="657" on="1"/>
      </contour>
    </TTGlyph>
    <TTGlyph name="Aogonek" xMin="10" yMin="-220" xMax="685" yMax="740">
      <contour>
        <pt x="609" y="-220" on="1"/>
        <pt x="561" y="-220" on="0"/>
        <pt x="518" y="-183" on="0"/>
        <pt x="518" y="-144" on="1"/>
        <pt x="518" y="-124" on="0"/>
        <pt x="530" y="-89" on="0"/>
        <pt x="558" y="-56" on="0"/>
        <pt x="605" y="-21" on="0"/>
        <pt x="640" y="0" on="1"/>
        <pt x="629" y="0" on="1"/>
        <pt x="534" y="238" on="1"/>
        <pt x="161" y="238" on="1"/>
        <pt x="66" y="0" on="1"/>
        <pt x="10" y="0" on="1"/>
        <pt x="10" y="6" on="1"/>
        <pt x="304" y="740" on="1"/>
        <pt x="391" y="740" on="1"/>
        <pt x="685" y="6" on="1"/>
        <pt x="685" y="-22" on="1"/>
        <pt x="619" y="-54" on="0"/>
        <pt x="562" y="-110" on="0"/>
        <pt x="562" y="-142" on="1"/>
        <pt x="562" y="-182" on="0"/>
        <pt x="615" y="-182" on="1"/>
        <pt x="645" y="-182" on="0"/>
        <pt x="684" y="-171" on="1"/>
        <pt x="684" y="-208" on="1"/>
        <pt x="669" y="-213" on="0"/>
        <pt x="629" y="-220" on="0"/>
      </contour>
      <contour>
        <pt x="515" y="288" on="1"/>
        <pt x="400" y="575" on="1"/>
        <pt x="350" y="701" on="1"/>
        <pt x="344" y="701" on="1"/>
        <pt x="295" y="575" on="1"/>
        <pt x="180" y="288" on="1"/>
      </contour>
    </TTGlyph>
    <TTGlyph name="Aogonek.sc" xMin="17" yMin="-169" xMax="606" yMax="577">
      <contour>
        <pt x="538" y="-169" on="1"/>
        <pt x="457" y="-169" on="0"/>
        <pt x="457" y="-107" on="1"/>
        <pt x="457" y="-78" on="0"/>
        <pt x="499" y="-32" on="0"/>
        <pt x="555" y="0" on="1"/>
        <pt x="551" y="0" on="1"/>
        <pt x="471" y="180" on="1"/>
        <pt x="151" y="180" on="1"/>
        <pt x="71" y="0" on="1"/>
        <pt x="17" y="0" on="1"/>
        <pt x="17" y="5" on="1"/>
        <pt x="269" y="577" on="1"/>
        <pt x="354" y="577" on="1"/>
        <pt x="606" y="5" on="1"/>
        <pt x="606" y="-13" on="1"/>
        <pt x="554" y="-35" on="0"/>
        <pt x="499" y="-76" on="0"/>
        <pt x="499" y="-103" on="1"/>
        <pt x="499" y="-122" on="0"/>
        <pt x="523" y="-134" on="0"/>
        <pt x="543" y="-134" on="1"/>
        <pt x="557" y="-134" on="0"/>
        <pt x="591" y="-130" on="0"/>
        <pt x="605" y="-125" on="1"/>
        <pt x="605" y="-159" on="1"/>
        <pt x="591" y="-164" on="0"/>
        <pt x="555" y="-169" on="0"/>
      </contour>
      <contour>
        <pt x="454" y="224" on="1"/>
        <pt x="357" y="445" on="1"/>
        <pt x="314" y="540" on="1"/>
        <pt x="308" y="540" on="1"/>
        <pt x="265" y="445" on="1"/>
        <pt x="167" y="224" on="1"/>
      </contour>
    </TTGlyph>
    <TTGlyph name="Aring" xMin="10" yMin="0" xMax="685" yMax="1018">
      <contour>
        <pt x="10" y="6" on="1"/>
        <pt x="304" y="740" on="1"/>
        <pt x="391" y="740" on="1"/>
        <pt x="685" y="6" on="1"/>
        <pt x="685" y="0" on="1"/>
        <pt x="629" y="0" on="1"/>
        <pt x="534" y="238" on="1"/>
        <pt x="161" y="238" on="1"/>
        <pt x="66" y="0" on="1"/>
        <pt x="10" y="0" on="1"/>
      </contour>
      <contour>
        <pt x="515" y="288" on="1"/>
        <pt x="400" y="575" on="1"/>
        <pt x="350" y="701" on="1"/>
        <pt x="344" y="701" on="1"/>
        <pt x="295" y="575" on="1"/>
        <pt x="180" y="288" on="1"/>
      </contour>
      <contour>
        <pt x="350" y="803" on="1"/>
        <pt x="324" y="803" on="0"/>
        <pt x="279" y="819" on="0"/>
        <pt x="246" y="848" on="0"/>
        <pt x="227" y="887" on="0"/>
        <pt x="227" y="910" on="1"/>
        <pt x="227" y="933" on="0"/>
        <pt x="246" y="973" on="0"/>
        <pt x="279" y="1002" on="0"/>
        <pt x="324" y="1018" on="0"/>
        <pt x="350" y="1018" on="1"/>
        <pt x="402" y="1018" on="0"/>
        <pt x="471" y="957" on="0"/>
        <pt x="471" y="910" on="1"/>
        <pt x="471" y="864" on="0"/>
        <pt x="402" y="803" on="0"/>
      </contour>
      <contour>
        <pt x="350" y="841" on="1"/>
        <pt x="388" y="841" on="0"/>
        <pt x="431" y="878" on="0"/>
        <pt x="431" y="910" on="1"/>
        <pt x="431" y="943" on="0"/>
        <pt x="388" y="980" on="0"/>
        <pt x="350" y="980" on="1"/>
        <pt x="312" y="980" on="0"/>
        <pt x="268" y="943" on="0"/>
        <pt x="268" y="910" on="1"/>
        <pt x="268" y="878" on="0"/>
        <pt x="312" y="841" on="0"/>
      </contour>
    </TTGlyph>
    <TTGlyph name="Aring.sc" xMin="18" yMin="0" xMax="607" yMax="799">
      <contour>
        <pt x="18" y="5" on="1"/>
        <pt x="270" y="577" on="1"/>
        <pt x="355" y="577" on="1"/>
        <pt x="607" y="5" on="1"/>
        <pt x="607" y="0" on="1"/>
        <pt x="553" y="0" on="1"/>
        <pt x="472" y="180" on="1"/>
        <pt x="152" y="180" on="1"/>
        <pt x="72" y="0" on="1"/>
        <pt x="18" y="0" on="1"/>
      </contour>
      <contour>
        <pt x="455" y="224" on="1"/>
        <pt x="358" y="442" on="1"/>
        <pt x="315" y="540" on="1"/>
        <pt x="309" y="540" on="1"/>
        <pt x="266" y="442" on="1"/>
        <pt x="169" y="224" on="1"/>
      </contour>
      <contour>
        <pt x="315" y="629" on="1"/>
        <pt x="269" y="629" on="0"/>
        <pt x="207" y="676" on="0"/>
        <pt x="207" y="713" on="1"/>
        <pt x="207" y="749" on="0"/>
        <pt x="269" y="799" on="0"/>
        <pt x="315" y="799" on="1"/>
        <pt x="360" y="799" on="0"/>
        <pt x="420" y="749" on="0"/>
        <pt x="420" y="713" on="1"/>
        <pt x="420" y="676" on="0"/>
        <pt x="360" y="629" on="0"/>
      </contour>
      <contour>
        <pt x="315" y="661" on="1"/>
        <pt x="348" y="661" on="0"/>
        <pt x="384" y="688" on="0"/>
        <pt x="384" y="713" on="1"/>
        <pt x="384" y="738" on="0"/>
        <pt x="348" y="767" on="0"/>
        <pt x="315" y="767" on="1"/>
        <pt x="281" y="767" on="0"/>
        <pt x="244" y="738" on="0"/>
        <pt x="244" y="713" on="1"/>
        <pt x="244" y="688" on="0"/>
        <pt x="281" y="661" on="0"/>
      </contour>
    </TTGlyph>
    <TTGlyph name="Aringacute" xMin="11" yMin="0" xMax="685" yMax="967">
      <contour>
        <pt x="11" y="6" on="1"/>
        <pt x="274" y="663" on="1"/>
        <pt x="248" y="677" on="0"/>
        <pt x="217" y="725" on="0"/>
        <pt x="217" y="755" on="1"/>
        <pt x="217" y="799" on="0"/>
        <pt x="277" y="859" on="0"/>
        <pt x="325" y="865" on="1"/>
        <pt x="392" y="967" on="1"/>
        <pt x="450" y="967" on="1"/>
        <pt x="380" y="863" on="1"/>
        <pt x="422" y="854" on="0"/>
        <pt x="475" y="795" on="0"/>
        <pt x="475" y="755" on="1"/>
        <pt x="475" y="726" on="0"/>
        <pt x="446" y="679" on="0"/>
        <pt x="422" y="665" on="1"/>
        <pt x="685" y="6" on="1"/>
        <pt x="685" y="0" on="1"/>
        <pt x="630" y="0" on="1"/>
        <pt x="535" y="238" on="1"/>
        <pt x="162" y="238" on="1"/>
        <pt x="67" y="0" on="1"/>
        <pt x="11" y="0" on="1"/>
      </contour>
      <contour>
        <pt x="347" y="685" on="1"/>
        <pt x="385" y="685" on="0"/>
        <pt x="431" y="723" on="0"/>
        <pt x="431" y="755" on="1"/>
        <pt x="431" y="788" on="0"/>
        <pt x="385" y="826" on="0"/>
        <pt x="347" y="826" on="1"/>
        <pt x="308" y="826" on="0"/>
        <pt x="262" y="788" on="0"/>
        <pt x="262" y="755" on="1"/>
        <pt x="262" y="723" on="0"/>
        <pt x="308" y="685" on="0"/>
      </contour>
      <contour>
        <pt x="516" y="288" on="1"/>
        <pt x="401" y="575" on="1"/>
        <pt x="373" y="645" on="1"/>
        <pt x="322" y="644" on="1"/>
        <pt x="295" y="575" on="1"/>
        <pt x="180" y="288" on="1"/>
      </contour>
    </TTGlyph>
    <TTGlyph name="Aringacute.sc" xMin="19" yMin="0" xMax="608" yMax="759">
      <contour>
        <pt x="19" y="5" on="1"/>
        <pt x="245" y="519" on="1"/>
        <pt x="222" y="530" on="0"/>
        <pt x="196" y="567" on="0"/>
        <pt x="196" y="590" on="1"/>
        <pt x="196" y="625" on="0"/>
        <pt x="249" y="673" on="0"/>
        <pt x="291" y="678" on="1"/>
        <pt x="349" y="759" on="1"/>
        <pt x="405" y="759" on="1"/>
        <pt x="343" y="676" on="1"/>
        <pt x="381" y="669" on="0"/>
        <pt x="427" y="622" on="0"/>
        <pt x="427" y="590" on="1"/>
        <pt x="427" y="567" on="0"/>
        <pt x="402" y="531" on="0"/>
        <pt x="381" y="520" on="1"/>
        <pt x="608" y="5" on="1"/>
        <pt x="608" y="0" on="1"/>
        <pt x="554" y="0" on="1"/>
        <pt x="473" y="180" on="1"/>
        <pt x="153" y="180" on="1"/>
        <pt x="73" y="0" on="1"/>
        <pt x="19" y="0" on="1"/>
      </contour>
      <contour>
        <pt x="312" y="537" on="1"/>
        <pt x="346" y="537" on="0"/>
        <pt x="384" y="566" on="0"/>
        <pt x="384" y="590" on="1"/>
        <pt x="384" y="616" on="0"/>
        <pt x="346" y="645" on="0"/>
        <pt x="312" y="645" on="1"/>
        <pt x="278" y="645" on="0"/>
        <pt x="238" y="616" on="0"/>
        <pt x="238" y="590" on="1"/>
        <pt x="238" y="565" on="0"/>
        <pt x="278" y="537" on="0"/>
      </contour>
      <contour>
        <pt x="456" y="224" on="1"/>
        <pt x="359" y="442" on="1"/>
        <pt x="334" y="500" on="1"/>
        <pt x="291" y="500" on="1"/>
        <pt x="267" y="442" on="1"/>
        <pt x="170" y="224" on="1"/>
      </contour>
    </TTGlyph>
    <TTGlyph name="Atilde" xMin="10" yMin="0" xMax="685" yMax="924">
      <contour>
        <pt x="10" y="6" on="1"/>
        <pt x="304" y="740" on="1"/>
        <pt x="391" y="740" on="1"/>
        <pt x="685" y="6" on="1"/>
        <pt x="685" y="0" on="1"/>
        <pt x="629" y="0" on="1"/>
        <pt x="534" y="238" on="1"/>
        <pt x="161" y="238" on="1"/>
        <pt x="66" y="0" on="1"/>
        <pt x="10" y="0" on="1"/>
      </contour>
      <contour>
        <pt x="515" y="288" on="1"/>
        <pt x="400" y="575" on="1"/>
        <pt x="350" y="701" on="1"/>
        <pt x="344" y="701" on="1"/>
        <pt x="295" y="575" on="1"/>
        <pt x="180" y="288" on="1"/>
      </contour>
      <contour>
        <pt x="156" y="867" on="1"/>
        <pt x="213" y="924" on="0"/>
        <pt x="277" y="924" on="1"/>
        <pt x="301" y="924" on="0"/>
        <pt x="343" y="911" on="0"/>
        <pt x="383" y="895" on="0"/>
        <pt x="422" y="882" on="0"/>
        <pt x="445" y="882" on="1"/>
        <pt x="496" y="882" on="0"/>
        <pt x="543" y="920" on="1"/>
        <pt x="567" y="894" on="1"/>
        <pt x="540" y="867" on="0"/>
        <pt x="473" y="837" on="0"/>
        <pt x="438" y="837" on="1"/>
        <pt x="417" y="837" on="0"/>
        <pt x="375" y="850" on="0"/>
        <pt x="334" y="866" on="0"/>
        <pt x="294" y="879" on="0"/>
        <pt x="274" y="879" on="1"/>
        <pt x="250" y="879" on="0"/>
        <pt x="204" y="862" on="0"/>
        <pt x="180" y="842" on="1"/>
      </contour>
    </TTGlyph>
    <TTGlyph name="Atilde.sc" xMin="18" yMin="0" xMax="607" yMax="727">
      <contour>
        <pt x="18" y="5" on="1"/>
        <pt x="270" y="577" on="1"/>
        <pt x="355" y="577" on="1"/>
        <pt x="607" y="5" on="1"/>
        <pt x="607" y="0" on="1"/>
        <pt x="553" y="0" on="1"/>
        <pt x="472" y="180" on="1"/>
        <pt x="152" y="180" on="1"/>
        <pt x="72" y="0" on="1"/>
        <pt x="18" y="0" on="1"/>
      </contour>
      <contour>
        <pt x="455" y="224" on="1"/>
        <pt x="358" y="442" on="1"/>
        <pt x="315" y="540" on="1"/>
        <pt x="309" y="540" on="1"/>
        <pt x="266" y="442" on="1"/>
        <pt x="169" y="224" on="1"/>
      </contour>
      <contour>
        <pt x="144" y="677" on="1"/>
        <pt x="194" y="727" on="0"/>
        <pt x="251" y="727" on="1"/>
        <pt x="272" y="727" on="0"/>
        <pt x="309" y="717" on="0"/>
        <pt x="343" y="704" on="0"/>
        <pt x="378" y="694" on="0"/>
        <pt x="398" y="694" on="1"/>
        <pt x="441" y="694" on="0"/>
        <pt x="485" y="723" on="1"/>
        <pt x="505" y="703" on="1"/>
        <pt x="481" y="679" on="0"/>
        <pt x="422" y="653" on="0"/>
        <pt x="391" y="653" on="1"/>
        <pt x="372" y="653" on="0"/>
        <pt x="335" y="663" on="0"/>
        <pt x="299" y="675" on="0"/>
        <pt x="264" y="685" on="0"/>
        <pt x="246" y="685" on="1"/>
        <pt x="226" y="685" on="0"/>
        <pt x="185" y="672" on="0"/>
        <pt x="164" y="656" on="1"/>
      </contour>
    </TTGlyph>
    <TTGlyph name="B" xMin="102" yMin="-10" xMax="620" yMax="748">
      <contour>
        <pt x="328" y="-10" on="1"/>
        <pt x="277" y="-10" on="0"/>
        <pt x="168" y="-3" on="0"/>
        <pt x="102" y="5" on="1"/>
        <pt x="102" y="735" on="1"/>
        <pt x="174" y="742" on="0"/>
        <pt x="277" y="748" on="0"/>
        <pt x="323" y="748" on="1"/>
        <pt x="396" y="748" on="0"/>
        <pt x="500" y="726" on="0"/>
        <pt x="565" y="679" on="0"/>
        <pt x="595" y="605" on="0"/>
        <pt x="595" y="552" on="1"/>
        <pt x="595" y="485" on="0"/>
        <pt x="523" y="389" on="0"/>
        <pt x="463" y="378" on="1"/>
        <pt x="463" y="374" on="1"/>
        <pt x="620" y="344" on="0"/>
        <pt x="620" y="192" on="1"/>
        <pt x="620" y="-10" on="0"/>
      </contour>
      <contour>
        <pt x="326" y="37" on="1"/>
        <pt x="449" y="37" on="0"/>
        <pt x="565" y="113" on="0"/>
        <pt x="565" y="194" on="1"/>
        <pt x="565" y="353" on="0"/>
        <pt x="355" y="353" on="1"/>
        <pt x="155" y="353" on="1"/>
        <pt x="155" y="48" on="1"/>
        <pt x="185" y="42" on="0"/>
        <pt x="269" y="37" on="0"/>
      </contour>
      <contour>
        <pt x="352" y="398" on="1"/>
        <pt x="453" y="398" on="0"/>
        <pt x="541" y="469" on="0"/>
        <pt x="541" y="551" on="1"/>
        <pt x="541" y="592" on="0"/>
        <pt x="518" y="649" on="0"/>
        <pt x="466" y="685" on="0"/>
        <pt x="384" y="701" on="0"/>
        <pt x="324" y="701" on="1"/>
        <pt x="270" y="701" on="0"/>
        <pt x="189" y="697" on="0"/>
        <pt x="155" y="692" on="1"/>
        <pt x="155" y="398" on="1"/>
      </contour>
    </TTGlyph>
    <TTGlyph name="B.sc" xMin="95" yMin="-8" xMax="549" yMax="583">
      <contour>
        <pt x="295" y="-8" on="1"/>
        <pt x="250" y="-8" on="0"/>
        <pt x="155" y="-2" on="0"/>
        <pt x="95" y="4" on="1"/>
        <pt x="95" y="573" on="1"/>
        <pt x="158" y="578" on="0"/>
        <pt x="249" y="583" on="0"/>
        <pt x="290" y="583" on="1"/>
        <pt x="418" y="583" on="0"/>
        <pt x="527" y="512" on="0"/>
        <pt x="527" y="430" on="1"/>
        <pt x="527" y="378" on="0"/>
        <pt x="465" y="304" on="0"/>
        <pt x="413" y="295" on="1"/>
        <pt x="413" y="292" on="1"/>
        <pt x="549" y="268" on="0"/>
        <pt x="549" y="150" on="1"/>
        <pt x="549" y="-8" on="0"/>
      </contour>
      <contour>
        <pt x="293" y="35" on="1"/>
        <pt x="397" y="35" on="0"/>
        <pt x="495" y="93" on="0"/>
        <pt x="495" y="154" on="1"/>
        <pt x="495" y="272" on="0"/>
        <pt x="319" y="272" on="1"/>
        <pt x="148" y="272" on="1"/>
        <pt x="148" y="44" on="1"/>
        <pt x="174" y="39" on="0"/>
        <pt x="243" y="35" on="0"/>
      </contour>
      <contour>
        <pt x="315" y="313" on="1"/>
        <pt x="401" y="313" on="0"/>
        <pt x="475" y="366" on="0"/>
        <pt x="475" y="428" on="1"/>
        <pt x="475" y="490" on="0"/>
        <pt x="392" y="541" on="0"/>
        <pt x="291" y="541" on="1"/>
        <pt x="244" y="541" on="0"/>
        <pt x="176" y="538" on="0"/>
        <pt x="148" y="533" on="1"/>
        <pt x="148" y="313" on="1"/>
      </contour>
    </TTGlyph>
    <TTGlyph name="C" xMin="60" yMin="-8" xMax="570" yMax="750">
      <contour>
        <pt x="384" y="-8" on="1"/>
        <pt x="225" y="-8" on="0"/>
        <pt x="60" y="184" on="0"/>
        <pt x="60" y="368" on="1"/>
        <pt x="60" y="556" on="0"/>
        <pt x="228" y="750" on="0"/>
        <pt x="390" y="750" on="1"/>
        <pt x="427" y="750" on="0"/>
        <pt x="527" y="737" on="0"/>
        <pt x="570" y="728" on="1"/>
        <pt x="570" y="677" on="1"/>
        <pt x="518" y="688" on="0"/>
        <pt x="426" y="700" on="0"/>
        <pt x="393" y="700" on="1"/>
        <pt x="257" y="700" on="0"/>
        <pt x="115" y="530" on="0"/>
        <pt x="115" y="369" on="1"/>
        <pt x="115" y="209" on="0"/>
        <pt x="251" y="42" on="0"/>
        <pt x="383" y="42" on="1"/>
        <pt x="401" y="42" on="0"/>
        <pt x="452" y="46" on="0"/>
        <pt x="505" y="53" on="0"/>
        <pt x="553" y="62" on="0"/>
        <pt x="570" y="67" on="1"/>
        <pt x="570" y="18" on="1"/>
        <pt x="552" y="13" on="0"/>
        <pt x="503" y="3" on="0"/>
        <pt x="451" y="-4" on="0"/>
        <pt x="402" y="-8" on="0"/>
      </contour>
    </TTGlyph>
    <TTGlyph name="C.sc" xMin="60" yMin="-7" xMax="504" yMax="585">
      <contour>
        <pt x="341" y="-7" on="1"/>
        <pt x="203" y="-7" on="0"/>
        <pt x="60" y="143" on="0"/>
        <pt x="60" y="287" on="1"/>
        <pt x="60" y="433" on="0"/>
        <pt x="205" y="585" on="0"/>
        <pt x="345" y="585" on="1"/>
        <pt x="378" y="585" on="0"/>
        <pt x="466" y="576" on="0"/>
        <pt x="504" y="568" on="1"/>
        <pt x="504" y="520" on="1"/>
        <pt x="459" y="528" on="0"/>
        <pt x="379" y="538" on="0"/>
        <pt x="349" y="538" on="1"/>
        <pt x="234" y="538" on="0"/>
        <pt x="114" y="410" on="0"/>
        <pt x="114" y="288" on="1"/>
        <pt x="114" y="167" on="0"/>
        <pt x="228" y="41" on="0"/>
        <pt x="341" y="41" on="1"/>
        <pt x="357" y="41" on="0"/>
        <pt x="401" y="44" on="0"/>
        <pt x="447" y="50" on="0"/>
        <pt x="490" y="57" on="0"/>
        <pt x="504" y="60" on="1"/>
        <pt x="504" y="14" on="1"/>
        <pt x="487" y="10" on="0"/>
        <pt x="445" y="2" on="0"/>
        <pt x="400" y="-4" on="0"/>
        <pt x="357" y="-7" on="0"/>
      </contour>
    </TTGlyph>
    <TTGlyph name="Cacute" xMin="60" yMin="-8" xMax="570" yMax="938">
      <contour>
        <pt x="384" y="-8" on="1"/>
        <pt x="225" y="-8" on="0"/>
        <pt x="60" y="184" on="0"/>
        <pt x="60" y="368" on="1"/>
        <pt x="60" y="556" on="0"/>
        <pt x="228" y="750" on="0"/>
        <pt x="390" y="750" on="1"/>
        <pt x="427" y="750" on="0"/>
        <pt x="527" y="737" on="0"/>
        <pt x="570" y="728" on="1"/>
        <pt x="570" y="677" on="1"/>
        <pt x="518" y="688" on="0"/>
        <pt x="426" y="700" on="0"/>
        <pt x="393" y="700" on="1"/>
        <pt x="257" y="700" on="0"/>
        <pt x="115" y="530" on="0"/>
        <pt x="115" y="369" on="1"/>
        <pt x="115" y="209" on="0"/>
        <pt x="251" y="42" on="0"/>
        <pt x="383" y="42" on="1"/>
        <pt x="401" y="42" on="0"/>
        <pt x="452" y="46" on="0"/>
        <pt x="505" y="53" on="0"/>
        <pt x="553" y="62" on="0"/>
        <pt x="570" y="67" on="1"/>
        <pt x="570" y="18" on="1"/>
        <pt x="552" y="13" on="0"/>
        <pt x="503" y="3" on="0"/>
        <pt x="451" y="-4" on="0"/>
        <pt x="402" y="-8" on="0"/>
      </contour>
      <contour>
        <pt x="332" y="811" on="1"/>
        <pt x="410" y="938" on="1"/>
        <pt x="468" y="938" on="1"/>
        <pt x="378" y="804" on="1"/>
      </contour>
    </TTGlyph>
    <TTGlyph name="Cacute.sc" xMin="60" yMin="-7" xMax="504" yMax="736">
      <contour>
        <pt x="341" y="-7" on="1"/>
        <pt x="203" y="-7" on="0"/>
        <pt x="60" y="143" on="0"/>
        <pt x="60" y="287" on="1"/>
        <pt x="60" y="433" on="0"/>
        <pt x="205" y="585" on="0"/>
        <pt x="345" y="585" on="1"/>
        <pt x="377" y="585" on="0"/>
        <pt x="465" y="576" on="0"/>
        <pt x="504" y="568" on="1"/>
        <pt x="504" y="520" on="1"/>
        <pt x="456" y="528" on="0"/>
        <pt x="378" y="538" on="0"/>
        <pt x="349" y="538" on="1"/>
        <pt x="234" y="538" on="0"/>
        <pt x="114" y="410" on="0"/>
        <pt x="114" y="288" on="1"/>
        <pt x="114" y="166" on="0"/>
        <pt x="229" y="41" on="0"/>
        <pt x="341" y="41" on="1"/>
        <pt x="357" y="41" on="0"/>
        <pt x="401" y="44" on="0"/>
        <pt x="447" y="50" on="0"/>
        <pt x="490" y="57" on="0"/>
        <pt x="504" y="60" on="1"/>
        <pt x="504" y="14" on="1"/>
        <pt x="487" y="10" on="0"/>
        <pt x="444" y="2" on="0"/>
        <pt x="399" y="-4" on="0"/>
        <pt x="357" y="-7" on="0"/>
      </contour>
      <contour>
        <pt x="293" y="634" on="1"/>
        <pt x="359" y="736" on="1"/>
        <pt x="416" y="736" on="1"/>
        <pt x="337" y="628" on="1"/>
      </contour>
    </TTGlyph>
    <TTGlyph name="Ccaron" xMin="60" yMin="-8" xMax="570" yMax="942">
      <contour>
        <pt x="384" y="-8" on="1"/>
        <pt x="225" y="-8" on="0"/>
        <pt x="60" y="184" on="0"/>
        <pt x="60" y="368" on="1"/>
        <pt x="60" y="556" on="0"/>
        <pt x="228" y="750" on="0"/>
        <pt x="390" y="750" on="1"/>
        <pt x="427" y="750" on="0"/>
        <pt x="527" y="737" on="0"/>
        <pt x="570" y="728" on="1"/>
        <pt x="570" y="677" on="1"/>
        <pt x="518" y="688" on="0"/>
        <pt x="426" y="700" on="0"/>
        <pt x="393" y="700" on="1"/>
        <pt x="257" y="700" on="0"/>
        <pt x="115" y="530" on="0"/>
        <pt x="115" y="369" on="1"/>
        <pt x="115" y="209" on="0"/>
        <pt x="251" y="42" on="0"/>
        <pt x="383" y="42" on="1"/>
        <pt x="401" y="42" on="0"/>
        <pt x="452" y="46" on="0"/>
        <pt x="505" y="53" on="0"/>
        <pt x="553" y="62" on="0"/>
        <pt x="570" y="67" on="1"/>
        <pt x="570" y="18" on="1"/>
        <pt x="552" y="13" on="0"/>
        <pt x="503" y="3" on="0"/>
        <pt x="451" y="-4" on="0"/>
        <pt x="402" y="-8" on="0"/>
      </contour>
      <contour>
        <pt x="203" y="942" on="1"/>
        <pt x="363" y="869" on="1"/>
        <pt x="522" y="942" on="1"/>
        <pt x="522" y="890" on="1"/>
        <pt x="362" y="817" on="1"/>
        <pt x="203" y="890" on="1"/>
      </contour>
    </TTGlyph>
    <TTGlyph name="Ccaron.sc" xMin="60" yMin="-7" xMax="504" yMax="740">
      <contour>
        <pt x="341" y="-7" on="1"/>
        <pt x="203" y="-7" on="0"/>
        <pt x="60" y="143" on="0"/>
        <pt x="60" y="287" on="1"/>
        <pt x="60" y="433" on="0"/>
        <pt x="205" y="585" on="0"/>
        <pt x="345" y="585" on="1"/>
        <pt x="377" y="585" on="0"/>
        <pt x="465" y="576" on="0"/>
        <pt x="504" y="568" on="1"/>
        <pt x="504" y="520" on="1"/>
        <pt x="456" y="528" on="0"/>
        <pt x="378" y="538" on="0"/>
        <pt x="349" y="538" on="1"/>
        <pt x="234" y="538" on="0"/>
        <pt x="114" y="410" on="0"/>
        <pt x="114" y="288" on="1"/>
        <pt x="114" y="166" on="0"/>
        <pt x="229" y="41" on="0"/>
        <pt x="341" y="41" on="1"/>
        <pt x="357" y="41" on="0"/>
        <pt x="401" y="44" on="0"/>
        <pt x="447" y="50" on="0"/>
        <pt x="490" y="57" on="0"/>
        <pt x="504" y="60" on="1"/>
        <pt x="504" y="14" on="1"/>
        <pt x="487" y="10" on="0"/>
        <pt x="444" y="2" on="0"/>
        <pt x="399" y="-4" on="0"/>
        <pt x="357" y="-7" on="0"/>
      </contour>
      <contour>
        <pt x="181" y="740" on="1"/>
        <pt x="322" y="683" on="1"/>
        <pt x="462" y="740" on="1"/>
        <pt x="462" y="694" on="1"/>
        <pt x="321" y="637" on="1"/>
        <pt x="181" y="694" on="1"/>
      </contour>
    </TTGlyph>
    <TTGlyph name="Ccedilla" xMin="60" yMin="-220" xMax="570" yMax="750">
      <contour>
        <pt x="313" y="-220" on="1"/>
        <pt x="294" y="-220" on="0"/>
        <pt x="249" y="-214" on="0"/>
        <pt x="227" y="-208" on="1"/>
        <pt x="227" y="-164" on="1"/>
        <pt x="249" y="-170" on="0"/>
        <pt x="281" y="-175" on="0"/>
        <pt x="298" y="-175" on="1"/>
        <pt x="346" y="-175" on="0"/>
        <pt x="385" y="-142" on="0"/>
        <pt x="385" y="-103" on="1"/>
        <pt x="385" y="-81" on="0"/>
        <pt x="371" y="-40" on="0"/>
        <pt x="352" y="-7" on="1"/>
        <pt x="208" y="3" on="0"/>
        <pt x="60" y="193" on="0"/>
        <pt x="60" y="368" on="1"/>
        <pt x="60" y="556" on="0"/>
        <pt x="228" y="750" on="0"/>
        <pt x="390" y="750" on="1"/>
        <pt x="427" y="750" on="0"/>
        <pt x="527" y="737" on="0"/>
        <pt x="570" y="728" on="1"/>
        <pt x="570" y="677" on="1"/>
        <pt x="518" y="688" on="0"/>
        <pt x="426" y="700" on="0"/>
        <pt x="393" y="700" on="1"/>
        <pt x="257" y="700" on="0"/>
        <pt x="115" y="530" on="0"/>
        <pt x="115" y="369" on="1"/>
        <pt x="115" y="209" on="0"/>
        <pt x="251" y="42" on="0"/>
        <pt x="383" y="42" on="1"/>
        <pt x="401" y="42" on="0"/>
        <pt x="452" y="46" on="0"/>
        <pt x="505" y="53" on="0"/>
        <pt x="553" y="62" on="0"/>
        <pt x="570" y="67" on="1"/>
        <pt x="570" y="18" on="1"/>
        <pt x="553" y="13" on="0"/>
        <pt x="511" y="5" on="0"/>
        <pt x="465" y="-2" on="0"/>
        <pt x="419" y="-6" on="0"/>
        <pt x="400" y="-7" on="1"/>
        <pt x="410" y="-26" on="0"/>
        <pt x="423" y="-54" on="0"/>
        <pt x="430" y="-76" on="0"/>
        <pt x="433" y="-95" on="0"/>
        <pt x="433" y="-105" on="1"/>
        <pt x="433" y="-161" on="0"/>
        <pt x="371" y="-220" on="0"/>
      </contour>
    </TTGlyph>
    <TTGlyph name="Ccedilla.sc" xMin="60" yMin="-172" xMax="504" yMax="585">
      <contour>
        <pt x="283" y="-172" on="1"/>
        <pt x="268" y="-172" on="0"/>
        <pt x="226" y="-167" on="0"/>
        <pt x="206" y="-162" on="1"/>
        <pt x="206" y="-123" on="1"/>
        <pt x="220" y="-128" on="0"/>
        <pt x="249" y="-131" on="0"/>
        <pt x="267" y="-131" on="1"/>
        <pt x="310" y="-131" on="0"/>
        <pt x="341" y="-104" on="0"/>
        <pt x="341" y="-72" on="1"/>
        <pt x="341" y="-60" on="0"/>
        <pt x="331" y="-34" on="0"/>
        <pt x="315" y="-6" on="1"/>
        <pt x="189" y="-1" on="0"/>
        <pt x="60" y="150" on="0"/>
        <pt x="60" y="287" on="1"/>
        <pt x="60" y="433" on="0"/>
        <pt x="205" y="585" on="0"/>
        <pt x="345" y="585" on="1"/>
        <pt x="377" y="585" on="0"/>
        <pt x="465" y="576" on="0"/>
        <pt x="504" y="568" on="1"/>
        <pt x="504" y="520" on="1"/>
        <pt x="456" y="528" on="0"/>
        <pt x="378" y="538" on="0"/>
        <pt x="349" y="538" on="1"/>
        <pt x="234" y="538" on="0"/>
        <pt x="114" y="410" on="0"/>
        <pt x="114" y="288" on="1"/>
        <pt x="114" y="166" on="0"/>
        <pt x="229" y="41" on="0"/>
        <pt x="341" y="41" on="1"/>
        <pt x="357" y="41" on="0"/>
        <pt x="401" y="44" on="0"/>
        <pt x="447" y="50" on="0"/>
        <pt x="490" y="57" on="0"/>
        <pt x="504" y="60" on="1"/>
        <pt x="504" y="14" on="1"/>
        <pt x="489" y="10" on="0"/>
        <pt x="452" y="4" on="0"/>
        <pt x="413" y="-2" on="0"/>
        <pt x="375" y="-5" on="0"/>
        <pt x="359" y="-6" on="1"/>
        <pt x="375" y="-35" on="0"/>
        <pt x="386" y="-65" on="0"/>
        <pt x="386" y="-80" on="1"/>
        <pt x="386" y="-125" on="0"/>
        <pt x="334" y="-172" on="0"/>
      </contour>
    </TTGlyph>
    <TTGlyph name="Ccircumflex" xMin="60" yMin="-8" xMax="570" yMax="942">
      <contour>
        <pt x="384" y="-8" on="1"/>
        <pt x="225" y="-8" on="0"/>
        <pt x="60" y="184" on="0"/>
        <pt x="60" y="368" on="1"/>
        <pt x="60" y="556" on="0"/>
        <pt x="228" y="750" on="0"/>
        <pt x="390" y="750" on="1"/>
        <pt x="427" y="750" on="0"/>
        <pt x="527" y="737" on="0"/>
        <pt x="570" y="728" on="1"/>
        <pt x="570" y="677" on="1"/>
        <pt x="518" y="688" on="0"/>
        <pt x="426" y="700" on="0"/>
        <pt x="393" y="700" on="1"/>
        <pt x="257" y="700" on="0"/>
        <pt x="115" y="530" on="0"/>
        <pt x="115" y="369" on="1"/>
        <pt x="115" y="209" on="0"/>
        <pt x="251" y="42" on="0"/>
        <pt x="383" y="42" on="1"/>
        <pt x="401" y="42" on="0"/>
        <pt x="452" y="46" on="0"/>
        <pt x="505" y="53" on="0"/>
        <pt x="553" y="62" on="0"/>
        <pt x="570" y="67" on="1"/>
        <pt x="570" y="18" on="1"/>
        <pt x="552" y="13" on="0"/>
        <pt x="503" y="3" on="0"/>
        <pt x="451" y="-4" on="0"/>
        <pt x="402" y="-8" on="0"/>
      </contour>
      <contour>
        <pt x="202" y="869" on="1"/>
        <pt x="362" y="942" on="1"/>
        <pt x="522" y="869" on="1"/>
        <pt x="522" y="817" on="1"/>
        <pt x="362" y="890" on="1"/>
        <pt x="202" y="817" on="1"/>
      </contour>
    </TTGlyph>
    <TTGlyph name="Ccircumflex.sc" xMin="60" yMin="-7" xMax="504" yMax="740">
      <contour>
        <pt x="341" y="-7" on="1"/>
        <pt x="203" y="-7" on="0"/>
        <pt x="60" y="143" on="0"/>
        <pt x="60" y="287" on="1"/>
        <pt x="60" y="433" on="0"/>
        <pt x="205" y="585" on="0"/>
        <pt x="345" y="585" on="1"/>
        <pt x="377" y="585" on="0"/>
        <pt x="465" y="576" on="0"/>
        <pt x="504" y="568" on="1"/>
        <pt x="504" y="520" on="1"/>
        <pt x="456" y="528" on="0"/>
        <pt x="378" y="538" on="0"/>
        <pt x="349" y="538" on="1"/>
        <pt x="234" y="538" on="0"/>
        <pt x="114" y="410" on="0"/>
        <pt x="114" y="288" on="1"/>
        <pt x="114" y="166" on="0"/>
        <pt x="229" y="41" on="0"/>
        <pt x="341" y="41" on="1"/>
        <pt x="357" y="41" on="0"/>
        <pt x="401" y="44" on="0"/>
        <pt x="447" y="50" on="0"/>
        <pt x="490" y="57" on="0"/>
        <pt x="504" y="60" on="1"/>
        <pt x="504" y="14" on="1"/>
        <pt x="487" y="10" on="0"/>
        <pt x="444" y="2" on="0"/>
        <pt x="399" y="-4" on="0"/>
        <pt x="357" y="-7" on="0"/>
      </contour>
      <contour>
        <pt x="181" y="682" on="1"/>
        <pt x="321" y="740" on="1"/>
        <pt x="463" y="682" on="1"/>
        <pt x="463" y="636" on="1"/>
        <pt x="322" y="693" on="1"/>
        <pt x="181" y="636" on="1"/>
      </contour>
    </TTGlyph>
    <TTGlyph name="Cdotaccent" xMin="60" yMin="-8" xMax="570" yMax="908">
      <contour>
        <pt x="365" y="825" on="1"/>
        <pt x="345" y="825" on="0"/>
        <pt x="323" y="844" on="0"/>
        <pt x="323" y="866" on="1"/>
        <pt x="323" y="888" on="0"/>
        <pt x="345" y="908" on="0"/>
        <pt x="365" y="908" on="1"/>
        <pt x="383" y="908" on="0"/>
        <pt x="408" y="889" on="0"/>
        <pt x="408" y="866" on="1"/>
        <pt x="408" y="844" on="0"/>
        <pt x="383" y="825" on="0"/>
      </contour>
      <contour>
        <pt x="384" y="-8" on="1"/>
        <pt x="225" y="-8" on="0"/>
        <pt x="60" y="184" on="0"/>
        <pt x="60" y="368" on="1"/>
        <pt x="60" y="556" on="0"/>
        <pt x="228" y="750" on="0"/>
        <pt x="390" y="750" on="1"/>
        <pt x="427" y="750" on="0"/>
        <pt x="527" y="737" on="0"/>
        <pt x="570" y="728" on="1"/>
        <pt x="570" y="677" on="1"/>
        <pt x="518" y="688" on="0"/>
        <pt x="426" y="700" on="0"/>
        <pt x="393" y="700" on="1"/>
        <pt x="257" y="700" on="0"/>
        <pt x="115" y="530" on="0"/>
        <pt x="115" y="369" on="1"/>
        <pt x="115" y="209" on="0"/>
        <pt x="251" y="42" on="0"/>
        <pt x="383" y="42" on="1"/>
        <pt x="401" y="42" on="0"/>
        <pt x="452" y="46" on="0"/>
        <pt x="505" y="53" on="0"/>
        <pt x="553" y="62" on="0"/>
        <pt x="570" y="67" on="1"/>
        <pt x="570" y="18" on="1"/>
        <pt x="552" y="13" on="0"/>
        <pt x="503" y="3" on="0"/>
        <pt x="451" y="-4" on="0"/>
        <pt x="402" y="-8" on="0"/>
      </contour>
    </TTGlyph>
    <TTGlyph name="Cdotaccent.sc" xMin="60" yMin="-7" xMax="504" yMax="717">
      <contour>
        <pt x="341" y="-7" on="1"/>
        <pt x="203" y="-7" on="0"/>
        <pt x="60" y="143" on="0"/>
        <pt x="60" y="287" on="1"/>
        <pt x="60" y="433" on="0"/>
        <pt x="205" y="585" on="0"/>
        <pt x="345" y="585" on="1"/>
        <pt x="377" y="585" on="0"/>
        <pt x="465" y="576" on="0"/>
        <pt x="504" y="568" on="1"/>
        <pt x="504" y="520" on="1"/>
        <pt x="456" y="528" on="0"/>
        <pt x="378" y="538" on="0"/>
        <pt x="349" y="538" on="1"/>
        <pt x="234" y="538" on="0"/>
        <pt x="114" y="410" on="0"/>
        <pt x="114" y="288" on="1"/>
        <pt x="114" y="166" on="0"/>
        <pt x="229" y="41" on="0"/>
        <pt x="341" y="41" on="1"/>
        <pt x="357" y="41" on="0"/>
        <pt x="401" y="44" on="0"/>
        <pt x="447" y="50" on="0"/>
        <pt x="490" y="57" on="0"/>
        <pt x="504" y="60" on="1"/>
        <pt x="504" y="14" on="1"/>
        <pt x="487" y="10" on="0"/>
        <pt x="444" y="2" on="0"/>
        <pt x="399" y="-4" on="0"/>
        <pt x="357" y="-7" on="0"/>
      </contour>
      <contour>
        <pt x="325" y="643" on="1"/>
        <pt x="306" y="643" on="0"/>
        <pt x="286" y="660" on="0"/>
        <pt x="286" y="680" on="1"/>
        <pt x="286" y="717" on="0"/>
        <pt x="325" y="717" on="1"/>
        <pt x="343" y="717" on="0"/>
        <pt x="365" y="700" on="0"/>
        <pt x="365" y="680" on="1"/>
        <pt x="365" y="660" on="0"/>
        <pt x="343" y="643" on="0"/>
      </contour>
    </TTGlyph>
    <TTGlyph name="D" xMin="102" yMin="-9" xMax="696" yMax="748">
      <contour>
        <pt x="299" y="-9" on="1"/>
        <pt x="231" y="-9" on="0"/>
        <pt x="123" y="0" on="0"/>
        <pt x="102" y="8" on="1"/>
        <pt x="102" y="739" on="1"/>
        <pt x="121" y="740" on="0"/>
        <pt x="176" y="744" on="0"/>
        <pt x="233" y="746" on="0"/>
        <pt x="286" y="748" on="0"/>
        <pt x="304" y="748" on="1"/>
        <pt x="506" y="748" on="0"/>
        <pt x="696" y="565" on="0"/>
        <pt x="696" y="371" on="1"/>
        <pt x="696" y="175" on="0"/>
        <pt x="504" y="-9" on="0"/>
      </contour>
      <contour>
        <pt x="309" y="40" on="1"/>
        <pt x="480" y="40" on="0"/>
        <pt x="641" y="200" on="0"/>
        <pt x="641" y="371" on="1"/>
        <pt x="641" y="540" on="0"/>
        <pt x="480" y="698" on="0"/>
        <pt x="308" y="698" on="1"/>
        <pt x="293" y="698" on="0"/>
        <pt x="254" y="697" on="0"/>
        <pt x="213" y="694" on="0"/>
        <pt x="172" y="691" on="0"/>
        <pt x="156" y="690" on="1"/>
        <pt x="156" y="51" on="1"/>
        <pt x="179" y="48" on="0"/>
        <pt x="217" y="43" on="0"/>
        <pt x="252" y="41" on="0"/>
        <pt x="288" y="40" on="0"/>
      </contour>
    </TTGlyph>
    <TTGlyph name="D.sc" xMin="95" yMin="-7" xMax="615" yMax="583">
      <contour>
        <pt x="275" y="-7" on="1"/>
        <pt x="214" y="-7" on="0"/>
        <pt x="115" y="1" on="0"/>
        <pt x="95" y="7" on="1"/>
        <pt x="95" y="577" on="1"/>
        <pt x="112" y="578" on="0"/>
        <pt x="160" y="580" on="0"/>
        <pt x="211" y="582" on="0"/>
        <pt x="258" y="583" on="0"/>
        <pt x="275" y="583" on="1"/>
        <pt x="450" y="583" on="0"/>
        <pt x="615" y="441" on="0"/>
        <pt x="615" y="289" on="1"/>
        <pt x="615" y="137" on="0"/>
        <pt x="450" y="-7" on="0"/>
      </contour>
      <contour>
        <pt x="281" y="39" on="1"/>
        <pt x="426" y="39" on="0"/>
        <pt x="562" y="160" on="0"/>
        <pt x="562" y="289" on="1"/>
        <pt x="562" y="418" on="0"/>
        <pt x="426" y="536" on="0"/>
        <pt x="279" y="536" on="1"/>
        <pt x="267" y="536" on="0"/>
        <pt x="233" y="535" on="0"/>
        <pt x="198" y="533" on="0"/>
        <pt x="163" y="531" on="0"/>
        <pt x="149" y="530" on="1"/>
        <pt x="149" y="48" on="1"/>
        <pt x="168" y="45" on="0"/>
        <pt x="201" y="42" on="0"/>
        <pt x="231" y="40" on="0"/>
        <pt x="263" y="39" on="0"/>
      </contour>
    </TTGlyph>
    <TTGlyph name="Dcaron" xMin="102" yMin="-9" xMax="696" yMax="942">
      <contour>
        <pt x="185" y="942" on="1"/>
        <pt x="345" y="869" on="1"/>
        <pt x="504" y="942" on="1"/>
        <pt x="504" y="890" on="1"/>
        <pt x="344" y="817" on="1"/>
        <pt x="185" y="890" on="1"/>
      </contour>
      <contour>
        <pt x="299" y="-9" on="1"/>
        <pt x="231" y="-9" on="0"/>
        <pt x="123" y="0" on="0"/>
        <pt x="102" y="8" on="1"/>
        <pt x="102" y="739" on="1"/>
        <pt x="121" y="740" on="0"/>
        <pt x="176" y="744" on="0"/>
        <pt x="233" y="746" on="0"/>
        <pt x="286" y="748" on="0"/>
        <pt x="304" y="748" on="1"/>
        <pt x="506" y="748" on="0"/>
        <pt x="696" y="565" on="0"/>
        <pt x="696" y="371" on="1"/>
        <pt x="696" y="175" on="0"/>
        <pt x="504" y="-9" on="0"/>
      </contour>
      <contour>
        <pt x="309" y="40" on="1"/>
        <pt x="480" y="40" on="0"/>
        <pt x="641" y="200" on="0"/>
        <pt x="641" y="371" on="1"/>
        <pt x="641" y="540" on="0"/>
        <pt x="480" y="698" on="0"/>
        <pt x="308" y="698" on="1"/>
        <pt x="293" y="698" on="0"/>
        <pt x="254" y="697" on="0"/>
        <pt x="213" y="694" on="0"/>
        <pt x="172" y="691" on="0"/>
        <pt x="156" y="690" on="1"/>
        <pt x="156" y="51" on="1"/>
        <pt x="179" y="48" on="0"/>
        <pt x="217" y="43" on="0"/>
        <pt x="252" y="41" on="0"/>
        <pt x="288" y="40" on="0"/>
      </contour>
    </TTGlyph>
    <TTGlyph name="Dcaron.sc" xMin="95" yMin="-7" xMax="615" yMax="740">
      <contour>
        <pt x="275" y="-7" on="1"/>
        <pt x="214" y="-7" on="0"/>
        <pt x="115" y="1" on="0"/>
        <pt x="95" y="7" on="1"/>
        <pt x="95" y="577" on="1"/>
        <pt x="112" y="578" on="0"/>
        <pt x="160" y="580" on="0"/>
        <pt x="211" y="582" on="0"/>
        <pt x="258" y="583" on="0"/>
        <pt x="275" y="583" on="1"/>
        <pt x="450" y="583" on="0"/>
        <pt x="615" y="441" on="0"/>
        <pt x="615" y="289" on="1"/>
        <pt x="615" y="137" on="0"/>
        <pt x="450" y="-7" on="0"/>
      </contour>
      <contour>
        <pt x="281" y="39" on="1"/>
        <pt x="426" y="39" on="0"/>
        <pt x="562" y="160" on="0"/>
        <pt x="562" y="289" on="1"/>
        <pt x="562" y="418" on="0"/>
        <pt x="426" y="536" on="0"/>
        <pt x="279" y="536" on="1"/>
        <pt x="267" y="536" on="0"/>
        <pt x="233" y="535" on="0"/>
        <pt x="198" y="533" on="0"/>
        <pt x="163" y="531" on="0"/>
        <pt x="149" y="530" on="1"/>
        <pt x="149" y="48" on="1"/>
        <pt x="168" y="45" on="0"/>
        <pt x="201" y="42" on="0"/>
        <pt x="231" y="40" on="0"/>
        <pt x="263" y="39" on="0"/>
      </contour>
      <contour>
        <pt x="169" y="694" on="1"/>
        <pt x="169" y="740" on="1"/>
        <pt x="310" y="683" on="1"/>
        <pt x="451" y="740" on="1"/>
        <pt x="451" y="694" on="1"/>
        <pt x="310" y="637" on="1"/>
      </contour>
    </TTGlyph>
    <TTGlyph name="Dcroat" xMin="7" yMin="-9" xMax="702" yMax="748">
      <contour>
        <pt x="7" y="393" on="1"/>
        <pt x="108" y="393" on="1"/>
        <pt x="108" y="739" on="1"/>
        <pt x="127" y="740" on="0"/>
        <pt x="182" y="744" on="0"/>
        <pt x="239" y="746" on="0"/>
        <pt x="292" y="748" on="0"/>
        <pt x="310" y="748" on="1"/>
        <pt x="512" y="748" on="0"/>
        <pt x="702" y="565" on="0"/>
        <pt x="702" y="371" on="1"/>
        <pt x="702" y="175" on="0"/>
        <pt x="510" y="-9" on="0"/>
        <pt x="305" y="-9" on="1"/>
        <pt x="237" y="-9" on="0"/>
        <pt x="129" y="0" on="0"/>
        <pt x="108" y="8" on="1"/>
        <pt x="108" y="345" on="1"/>
        <pt x="7" y="345" on="1"/>
      </contour>
      <contour>
        <pt x="315" y="40" on="1"/>
        <pt x="486" y="40" on="0"/>
        <pt x="647" y="200" on="0"/>
        <pt x="647" y="371" on="1"/>
        <pt x="647" y="540" on="0"/>
        <pt x="486" y="698" on="0"/>
        <pt x="314" y="698" on="1"/>
        <pt x="299" y="698" on="0"/>
        <pt x="260" y="697" on="0"/>
        <pt x="219" y="694" on="0"/>
        <pt x="178" y="691" on="0"/>
        <pt x="162" y="690" on="1"/>
        <pt x="162" y="393" on="1"/>
        <pt x="384" y="393" on="1"/>
        <pt x="384" y="345" on="1"/>
        <pt x="162" y="345" on="1"/>
        <pt x="162" y="51" on="1"/>
        <pt x="185" y="48" on="0"/>
        <pt x="223" y="43" on="0"/>
        <pt x="258" y="41" on="0"/>
        <pt x="294" y="40" on="0"/>
      </contour>
    </TTGlyph>
    <TTGlyph name="Dcroat.sc" xMin="16" yMin="-7" xMax="623" yMax="583">
      <contour>
        <pt x="16" y="310" on="1"/>
        <pt x="103" y="310" on="1"/>
        <pt x="103" y="577" on="1"/>
        <pt x="120" y="578" on="0"/>
        <pt x="169" y="580" on="0"/>
        <pt x="219" y="582" on="0"/>
        <pt x="266" y="583" on="0"/>
        <pt x="282" y="583" on="1"/>
        <pt x="459" y="583" on="0"/>
        <pt x="623" y="442" on="0"/>
        <pt x="623" y="289" on="1"/>
        <pt x="623" y="136" on="0"/>
        <pt x="456" y="-7" on="0"/>
        <pt x="276" y="-7" on="1"/>
        <pt x="216" y="-7" on="0"/>
        <pt x="121" y="1" on="0"/>
        <pt x="103" y="7" on="1"/>
        <pt x="103" y="265" on="1"/>
        <pt x="16" y="265" on="1"/>
      </contour>
      <contour>
        <pt x="289" y="39" on="1"/>
        <pt x="434" y="39" on="0"/>
        <pt x="568" y="160" on="0"/>
        <pt x="568" y="289" on="1"/>
        <pt x="568" y="417" on="0"/>
        <pt x="433" y="536" on="0"/>
        <pt x="286" y="536" on="1"/>
        <pt x="261" y="536" on="0"/>
        <pt x="185" y="532" on="0"/>
        <pt x="156" y="530" on="1"/>
        <pt x="156" y="310" on="1"/>
        <pt x="343" y="310" on="1"/>
        <pt x="343" y="265" on="1"/>
        <pt x="156" y="265" on="1"/>
        <pt x="156" y="48" on="1"/>
        <pt x="176" y="45" on="0"/>
        <pt x="208" y="42" on="0"/>
        <pt x="239" y="40" on="0"/>
        <pt x="270" y="39" on="0"/>
      </contour>
    </TTGlyph>
    <TTGlyph name="Ddotbelow" xMin="102" yMin="-175" xMax="696" yMax="748">
      <contour>
        <pt x="358" y="-175" on="1"/>
        <pt x="338" y="-175" on="0"/>
        <pt x="316" y="-156" on="0"/>
        <pt x="316" y="-133" on="1"/>
        <pt x="316" y="-110" on="0"/>
        <pt x="338" y="-90" on="0"/>
        <pt x="358" y="-90" on="1"/>
        <pt x="378" y="-90" on="0"/>
        <pt x="402" y="-110" on="0"/>
        <pt x="402" y="-133" on="1"/>
        <pt x="402" y="-156" on="0"/>
        <pt x="378" y="-175" on="0"/>
      </contour>
      <contour>
        <pt x="299" y="-9" on="1"/>
        <pt x="231" y="-9" on="0"/>
        <pt x="123" y="0" on="0"/>
        <pt x="102" y="8" on="1"/>
        <pt x="102" y="739" on="1"/>
        <pt x="121" y="740" on="0"/>
        <pt x="176" y="744" on="0"/>
        <pt x="233" y="746" on="0"/>
        <pt x="286" y="748" on="0"/>
        <pt x="304" y="748" on="1"/>
        <pt x="506" y="748" on="0"/>
        <pt x="696" y="565" on="0"/>
        <pt x="696" y="371" on="1"/>
        <pt x="696" y="175" on="0"/>
        <pt x="504" y="-9" on="0"/>
      </contour>
      <contour>
        <pt x="309" y="40" on="1"/>
        <pt x="480" y="40" on="0"/>
        <pt x="641" y="200" on="0"/>
        <pt x="641" y="371" on="1"/>
        <pt x="641" y="540" on="0"/>
        <pt x="480" y="698" on="0"/>
        <pt x="308" y="698" on="1"/>
        <pt x="293" y="698" on="0"/>
        <pt x="254" y="697" on="0"/>
        <pt x="213" y="694" on="0"/>
        <pt x="172" y="691" on="0"/>
        <pt x="156" y="690" on="1"/>
        <pt x="156" y="51" on="1"/>
        <pt x="179" y="48" on="0"/>
        <pt x="217" y="43" on="0"/>
        <pt x="252" y="41" on="0"/>
        <pt x="288" y="40" on="0"/>
      </contour>
    </TTGlyph>
    <TTGlyph name="Ddotbelow.sc" xMin="95" yMin="-140" xMax="615" yMax="583">
      <contour>
        <pt x="275" y="-7" on="1"/>
        <pt x="214" y="-7" on="0"/>
        <pt x="115" y="1" on="0"/>
        <pt x="95" y="7" on="1"/>
        <pt x="95" y="577" on="1"/>
        <pt x="112" y="578" on="0"/>
        <pt x="160" y="580" on="0"/>
        <pt x="211" y="582" on="0"/>
        <pt x="258" y="583" on="0"/>
        <pt x="275" y="583" on="1"/>
        <pt x="450" y="583" on="0"/>
        <pt x="615" y="441" on="0"/>
        <pt x="615" y="289" on="1"/>
        <pt x="615" y="137" on="0"/>
        <pt x="450" y="-7" on="0"/>
      </contour>
      <contour>
        <pt x="281" y="39" on="1"/>
        <pt x="426" y="39" on="0"/>
        <pt x="562" y="160" on="0"/>
        <pt x="562" y="289" on="1"/>
        <pt x="562" y="418" on="0"/>
        <pt x="426" y="536" on="0"/>
        <pt x="279" y="536" on="1"/>
        <pt x="267" y="536" on="0"/>
        <pt x="233" y="535" on="0"/>
        <pt x="198" y="533" on="0"/>
        <pt x="163" y="531" on="0"/>
        <pt x="149" y="530" on="1"/>
        <pt x="149" y="48" on="1"/>
        <pt x="168" y="45" on="0"/>
        <pt x="201" y="42" on="0"/>
        <pt x="231" y="40" on="0"/>
        <pt x="263" y="39" on="0"/>
      </contour>
      <contour>
        <pt x="322" y="-140" on="1"/>
        <pt x="283" y="-140" on="0"/>
        <pt x="283" y="-104" on="1"/>
        <pt x="283" y="-67" on="0"/>
        <pt x="322" y="-67" on="1"/>
        <pt x="339" y="-67" on="0"/>
        <pt x="361" y="-84" on="0"/>
        <pt x="361" y="-104" on="1"/>
        <pt x="361" y="-124" on="0"/>
        <pt x="339" y="-140" on="0"/>
      </contour>
    </TTGlyph>
    <TTGlyph name="Delta" xMin="27" yMin="0" xMax="731" yMax="740">
      <contour>
        <pt x="345" y="740" on="1"/>
        <pt x="413" y="740" on="1"/>
        <pt x="731" y="0" on="1"/>
        <pt x="27" y="0" on="1"/>
      </contour>
      <contour>
        <pt x="656" y="48" on="1"/>
        <pt x="379" y="692" on="1"/>
        <pt x="101" y="48" on="1"/>
      </contour>
    </TTGlyph>
    <TTGlyph name="E" xMin="102" yMin="0" xMax="575" yMax="740">
      <contour>
        <pt x="102" y="740" on="1"/>
        <pt x="567" y="740" on="1"/>
        <pt x="567" y="691" on="1"/>
        <pt x="156" y="691" on="1"/>
        <pt x="156" y="401" on="1"/>
        <pt x="548" y="401" on="1"/>
        <pt x="548" y="353" on="1"/>
        <pt x="156" y="353" on="1"/>
        <pt x="156" y="49" on="1"/>
        <pt x="575" y="49" on="1"/>
        <pt x="575" y="0" on="1"/>
        <pt x="102" y="0" on="1"/>
      </contour>
    </TTGlyph>
    <TTGlyph name="E.sc" xMin="96" yMin="0" xMax="511" yMax="577">
      <contour>
        <pt x="96" y="577" on="1"/>
        <pt x="504" y="577" on="1"/>
        <pt x="504" y="532" on="1"/>
        <pt x="150" y="532" on="1"/>
        <pt x="150" y="316" on="1"/>
        <pt x="487" y="316" on="1"/>
        <pt x="487" y="273" on="1"/>
        <pt x="150" y="273" on="1"/>
        <pt x="150" y="45" on="1"/>
        <pt x="511" y="45" on="1"/>
        <pt x="511" y="0" on="1"/>
        <pt x="96" y="0" on="1"/>
      </contour>
    </TTGlyph>
    <TTGlyph name="Eacute" xMin="102" yMin="0" xMax="575" yMax="938">
      <contour>
        <pt x="307" y="811" on="1"/>
        <pt x="385" y="938" on="1"/>
        <pt x="443" y="938" on="1"/>
        <pt x="353" y="804" on="1"/>
      </contour>
      <contour>
        <pt x="102" y="740" on="1"/>
        <pt x="567" y="740" on="1"/>
        <pt x="567" y="691" on="1"/>
        <pt x="156" y="691" on="1"/>
        <pt x="156" y="401" on="1"/>
        <pt x="548" y="401" on="1"/>
        <pt x="548" y="353" on="1"/>
        <pt x="156" y="353" on="1"/>
        <pt x="156" y="49" on="1"/>
        <pt x="575" y="49" on="1"/>
        <pt x="575" y="0" on="1"/>
        <pt x="102" y="0" on="1"/>
      </contour>
    </TTGlyph>
    <TTGlyph name="Eacute.sc" xMin="96" yMin="0" xMax="511" yMax="736">
      <contour>
        <pt x="96" y="577" on="1"/>
        <pt x="504" y="577" on="1"/>
        <pt x="504" y="532" on="1"/>
        <pt x="150" y="532" on="1"/>
        <pt x="150" y="316" on="1"/>
        <pt x="487" y="316" on="1"/>
        <pt x="487" y="273" on="1"/>
        <pt x="150" y="273" on="1"/>
        <pt x="150" y="45" on="1"/>
        <pt x="511" y="45" on="1"/>
        <pt x="511" y="0" on="1"/>
        <pt x="96" y="0" on="1"/>
      </contour>
      <contour>
        <pt x="274" y="634" on="1"/>
        <pt x="340" y="736" on="1"/>
        <pt x="396" y="736" on="1"/>
        <pt x="318" y="628" on="1"/>
      </contour>
    </TTGlyph>
    <TTGlyph name="Ebreve" xMin="102" yMin="0" xMax="575" yMax="954">
      <contour>
        <pt x="336" y="816" on="1"/>
        <pt x="251" y="816" on="0"/>
        <pt x="162" y="890" on="0"/>
        <pt x="162" y="954" on="1"/>
        <pt x="208" y="954" on="1"/>
        <pt x="208" y="908" on="0"/>
        <pt x="274" y="857" on="0"/>
        <pt x="336" y="857" on="1"/>
        <pt x="397" y="857" on="0"/>
        <pt x="464" y="908" on="0"/>
        <pt x="464" y="954" on="1"/>
        <pt x="510" y="954" on="1"/>
        <pt x="510" y="890" on="0"/>
        <pt x="421" y="816" on="0"/>
      </contour>
      <contour>
        <pt x="102" y="740" on="1"/>
        <pt x="567" y="740" on="1"/>
        <pt x="567" y="691" on="1"/>
        <pt x="156" y="691" on="1"/>
        <pt x="156" y="401" on="1"/>
        <pt x="548" y="401" on="1"/>
        <pt x="548" y="353" on="1"/>
        <pt x="156" y="353" on="1"/>
        <pt x="156" y="49" on="1"/>
        <pt x="575" y="49" on="1"/>
        <pt x="575" y="0" on="1"/>
        <pt x="102" y="0" on="1"/>
      </contour>
    </TTGlyph>
    <TTGlyph name="Ebreve.sc" xMin="96" yMin="0" xMax="511" yMax="748">
      <contour>
        <pt x="301" y="636" on="1"/>
        <pt x="226" y="636" on="0"/>
        <pt x="148" y="697" on="0"/>
        <pt x="148" y="748" on="1"/>
        <pt x="190" y="748" on="1"/>
        <pt x="190" y="712" on="0"/>
        <pt x="247" y="672" on="0"/>
        <pt x="301" y="672" on="1"/>
        <pt x="354" y="672" on="0"/>
        <pt x="412" y="712" on="0"/>
        <pt x="412" y="748" on="1"/>
        <pt x="455" y="748" on="1"/>
        <pt x="455" y="697" on="0"/>
        <pt x="376" y="636" on="0"/>
      </contour>
      <contour>
        <pt x="96" y="577" on="1"/>
        <pt x="504" y="577" on="1"/>
        <pt x="504" y="532" on="1"/>
        <pt x="150" y="532" on="1"/>
        <pt x="150" y="316" on="1"/>
        <pt x="487" y="316" on="1"/>
        <pt x="487" y="273" on="1"/>
        <pt x="150" y="273" on="1"/>
        <pt x="150" y="45" on="1"/>
        <pt x="511" y="45" on="1"/>
        <pt x="511" y="0" on="1"/>
        <pt x="96" y="0" on="1"/>
      </contour>
    </TTGlyph>
    <TTGlyph name="Ecaron" xMin="102" yMin="0" xMax="575" yMax="942">
      <contour>
        <pt x="178" y="942" on="1"/>
        <pt x="338" y="869" on="1"/>
        <pt x="497" y="942" on="1"/>
        <pt x="497" y="890" on="1"/>
        <pt x="337" y="817" on="1"/>
        <pt x="178" y="890" on="1"/>
      </contour>
      <contour>
        <pt x="102" y="740" on="1"/>
        <pt x="567" y="740" on="1"/>
        <pt x="567" y="691" on="1"/>
        <pt x="156" y="691" on="1"/>
        <pt x="156" y="401" on="1"/>
        <pt x="548" y="401" on="1"/>
        <pt x="548" y="353" on="1"/>
        <pt x="156" y="353" on="1"/>
        <pt x="156" y="49" on="1"/>
        <pt x="575" y="49" on="1"/>
        <pt x="575" y="0" on="1"/>
        <pt x="102" y="0" on="1"/>
      </contour>
    </TTGlyph>
    <TTGlyph name="Ecaron.sc" xMin="96" yMin="0" xMax="511" yMax="740">
      <contour>
        <pt x="96" y="577" on="1"/>
        <pt x="504" y="577" on="1"/>
        <pt x="504" y="532" on="1"/>
        <pt x="150" y="532" on="1"/>
        <pt x="150" y="316" on="1"/>
        <pt x="487" y="316" on="1"/>
        <pt x="487" y="273" on="1"/>
        <pt x="150" y="273" on="1"/>
        <pt x="150" y="45" on="1"/>
        <pt x="511" y="45" on="1"/>
        <pt x="511" y="0" on="1"/>
        <pt x="96" y="0" on="1"/>
      </contour>
      <contour>
        <pt x="162" y="694" on="1"/>
        <pt x="162" y="740" on="1"/>
        <pt x="303" y="683" on="1"/>
        <pt x="443" y="740" on="1"/>
        <pt x="443" y="694" on="1"/>
        <pt x="302" y="637" on="1"/>
      </contour>
    </TTGlyph>
    <TTGlyph name="Ecircumflex" xMin="102" yMin="0" xMax="575" yMax="942">
      <contour>
        <pt x="102" y="740" on="1"/>
        <pt x="567" y="740" on="1"/>
        <pt x="567" y="691" on="1"/>
        <pt x="156" y="691" on="1"/>
        <pt x="156" y="401" on="1"/>
        <pt x="548" y="401" on="1"/>
        <pt x="548" y="353" on="1"/>
        <pt x="156" y="353" on="1"/>
        <pt x="156" y="49" on="1"/>
        <pt x="575" y="49" on="1"/>
        <pt x="575" y="0" on="1"/>
        <pt x="102" y="0" on="1"/>
      </contour>
      <contour>
        <pt x="180" y="869" on="1"/>
        <pt x="340" y="942" on="1"/>
        <pt x="500" y="869" on="1"/>
        <pt x="500" y="817" on="1"/>
        <pt x="340" y="890" on="1"/>
        <pt x="180" y="817" on="1"/>
      </contour>
    </TTGlyph>
    <TTGlyph name="Ecircumflex.sc" xMin="96" yMin="0" xMax="511" yMax="740">
      <contour>
        <pt x="96" y="577" on="1"/>
        <pt x="504" y="577" on="1"/>
        <pt x="504" y="532" on="1"/>
        <pt x="150" y="532" on="1"/>
        <pt x="150" y="316" on="1"/>
        <pt x="487" y="316" on="1"/>
        <pt x="487" y="273" on="1"/>
        <pt x="150" y="273" on="1"/>
        <pt x="150" y="45" on="1"/>
        <pt x="511" y="45" on="1"/>
        <pt x="511" y="0" on="1"/>
        <pt x="96" y="0" on="1"/>
      </contour>
      <contour>
        <pt x="165" y="682" on="1"/>
        <pt x="305" y="740" on="1"/>
        <pt x="446" y="682" on="1"/>
        <pt x="446" y="636" on="1"/>
        <pt x="305" y="693" on="1"/>
        <pt x="165" y="636" on="1"/>
      </contour>
    </TTGlyph>
    <TTGlyph name="Edblgrave" xMin="102" yMin="0" xMax="575" yMax="929">
      <contour>
        <pt x="102" y="740" on="1"/>
        <pt x="567" y="740" on="1"/>
        <pt x="567" y="691" on="1"/>
        <pt x="156" y="691" on="1"/>
        <pt x="156" y="401" on="1"/>
        <pt x="548" y="401" on="1"/>
        <pt x="548" y="353" on="1"/>
        <pt x="156" y="353" on="1"/>
        <pt x="156" y="49" on="1"/>
        <pt x="575" y="49" on="1"/>
        <pt x="575" y="0" on="1"/>
        <pt x="102" y="0" on="1"/>
      </contour>
      <contour>
        <pt x="246" y="795" on="1"/>
        <pt x="156" y="929" on="1"/>
        <pt x="214" y="929" on="1"/>
        <pt x="291" y="809" on="1"/>
      </contour>
      <contour>
        <pt x="386" y="795" on="1"/>
        <pt x="296" y="929" on="1"/>
        <pt x="354" y="929" on="1"/>
        <pt x="431" y="809" on="1"/>
      </contour>
    </TTGlyph>
    <TTGlyph name="Edblgrave.sc" xMin="96" yMin="0" xMax="511" yMax="730">
      <contour>
        <pt x="96" y="577" on="1"/>
        <pt x="504" y="577" on="1"/>
        <pt x="504" y="532" on="1"/>
        <pt x="150" y="532" on="1"/>
        <pt x="150" y="316" on="1"/>
        <pt x="487" y="316" on="1"/>
        <pt x="487" y="273" on="1"/>
        <pt x="150" y="273" on="1"/>
        <pt x="150" y="45" on="1"/>
        <pt x="511" y="45" on="1"/>
        <pt x="511" y="0" on="1"/>
        <pt x="96" y="0" on="1"/>
      </contour>
      <contour>
        <pt x="141" y="730" on="1"/>
        <pt x="197" y="730" on="1"/>
        <pt x="263" y="632" on="1"/>
        <pt x="219" y="621" on="1"/>
      </contour>
      <contour>
        <pt x="265" y="730" on="1"/>
        <pt x="321" y="730" on="1"/>
        <pt x="387" y="632" on="1"/>
        <pt x="343" y="621" on="1"/>
      </contour>
    </TTGlyph>
    <TTGlyph name="Edieresis" xMin="102" yMin="0" xMax="575" yMax="913">
      <contour>
        <pt x="203" y="830" on="1"/>
        <pt x="183" y="830" on="0"/>
        <pt x="161" y="850" on="0"/>
        <pt x="161" y="872" on="1"/>
        <pt x="161" y="894" on="0"/>
        <pt x="183" y="913" on="0"/>
        <pt x="203" y="913" on="1"/>
        <pt x="221" y="913" on="0"/>
        <pt x="245" y="894" on="0"/>
        <pt x="245" y="872" on="1"/>
        <pt x="245" y="849" on="0"/>
        <pt x="221" y="830" on="0"/>
      </contour>
      <contour>
        <pt x="474" y="830" on="1"/>
        <pt x="454" y="830" on="0"/>
        <pt x="432" y="850" on="0"/>
        <pt x="432" y="872" on="1"/>
        <pt x="432" y="894" on="0"/>
        <pt x="454" y="913" on="0"/>
        <pt x="474" y="913" on="1"/>
        <pt x="493" y="913" on="0"/>
        <pt x="517" y="894" on="0"/>
        <pt x="517" y="872" on="1"/>
        <pt x="517" y="849" on="0"/>
        <pt x="493" y="830" on="0"/>
      </contour>
      <contour>
        <pt x="102" y="740" on="1"/>
        <pt x="567" y="740" on="1"/>
        <pt x="567" y="691" on="1"/>
        <pt x="156" y="691" on="1"/>
        <pt x="156" y="401" on="1"/>
        <pt x="548" y="401" on="1"/>
        <pt x="548" y="353" on="1"/>
        <pt x="156" y="353" on="1"/>
        <pt x="156" y="49" on="1"/>
        <pt x="575" y="49" on="1"/>
        <pt x="575" y="0" on="1"/>
        <pt x="102" y="0" on="1"/>
      </contour>
    </TTGlyph>
    <TTGlyph name="Edieresis.sc" xMin="96" yMin="0" xMax="511" yMax="721">
      <contour>
        <pt x="185" y="646" on="1"/>
        <pt x="167" y="646" on="0"/>
        <pt x="146" y="664" on="0"/>
        <pt x="146" y="683" on="1"/>
        <pt x="146" y="703" on="0"/>
        <pt x="167" y="721" on="0"/>
        <pt x="185" y="721" on="1"/>
        <pt x="202" y="721" on="0"/>
        <pt x="225" y="703" on="0"/>
        <pt x="225" y="683" on="1"/>
        <pt x="225" y="663" on="0"/>
        <pt x="202" y="646" on="0"/>
      </contour>
      <contour>
        <pt x="423" y="646" on="1"/>
        <pt x="384" y="646" on="0"/>
        <pt x="384" y="683" on="1"/>
        <pt x="384" y="721" on="0"/>
        <pt x="423" y="721" on="1"/>
        <pt x="441" y="721" on="0"/>
        <pt x="462" y="703" on="0"/>
        <pt x="462" y="683" on="1"/>
        <pt x="462" y="663" on="0"/>
        <pt x="441" y="646" on="0"/>
      </contour>
      <contour>
        <pt x="96" y="577" on="1"/>
        <pt x="504" y="577" on="1"/>
        <pt x="504" y="532" on="1"/>
        <pt x="150" y="532" on="1"/>
        <pt x="150" y="316" on="1"/>
        <pt x="487" y="316" on="1"/>
        <pt x="487" y="273" on="1"/>
        <pt x="150" y="273" on="1"/>
        <pt x="150" y="45" on="1"/>
        <pt x="511" y="45" on="1"/>
        <pt x="511" y="0" on="1"/>
        <pt x="96" y="0" on="1"/>
      </contour>
    </TTGlyph>
    <TTGlyph name="Edotaccent" xMin="102" yMin="0" xMax="575" yMax="908">
      <contour>
        <pt x="337" y="825" on="1"/>
        <pt x="317" y="825" on="0"/>
        <pt x="295" y="844" on="0"/>
        <pt x="295" y="866" on="1"/>
        <pt x="295" y="888" on="0"/>
        <pt x="317" y="908" on="0"/>
        <pt x="337" y="908" on="1"/>
        <pt x="355" y="908" on="0"/>
        <pt x="380" y="889" on="0"/>
        <pt x="380" y="866" on="1"/>
        <pt x="380" y="844" on="0"/>
        <pt x="355" y="825" on="0"/>
      </contour>
      <contour>
        <pt x="102" y="740" on="1"/>
        <pt x="567" y="740" on="1"/>
        <pt x="567" y="691" on="1"/>
        <pt x="156" y="691" on="1"/>
        <pt x="156" y="401" on="1"/>
        <pt x="548" y="401" on="1"/>
        <pt x="548" y="353" on="1"/>
        <pt x="156" y="353" on="1"/>
        <pt x="156" y="49" on="1"/>
        <pt x="575" y="49" on="1"/>
        <pt x="575" y="0" on="1"/>
        <pt x="102" y="0" on="1"/>
      </contour>
    </TTGlyph>
    <TTGlyph name="Edotaccent.sc" xMin="96" yMin="0" xMax="511" yMax="717">
      <contour>
        <pt x="302" y="643" on="1"/>
        <pt x="283" y="643" on="0"/>
        <pt x="263" y="660" on="0"/>
        <pt x="263" y="680" on="1"/>
        <pt x="263" y="717" on="0"/>
        <pt x="302" y="717" on="1"/>
        <pt x="319" y="717" on="0"/>
        <pt x="342" y="700" on="0"/>
        <pt x="342" y="680" on="1"/>
        <pt x="342" y="660" on="0"/>
        <pt x="319" y="643" on="0"/>
      </contour>
      <contour>
        <pt x="96" y="577" on="1"/>
        <pt x="504" y="577" on="1"/>
        <pt x="504" y="532" on="1"/>
        <pt x="150" y="532" on="1"/>
        <pt x="150" y="316" on="1"/>
        <pt x="487" y="316" on="1"/>
        <pt x="487" y="273" on="1"/>
        <pt x="150" y="273" on="1"/>
        <pt x="150" y="45" on="1"/>
        <pt x="511" y="45" on="1"/>
        <pt x="511" y="0" on="1"/>
        <pt x="96" y="0" on="1"/>
      </contour>
    </TTGlyph>
    <TTGlyph name="Edotbelow" xMin="102" yMin="-175" xMax="575" yMax="740">
      <contour>
        <pt x="102" y="740" on="1"/>
        <pt x="567" y="740" on="1"/>
        <pt x="567" y="691" on="1"/>
        <pt x="156" y="691" on="1"/>
        <pt x="156" y="401" on="1"/>
        <pt x="548" y="401" on="1"/>
        <pt x="548" y="353" on="1"/>
        <pt x="156" y="353" on="1"/>
        <pt x="156" y="49" on="1"/>
        <pt x="575" y="49" on="1"/>
        <pt x="575" y="0" on="1"/>
        <pt x="102" y="0" on="1"/>
      </contour>
      <contour>
        <pt x="356" y="-175" on="1"/>
        <pt x="336" y="-175" on="0"/>
        <pt x="314" y="-156" on="0"/>
        <pt x="314" y="-133" on="1"/>
        <pt x="314" y="-110" on="0"/>
        <pt x="336" y="-90" on="0"/>
        <pt x="356" y="-90" on="1"/>
        <pt x="376" y="-90" on="0"/>
        <pt x="400" y="-110" on="0"/>
        <pt x="400" y="-133" on="1"/>
        <pt x="400" y="-156" on="0"/>
        <pt x="376" y="-175" on="0"/>
      </contour>
    </TTGlyph>
    <TTGlyph name="Edotbelow.sc" xMin="96" yMin="-140" xMax="511" yMax="577">
      <contour>
        <pt x="318" y="-140" on="1"/>
        <pt x="280" y="-140" on="0"/>
        <pt x="280" y="-104" on="1"/>
        <pt x="280" y="-67" on="0"/>
        <pt x="318" y="-67" on="1"/>
        <pt x="336" y="-67" on="0"/>
        <pt x="358" y="-84" on="0"/>
        <pt x="358" y="-104" on="1"/>
        <pt x="358" y="-124" on="0"/>
        <pt x="336" y="-140" on="0"/>
      </contour>
      <contour>
        <pt x="96" y="577" on="1"/>
        <pt x="504" y="577" on="1"/>
        <pt x="504" y="532" on="1"/>
        <pt x="150" y="532" on="1"/>
        <pt x="150" y="316" on="1"/>
        <pt x="487" y="316" on="1"/>
        <pt x="487" y="273" on="1"/>
        <pt x="150" y="273" on="1"/>
        <pt x="150" y="45" on="1"/>
        <pt x="511" y="45" on="1"/>
        <pt x="511" y="0" on="1"/>
        <pt x="96" y="0" on="1"/>
      </contour>
    </TTGlyph>
    <TTGlyph name="Egrave" xMin="102" yMin="0" xMax="575" yMax="938">
      <contour>
        <pt x="322" y="804" on="1"/>
        <pt x="232" y="938" on="1"/>
        <pt x="290" y="938" on="1"/>
        <pt x="367" y="818" on="1"/>
      </contour>
      <contour>
        <pt x="102" y="740" on="1"/>
        <pt x="567" y="740" on="1"/>
        <pt x="567" y="691" on="1"/>
        <pt x="156" y="691" on="1"/>
        <pt x="156" y="401" on="1"/>
        <pt x="548" y="401" on="1"/>
        <pt x="548" y="353" on="1"/>
        <pt x="156" y="353" on="1"/>
        <pt x="156" y="49" on="1"/>
        <pt x="575" y="49" on="1"/>
        <pt x="575" y="0" on="1"/>
        <pt x="102" y="0" on="1"/>
      </contour>
    </TTGlyph>
    <TTGlyph name="Egrave.sc" xMin="96" yMin="0" xMax="511" yMax="736">
      <contour>
        <pt x="96" y="577" on="1"/>
        <pt x="504" y="577" on="1"/>
        <pt x="504" y="532" on="1"/>
        <pt x="150" y="532" on="1"/>
        <pt x="150" y="316" on="1"/>
        <pt x="487" y="316" on="1"/>
        <pt x="487" y="273" on="1"/>
        <pt x="150" y="273" on="1"/>
        <pt x="150" y="45" on="1"/>
        <pt x="511" y="45" on="1"/>
        <pt x="511" y="0" on="1"/>
        <pt x="96" y="0" on="1"/>
      </contour>
      <contour>
        <pt x="210" y="736" on="1"/>
        <pt x="266" y="736" on="1"/>
        <pt x="332" y="639" on="1"/>
        <pt x="288" y="628" on="1"/>
      </contour>
    </TTGlyph>
    <TTGlyph name="Einvertedbreve" xMin="102" yMin="0" xMax="575" yMax="955">
      <contour>
        <pt x="102" y="740" on="1"/>
        <pt x="567" y="740" on="1"/>
        <pt x="567" y="691" on="1"/>
        <pt x="156" y="691" on="1"/>
        <pt x="156" y="401" on="1"/>
        <pt x="548" y="401" on="1"/>
        <pt x="548" y="353" on="1"/>
        <pt x="156" y="353" on="1"/>
        <pt x="156" y="49" on="1"/>
        <pt x="575" y="49" on="1"/>
        <pt x="575" y="0" on="1"/>
        <pt x="102" y="0" on="1"/>
      </contour>
      <contour>
        <pt x="466" y="817" on="1"/>
        <pt x="466" y="862" on="0"/>
        <pt x="399" y="914" on="0"/>
        <pt x="337" y="914" on="1"/>
        <pt x="276" y="914" on="0"/>
        <pt x="209" y="862" on="0"/>
        <pt x="209" y="817" on="1"/>
        <pt x="163" y="817" on="1"/>
        <pt x="163" y="880" on="0"/>
        <pt x="253" y="955" on="0"/>
        <pt x="337" y="955" on="1"/>
        <pt x="422" y="955" on="0"/>
        <pt x="512" y="880" on="0"/>
        <pt x="512" y="817" on="1"/>
      </contour>
    </TTGlyph>
    <TTGlyph name="Einvertedbreve.sc" xMin="96" yMin="0" xMax="511" yMax="749">
      <contour>
        <pt x="149" y="637" on="1"/>
        <pt x="149" y="688" on="0"/>
        <pt x="227" y="749" on="0"/>
        <pt x="302" y="749" on="1"/>
        <pt x="377" y="749" on="0"/>
        <pt x="456" y="688" on="0"/>
        <pt x="456" y="637" on="1"/>
        <pt x="413" y="637" on="1"/>
        <pt x="413" y="672" on="0"/>
        <pt x="356" y="712" on="0"/>
        <pt x="302" y="712" on="1"/>
        <pt x="248" y="712" on="0"/>
        <pt x="192" y="672" on="0"/>
        <pt x="192" y="637" on="1"/>
      </contour>
      <contour>
        <pt x="96" y="577" on="1"/>
        <pt x="504" y="577" on="1"/>
        <pt x="504" y="532" on="1"/>
        <pt x="150" y="532" on="1"/>
        <pt x="150" y="316" on="1"/>
        <pt x="487" y="316" on="1"/>
        <pt x="487" y="273" on="1"/>
        <pt x="150" y="273" on="1"/>
        <pt x="150" y="45" on="1"/>
        <pt x="511" y="45" on="1"/>
        <pt x="511" y="0" on="1"/>
        <pt x="96" y="0" on="1"/>
      </contour>
    </TTGlyph>
    <TTGlyph name="Emacron" xMin="102" yMin="0" xMax="575" yMax="888">
      <contour>
        <pt x="181" y="888" on="1"/>
        <pt x="496" y="888" on="1"/>
        <pt x="496" y="842" on="1"/>
        <pt x="181" y="842" on="1"/>
      </contour>
      <contour>
        <pt x="102" y="740" on="1"/>
        <pt x="567" y="740" on="1"/>
        <pt x="567" y="691" on="1"/>
        <pt x="156" y="691" on="1"/>
        <pt x="156" y="401" on="1"/>
        <pt x="548" y="401" on="1"/>
        <pt x="548" y="353" on="1"/>
        <pt x="156" y="353" on="1"/>
        <pt x="156" y="49" on="1"/>
        <pt x="575" y="49" on="1"/>
        <pt x="575" y="0" on="1"/>
        <pt x="102" y="0" on="1"/>
      </contour>
    </TTGlyph>
    <TTGlyph name="Emacron.sc" xMin="96" yMin="0" xMax="511" yMax="699">
      <contour>
        <pt x="96" y="577" on="1"/>
        <pt x="504" y="577" on="1"/>
        <pt x="504" y="532" on="1"/>
        <pt x="150" y="532" on="1"/>
        <pt x="150" y="316" on="1"/>
        <pt x="487" y="316" on="1"/>
        <pt x="487" y="273" on="1"/>
        <pt x="150" y="273" on="1"/>
        <pt x="150" y="45" on="1"/>
        <pt x="511" y="45" on="1"/>
        <pt x="511" y="0" on="1"/>
        <pt x="96" y="0" on="1"/>
      </contour>
      <contour>
        <pt x="165" y="699" on="1"/>
        <pt x="443" y="699" on="1"/>
        <pt x="443" y="657" on="1"/>
        <pt x="165" y="657" on="1"/>
      </contour>
    </TTGlyph>
    <TTGlyph name="Eng" xMin="102" yMin="-186" xMax="705" yMax="740">
      <contour>
        <pt x="575" y="-174" on="1"/>
        <pt x="587" y="-152" on="0"/>
        <pt x="610" y="-101" on="0"/>
        <pt x="628" y="-50" on="0"/>
        <pt x="641" y="-2" on="0"/>
        <pt x="643" y="17" on="1"/>
        <pt x="218" y="571" on="1"/>
        <pt x="159" y="654" on="1"/>
        <pt x="154" y="654" on="1"/>
        <pt x="154" y="0" on="1"/>
        <pt x="102" y="0" on="1"/>
        <pt x="102" y="740" on="1"/>
        <pt x="150" y="740" on="1"/>
        <pt x="583" y="175" on="1"/>
        <pt x="648" y="84" on="1"/>
        <pt x="653" y="84" on="1"/>
        <pt x="653" y="740" on="1"/>
        <pt x="705" y="740" on="1"/>
        <pt x="705" y="79" on="1"/>
        <pt x="705" y="49" on="0"/>
        <pt x="692" y="-22" on="0"/>
        <pt x="668" y="-94" on="0"/>
        <pt x="636" y="-160" on="0"/>
        <pt x="617" y="-186" on="1"/>
      </contour>
    </TTGlyph>
    <TTGlyph name="Eng.sc" xMin="96" yMin="-148" xMax="619" yMax="577">
      <contour>
        <pt x="504" y="-136" on="1"/>
        <pt x="514" y="-118" on="0"/>
        <pt x="534" y="-78" on="0"/>
        <pt x="549" y="-38" on="0"/>
        <pt x="560" y="-1" on="0"/>
        <pt x="562" y="13" on="1"/>
        <pt x="203" y="431" on="1"/>
        <pt x="151" y="498" on="1"/>
        <pt x="146" y="498" on="1"/>
        <pt x="146" y="0" on="1"/>
        <pt x="96" y="0" on="1"/>
        <pt x="96" y="577" on="1"/>
        <pt x="142" y="577" on="1"/>
        <pt x="508" y="150" on="1"/>
        <pt x="564" y="78" on="1"/>
        <pt x="569" y="78" on="1"/>
        <pt x="569" y="577" on="1"/>
        <pt x="619" y="577" on="1"/>
        <pt x="619" y="66" on="1"/>
        <pt x="619" y="41" on="0"/>
        <pt x="608" y="-16" on="0"/>
        <pt x="587" y="-73" on="0"/>
        <pt x="559" y="-126" on="0"/>
        <pt x="543" y="-148" on="1"/>
      </contour>
    </TTGlyph>
    <TTGlyph name="Eogonek" xMin="102" yMin="-220" xMax="575" yMax="740">
      <contour>
        <pt x="102" y="740" on="1"/>
        <pt x="567" y="740" on="1"/>
        <pt x="567" y="691" on="1"/>
        <pt x="156" y="691" on="1"/>
        <pt x="156" y="401" on="1"/>
        <pt x="548" y="401" on="1"/>
        <pt x="548" y="353" on="1"/>
        <pt x="156" y="353" on="1"/>
        <pt x="156" y="49" on="1"/>
        <pt x="575" y="49" on="1"/>
        <pt x="575" y="-22" on="1"/>
        <pt x="509" y="-54" on="0"/>
        <pt x="452" y="-110" on="0"/>
        <pt x="452" y="-142" on="1"/>
        <pt x="452" y="-182" on="0"/>
        <pt x="505" y="-182" on="1"/>
        <pt x="535" y="-182" on="0"/>
        <pt x="574" y="-171" on="1"/>
        <pt x="574" y="-208" on="1"/>
        <pt x="559" y="-213" on="0"/>
        <pt x="519" y="-220" on="0"/>
        <pt x="499" y="-220" on="1"/>
        <pt x="451" y="-220" on="0"/>
        <pt x="408" y="-183" on="0"/>
        <pt x="408" y="-144" on="1"/>
        <pt x="408" y="-124" on="0"/>
        <pt x="420" y="-89" on="0"/>
        <pt x="448" y="-56" on="0"/>
        <pt x="495" y="-21" on="0"/>
        <pt x="530" y="0" on="1"/>
        <pt x="102" y="0" on="1"/>
      </contour>
    </TTGlyph>
    <TTGlyph name="Eogonek.sc" xMin="96" yMin="-172" xMax="511" yMax="577">
      <contour>
        <pt x="443" y="-172" on="1"/>
        <pt x="400" y="-172" on="0"/>
        <pt x="362" y="-143" on="0"/>
        <pt x="362" y="-111" on="1"/>
        <pt x="362" y="-96" on="0"/>
        <pt x="371" y="-70" on="0"/>
        <pt x="394" y="-45" on="0"/>
        <pt x="434" y="-17" on="0"/>
        <pt x="464" y="0" on="1"/>
        <pt x="96" y="0" on="1"/>
        <pt x="96" y="577" on="1"/>
        <pt x="504" y="577" on="1"/>
        <pt x="504" y="532" on="1"/>
        <pt x="150" y="532" on="1"/>
        <pt x="150" y="316" on="1"/>
        <pt x="487" y="316" on="1"/>
        <pt x="487" y="273" on="1"/>
        <pt x="150" y="273" on="1"/>
        <pt x="150" y="45" on="1"/>
        <pt x="511" y="45" on="1"/>
        <pt x="511" y="-16" on="1"/>
        <pt x="459" y="-38" on="0"/>
        <pt x="404" y="-79" on="0"/>
        <pt x="404" y="-107" on="1"/>
        <pt x="404" y="-125" on="0"/>
        <pt x="428" y="-137" on="0"/>
        <pt x="448" y="-137" on="1"/>
        <pt x="462" y="-137" on="0"/>
        <pt x="495" y="-133" on="0"/>
        <pt x="509" y="-129" on="1"/>
        <pt x="509" y="-162" on="1"/>
        <pt x="481" y="-172" on="0"/>
      </contour>
    </TTGlyph>
    <TTGlyph name="Eth" xMin="7" yMin="-9" xMax="702" yMax="748">
      <contour>
        <pt x="7" y="393" on="1"/>
        <pt x="108" y="393" on="1"/>
        <pt x="108" y="739" on="1"/>
        <pt x="127" y="740" on="0"/>
        <pt x="182" y="744" on="0"/>
        <pt x="239" y="746" on="0"/>
        <pt x="292" y="748" on="0"/>
        <pt x="310" y="748" on="1"/>
        <pt x="512" y="748" on="0"/>
        <pt x="702" y="565" on="0"/>
        <pt x="702" y="371" on="1"/>
        <pt x="702" y="175" on="0"/>
        <pt x="510" y="-9" on="0"/>
        <pt x="305" y="-9" on="1"/>
        <pt x="237" y="-9" on="0"/>
        <pt x="129" y="0" on="0"/>
        <pt x="108" y="8" on="1"/>
        <pt x="108" y="345" on="1"/>
        <pt x="7" y="345" on="1"/>
      </contour>
      <contour>
        <pt x="315" y="40" on="1"/>
        <pt x="486" y="40" on="0"/>
        <pt x="647" y="200" on="0"/>
        <pt x="647" y="371" on="1"/>
        <pt x="647" y="540" on="0"/>
        <pt x="486" y="698" on="0"/>
        <pt x="314" y="698" on="1"/>
        <pt x="299" y="698" on="0"/>
        <pt x="260" y="697" on="0"/>
        <pt x="219" y="694" on="0"/>
        <pt x="178" y="691" on="0"/>
        <pt x="162" y="690" on="1"/>
        <pt x="162" y="393" on="1"/>
        <pt x="384" y="393" on="1"/>
        <pt x="384" y="345" on="1"/>
        <pt x="162" y="345" on="1"/>
        <pt x="162" y="51" on="1"/>
        <pt x="185" y="48" on="0"/>
        <pt x="223" y="43" on="0"/>
        <pt x="258" y="41" on="0"/>
        <pt x="294" y="40" on="0"/>
      </contour>
    </TTGlyph>
    <TTGlyph name="Eth.sc" xMin="16" yMin="-7" xMax="623" yMax="583">
      <contour>
        <pt x="16" y="309" on="1"/>
        <pt x="103" y="309" on="1"/>
        <pt x="103" y="577" on="1"/>
        <pt x="120" y="578" on="0"/>
        <pt x="168" y="580" on="0"/>
        <pt x="219" y="582" on="0"/>
        <pt x="266" y="583" on="0"/>
        <pt x="282" y="583" on="1"/>
        <pt x="457" y="583" on="0"/>
        <pt x="623" y="441" on="0"/>
        <pt x="623" y="289" on="1"/>
        <pt x="623" y="136" on="0"/>
        <pt x="456" y="-7" on="0"/>
        <pt x="276" y="-7" on="1"/>
        <pt x="217" y="-7" on="0"/>
        <pt x="120" y="1" on="0"/>
        <pt x="103" y="7" on="1"/>
        <pt x="103" y="266" on="1"/>
        <pt x="16" y="266" on="1"/>
      </contour>
      <contour>
        <pt x="288" y="39" on="1"/>
        <pt x="433" y="39" on="0"/>
        <pt x="568" y="160" on="0"/>
        <pt x="568" y="289" on="1"/>
        <pt x="568" y="417" on="0"/>
        <pt x="433" y="536" on="0"/>
        <pt x="286" y="536" on="1"/>
        <pt x="273" y="536" on="0"/>
        <pt x="240" y="535" on="0"/>
        <pt x="204" y="533" on="0"/>
        <pt x="170" y="531" on="0"/>
        <pt x="156" y="530" on="1"/>
        <pt x="156" y="309" on="1"/>
        <pt x="343" y="309" on="1"/>
        <pt x="343" y="266" on="1"/>
        <pt x="156" y="266" on="1"/>
        <pt x="156" y="48" on="1"/>
        <pt x="176" y="45" on="0"/>
        <pt x="208" y="42" on="0"/>
        <pt x="239" y="40" on="0"/>
        <pt x="270" y="39" on="0"/>
      </contour>
    </TTGlyph>
    <TTGlyph name="Etilde" xMin="102" yMin="0" xMax="575" yMax="924">
      <contour>
        <pt x="145" y="867" on="1"/>
        <pt x="202" y="924" on="0"/>
        <pt x="266" y="924" on="1"/>
        <pt x="290" y="924" on="0"/>
        <pt x="332" y="911" on="0"/>
        <pt x="372" y="895" on="0"/>
        <pt x="411" y="882" on="0"/>
        <pt x="434" y="882" on="1"/>
        <pt x="485" y="882" on="0"/>
        <pt x="532" y="920" on="1"/>
        <pt x="556" y="894" on="1"/>
        <pt x="529" y="867" on="0"/>
        <pt x="462" y="837" on="0"/>
        <pt x="427" y="837" on="1"/>
        <pt x="406" y="837" on="0"/>
        <pt x="364" y="850" on="0"/>
        <pt x="323" y="866" on="0"/>
        <pt x="283" y="879" on="0"/>
        <pt x="263" y="879" on="1"/>
        <pt x="239" y="879" on="0"/>
        <pt x="193" y="862" on="0"/>
        <pt x="169" y="842" on="1"/>
      </contour>
      <contour>
        <pt x="102" y="740" on="1"/>
        <pt x="567" y="740" on="1"/>
        <pt x="567" y="691" on="1"/>
        <pt x="156" y="691" on="1"/>
        <pt x="156" y="401" on="1"/>
        <pt x="548" y="401" on="1"/>
        <pt x="548" y="353" on="1"/>
        <pt x="156" y="353" on="1"/>
        <pt x="156" y="49" on="1"/>
        <pt x="575" y="49" on="1"/>
        <pt x="575" y="0" on="1"/>
        <pt x="102" y="0" on="1"/>
      </contour>
    </TTGlyph>
    <TTGlyph name="Etilde.sc" xMin="96" yMin="0" xMax="511" yMax="727">
      <contour>
        <pt x="134" y="677" on="1"/>
        <pt x="159" y="703" on="0"/>
        <pt x="213" y="727" on="0"/>
        <pt x="240" y="727" on="1"/>
        <pt x="261" y="727" on="0"/>
        <pt x="298" y="717" on="0"/>
        <pt x="333" y="704" on="0"/>
        <pt x="368" y="694" on="0"/>
        <pt x="388" y="694" on="1"/>
        <pt x="431" y="694" on="0"/>
        <pt x="474" y="723" on="1"/>
        <pt x="494" y="703" on="1"/>
        <pt x="470" y="679" on="0"/>
        <pt x="411" y="653" on="0"/>
        <pt x="380" y="653" on="1"/>
        <pt x="362" y="653" on="0"/>
        <pt x="325" y="663" on="0"/>
        <pt x="289" y="675" on="0"/>
        <pt x="253" y="685" on="0"/>
        <pt x="235" y="685" on="1"/>
        <pt x="215" y="685" on="0"/>
        <pt x="174" y="672" on="0"/>
        <pt x="154" y="656" on="1"/>
      </contour>
      <contour>
        <pt x="96" y="577" on="1"/>
        <pt x="504" y="577" on="1"/>
        <pt x="504" y="532" on="1"/>
        <pt x="150" y="532" on="1"/>
        <pt x="150" y="316" on="1"/>
        <pt x="487" y="316" on="1"/>
        <pt x="487" y="273" on="1"/>
        <pt x="150" y="273" on="1"/>
        <pt x="150" y="45" on="1"/>
        <pt x="511" y="45" on="1"/>
        <pt x="511" y="0" on="1"/>
        <pt x="96" y="0" on="1"/>
      </contour>
    </TTGlyph>
    <TTGlyph name="Euro" xMin="50" yMin="-10" xMax="596" yMax="749">
      <contour>
        <pt x="50" y="475" on="1"/>
        <pt x="147" y="475" on="1"/>
        <pt x="157" y="548" on="0"/>
        <pt x="210" y="652" on="0"/>
        <pt x="298" y="718" on="0"/>
        <pt x="426" y="749" on="0"/>
        <pt x="511" y="749" on="1"/>
        <pt x="540" y="749" on="0"/>
        <pt x="577" y="747" on="0"/>
        <pt x="596" y="745" on="1"/>
        <pt x="572" y="696" on="1"/>
        <pt x="564" y="697" on="0"/>
        <pt x="538" y="699" on="0"/>
        <pt x="521" y="699" on="1"/>
        <pt x="445" y="699" on="0"/>
        <pt x="333" y="675" on="0"/>
        <pt x="256" y="621" on="0"/>
        <pt x="211" y="536" on="0"/>
        <pt x="202" y="475" on="1"/>
        <pt x="504" y="475" on="1"/>
        <pt x="488" y="433" on="1"/>
        <pt x="197" y="433" on="1"/>
        <pt x="195" y="418" on="0"/>
        <pt x="195" y="387" on="0"/>
        <pt x="195" y="370" on="1"/>
        <pt x="195" y="353" on="0"/>
        <pt x="196" y="322" on="0"/>
        <pt x="197" y="307" on="1"/>
        <pt x="463" y="307" on="1"/>
        <pt x="447" y="265" on="1"/>
        <pt x="202" y="265" on="1"/>
        <pt x="212" y="206" on="0"/>
        <pt x="258" y="121" on="0"/>
        <pt x="334" y="66" on="0"/>
        <pt x="443" y="40" on="0"/>
        <pt x="516" y="40" on="1"/>
        <pt x="526" y="40" on="0"/>
        <pt x="558" y="42" on="0"/>
        <pt x="578" y="44" on="1"/>
        <pt x="578" y="-7" on="1"/>
        <pt x="567" y="-9" on="0"/>
        <pt x="538" y="-10" on="0"/>
        <pt x="515" y="-10" on="1"/>
        <pt x="346" y="-8" on="0"/>
        <pt x="169" y="123" on="0"/>
        <pt x="148" y="265" on="1"/>
        <pt x="50" y="265" on="1"/>
        <pt x="50" y="307" on="1"/>
        <pt x="143" y="307" on="1"/>
        <pt x="142" y="322" on="0"/>
        <pt x="141" y="353" on="0"/>
        <pt x="141" y="370" on="1"/>
        <pt x="141" y="387" on="0"/>
        <pt x="142" y="418" on="0"/>
        <pt x="143" y="433" on="1"/>
        <pt x="50" y="433" on="1"/>
      </contour>
    </TTGlyph>
    <TTGlyph name="Euro.tab" xMin="18" yMin="-10" xMax="540" yMax="749">
      <contour>
        <pt x="18" y="475" on="1"/>
        <pt x="110" y="475" on="1"/>
        <pt x="119" y="548" on="0"/>
        <pt x="169" y="652" on="0"/>
        <pt x="255" y="718" on="0"/>
        <pt x="377" y="749" on="0"/>
        <pt x="458" y="749" on="1"/>
        <pt x="486" y="749" on="0"/>
        <pt x="522" y="747" on="0"/>
        <pt x="540" y="745" on="1"/>
        <pt x="517" y="696" on="1"/>
        <pt x="509" y="697" on="0"/>
        <pt x="484" y="699" on="0"/>
        <pt x="467" y="699" on="1"/>
        <pt x="396" y="699" on="0"/>
        <pt x="291" y="674" on="0"/>
        <pt x="217" y="620" on="0"/>
        <pt x="174" y="535" on="0"/>
        <pt x="165" y="475" on="1"/>
        <pt x="452" y="475" on="1"/>
        <pt x="437" y="433" on="1"/>
        <pt x="160" y="433" on="1"/>
        <pt x="159" y="419" on="0"/>
        <pt x="158" y="387" on="0"/>
        <pt x="158" y="370" on="1"/>
        <pt x="158" y="335" on="0"/>
        <pt x="161" y="307" on="1"/>
        <pt x="413" y="307" on="1"/>
        <pt x="398" y="265" on="1"/>
        <pt x="166" y="265" on="1"/>
        <pt x="185" y="148" on="0"/>
        <pt x="327" y="40" on="0"/>
        <pt x="463" y="40" on="1"/>
        <pt x="473" y="40" on="0"/>
        <pt x="504" y="42" on="0"/>
        <pt x="523" y="44" on="1"/>
        <pt x="523" y="-7" on="1"/>
        <pt x="512" y="-9" on="0"/>
        <pt x="484" y="-10" on="0"/>
        <pt x="461" y="-10" on="1"/>
        <pt x="380" y="-9" on="0"/>
        <pt x="258" y="24" on="0"/>
        <pt x="173" y="91" on="0"/>
        <pt x="121" y="194" on="0"/>
        <pt x="111" y="265" on="1"/>
        <pt x="18" y="265" on="1"/>
        <pt x="18" y="307" on="1"/>
        <pt x="106" y="307" on="1"/>
        <pt x="105" y="321" on="0"/>
        <pt x="104" y="353" on="0"/>
        <pt x="104" y="370" on="1"/>
        <pt x="104" y="386" on="0"/>
        <pt x="104" y="419" on="0"/>
        <pt x="106" y="433" on="1"/>
        <pt x="18" y="433" on="1"/>
      </contour>
    </TTGlyph>
    <TTGlyph name="F" xMin="102" yMin="0" xMax="567" yMax="740">
      <contour>
        <pt x="102" y="740" on="1"/>
        <pt x="567" y="740" on="1"/>
        <pt x="567" y="691" on="1"/>
        <pt x="156" y="691" on="1"/>
        <pt x="156" y="398" on="1"/>
        <pt x="530" y="398" on="1"/>
        <pt x="530" y="350" on="1"/>
        <pt x="156" y="350" on="1"/>
        <pt x="156" y="0" on="1"/>
        <pt x="102" y="0" on="1"/>
      </contour>
    </TTGlyph>
    <TTGlyph name="F.sc" xMin="96" yMin="0" xMax="505" yMax="577">
      <contour>
        <pt x="96" y="577" on="1"/>
        <pt x="505" y="577" on="1"/>
        <pt x="505" y="531" on="1"/>
        <pt x="150" y="531" on="1"/>
        <pt x="150" y="311" on="1"/>
        <pt x="471" y="311" on="1"/>
        <pt x="471" y="268" on="1"/>
        <pt x="150" y="268" on="1"/>
        <pt x="150" y="0" on="1"/>
        <pt x="96" y="0" on="1"/>
      </contour>
    </TTGlyph>
    <TTGlyph name="F_B.sc" xMin="96" yMin="-8" xMax="1069" yMax="583">
      <contour>
        <pt x="96" y="577" on="1"/>
        <pt x="505" y="577" on="1"/>
        <pt x="505" y="531" on="1"/>
        <pt x="150" y="531" on="1"/>
        <pt x="150" y="311" on="1"/>
        <pt x="471" y="311" on="1"/>
        <pt x="471" y="268" on="1"/>
        <pt x="150" y="268" on="1"/>
        <pt x="150" y="0" on="1"/>
        <pt x="96" y="0" on="1"/>
      </contour>
      <contour>
        <pt x="815" y="-8" on="1"/>
        <pt x="770" y="-8" on="0"/>
        <pt x="675" y="-2" on="0"/>
        <pt x="615" y="4" on="1"/>
        <pt x="615" y="573" on="1"/>
        <pt x="678" y="578" on="0"/>
        <pt x="769" y="583" on="0"/>
        <pt x="810" y="583" on="1"/>
        <pt x="938" y="583" on="0"/>
        <pt x="1047" y="512" on="0"/>
        <pt x="1047" y="430" on="1"/>
        <pt x="1047" y="378" on="0"/>
        <pt x="985" y="304" on="0"/>
        <pt x="933" y="295" on="1"/>
        <pt x="933" y="292" on="1"/>
        <pt x="1069" y="268" on="0"/>
        <pt x="1069" y="150" on="1"/>
        <pt x="1069" y="-8" on="0"/>
      </contour>
      <contour>
        <pt x="813" y="35" on="1"/>
        <pt x="917" y="35" on="0"/>
        <pt x="1015" y="93" on="0"/>
        <pt x="1015" y="154" on="1"/>
        <pt x="1015" y="272" on="0"/>
        <pt x="839" y="272" on="1"/>
        <pt x="668" y="272" on="1"/>
        <pt x="668" y="44" on="1"/>
        <pt x="694" y="39" on="0"/>
        <pt x="763" y="35" on="0"/>
      </contour>
      <contour>
        <pt x="835" y="313" on="1"/>
        <pt x="921" y="313" on="0"/>
        <pt x="995" y="366" on="0"/>
        <pt x="995" y="428" on="1"/>
        <pt x="995" y="490" on="0"/>
        <pt x="912" y="541" on="0"/>
        <pt x="811" y="541" on="1"/>
        <pt x="764" y="541" on="0"/>
        <pt x="696" y="538" on="0"/>
        <pt x="668" y="533" on="1"/>
        <pt x="668" y="313" on="1"/>
      </contour>
    </TTGlyph>
    <TTGlyph name="F_F.sc" xMin="96" yMin="0" xMax="1024" yMax="577">
      <contour>
        <pt x="96" y="577" on="1"/>
        <pt x="505" y="577" on="1"/>
        <pt x="505" y="531" on="1"/>
        <pt x="150" y="531" on="1"/>
        <pt x="150" y="311" on="1"/>
        <pt x="471" y="311" on="1"/>
        <pt x="471" y="268" on="1"/>
        <pt x="150" y="268" on="1"/>
        <pt x="150" y="0" on="1"/>
        <pt x="96" y="0" on="1"/>
      </contour>
      <contour>
        <pt x="615" y="577" on="1"/>
        <pt x="1024" y="577" on="1"/>
        <pt x="1024" y="531" on="1"/>
        <pt x="669" y="531" on="1"/>
        <pt x="669" y="311" on="1"/>
        <pt x="990" y="311" on="1"/>
        <pt x="990" y="268" on="1"/>
        <pt x="669" y="268" on="1"/>
        <pt x="669" y="0" on="1"/>
        <pt x="615" y="0" on="1"/>
      </contour>
    </TTGlyph>
    <TTGlyph name="F_F_B.sc" xMin="96" yMin="-8" xMax="1588" yMax="583">
      <contour>
        <pt x="96" y="577" on="1"/>
        <pt x="505" y="577" on="1"/>
        <pt x="505" y="531" on="1"/>
        <pt x="150" y="531" on="1"/>
        <pt x="150" y="311" on="1"/>
        <pt x="471" y="311" on="1"/>
        <pt x="471" y="268" on="1"/>
        <pt x="150" y="268" on="1"/>
        <pt x="150" y="0" on="1"/>
        <pt x="96" y="0" on="1"/>
      </contour>
      <contour>
        <pt x="615" y="577" on="1"/>
        <pt x="1024" y="577" on="1"/>
        <pt x="1024" y="531" on="1"/>
        <pt x="669" y="531" on="1"/>
        <pt x="669" y="311" on="1"/>
        <pt x="990" y="311" on="1"/>
        <pt x="990" y="268" on="1"/>
        <pt x="669" y="268" on="1"/>
        <pt x="669" y="0" on="1"/>
        <pt x="615" y="0" on="1"/>
      </contour>
      <contour>
        <pt x="1334" y="-8" on="1"/>
        <pt x="1289" y="-8" on="0"/>
        <pt x="1194" y="-2" on="0"/>
        <pt x="1134" y="4" on="1"/>
        <pt x="1134" y="573" on="1"/>
        <pt x="1197" y="578" on="0"/>
        <pt x="1288" y="583" on="0"/>
        <pt x="1329" y="583" on="1"/>
        <pt x="1457" y="583" on="0"/>
        <pt x="1566" y="512" on="0"/>
        <pt x="1566" y="430" on="1"/>
        <pt x="1566" y="378" on="0"/>
        <pt x="1504" y="304" on="0"/>
        <pt x="1452" y="295" on="1"/>
        <pt x="1452" y="292" on="1"/>
        <pt x="1588" y="268" on="0"/>
        <pt x="1588" y="150" on="1"/>
        <pt x="1588" y="-8" on="0"/>
      </contour>
      <contour>
        <pt x="1332" y="35" on="1"/>
        <pt x="1436" y="35" on="0"/>
        <pt x="1534" y="93" on="0"/>
        <pt x="1534" y="154" on="1"/>
        <pt x="1534" y="272" on="0"/>
        <pt x="1358" y="272" on="1"/>
        <pt x="1187" y="272" on="1"/>
        <pt x="1187" y="44" on="1"/>
        <pt x="1213" y="39" on="0"/>
        <pt x="1282" y="35" on="0"/>
      </contour>
      <contour>
        <pt x="1354" y="313" on="1"/>
        <pt x="1440" y="313" on="0"/>
        <pt x="1514" y="366" on="0"/>
        <pt x="1514" y="428" on="1"/>
        <pt x="1514" y="490" on="0"/>
        <pt x="1431" y="541" on="0"/>
        <pt x="1330" y="541" on="1"/>
        <pt x="1283" y="541" on="0"/>
        <pt x="1215" y="538" on="0"/>
        <pt x="1187" y="533" on="1"/>
        <pt x="1187" y="313" on="1"/>
      </contour>
    </TTGlyph>
    <TTGlyph name="F_F_H.sc" xMin="96" yMin="0" xMax="1649" yMax="577">
      <contour>
        <pt x="96" y="577" on="1"/>
        <pt x="505" y="577" on="1"/>
        <pt x="505" y="531" on="1"/>
        <pt x="150" y="531" on="1"/>
        <pt x="150" y="311" on="1"/>
        <pt x="471" y="311" on="1"/>
        <pt x="471" y="268" on="1"/>
        <pt x="150" y="268" on="1"/>
        <pt x="150" y="0" on="1"/>
        <pt x="96" y="0" on="1"/>
      </contour>
      <contour>
        <pt x="615" y="577" on="1"/>
        <pt x="1024" y="577" on="1"/>
        <pt x="1024" y="531" on="1"/>
        <pt x="669" y="531" on="1"/>
        <pt x="669" y="311" on="1"/>
        <pt x="990" y="311" on="1"/>
        <pt x="990" y="268" on="1"/>
        <pt x="669" y="268" on="1"/>
        <pt x="669" y="0" on="1"/>
        <pt x="615" y="0" on="1"/>
      </contour>
      <contour>
        <pt x="1134" y="577" on="1"/>
        <pt x="1188" y="577" on="1"/>
        <pt x="1188" y="319" on="1"/>
        <pt x="1595" y="319" on="1"/>
        <pt x="1595" y="577" on="1"/>
        <pt x="1649" y="577" on="1"/>
        <pt x="1649" y="0" on="1"/>
        <pt x="1595" y="0" on="1"/>
        <pt x="1595" y="274" on="1"/>
        <pt x="1188" y="274" on="1"/>
        <pt x="1188" y="0" on="1"/>
        <pt x="1134" y="0" on="1"/>
      </contour>
    </TTGlyph>
    <TTGlyph name="F_F_I.sc" xMin="96" yMin="0" xMax="1188" yMax="577">
      <contour>
        <pt x="96" y="577" on="1"/>
        <pt x="505" y="577" on="1"/>
        <pt x="505" y="531" on="1"/>
        <pt x="150" y="531" on="1"/>
        <pt x="150" y="311" on="1"/>
        <pt x="471" y="311" on="1"/>
        <pt x="471" y="268" on="1"/>
        <pt x="150" y="268" on="1"/>
        <pt x="150" y="0" on="1"/>
        <pt x="96" y="0" on="1"/>
      </contour>
      <contour>
        <pt x="615" y="577" on="1"/>
        <pt x="1024" y="577" on="1"/>
        <pt x="1024" y="531" on="1"/>
        <pt x="669" y="531" on="1"/>
        <pt x="669" y="311" on="1"/>
        <pt x="990" y="311" on="1"/>
        <pt x="990" y="268" on="1"/>
        <pt x="669" y="268" on="1"/>
        <pt x="669" y="0" on="1"/>
        <pt x="615" y="0" on="1"/>
      </contour>
      <contour>
        <pt x="1134" y="577" on="1"/>
        <pt x="1188" y="577" on="1"/>
        <pt x="1188" y="0" on="1"/>
        <pt x="1134" y="0" on="1"/>
      </contour>
    </TTGlyph>
    <TTGlyph name="F_F_J.sc" xMin="96" yMin="-144" xMax="1198" yMax="577">
      <contour>
        <pt x="96" y="577" on="1"/>
        <pt x="505" y="577" on="1"/>
        <pt x="505" y="531" on="1"/>
        <pt x="150" y="531" on="1"/>
        <pt x="150" y="311" on="1"/>
        <pt x="471" y="311" on="1"/>
        <pt x="471" y="268" on="1"/>
        <pt x="150" y="268" on="1"/>
        <pt x="150" y="0" on="1"/>
        <pt x="96" y="0" on="1"/>
      </contour>
      <contour>
        <pt x="615" y="577" on="1"/>
        <pt x="1024" y="577" on="1"/>
        <pt x="1024" y="531" on="1"/>
        <pt x="669" y="531" on="1"/>
        <pt x="669" y="311" on="1"/>
        <pt x="990" y="311" on="1"/>
        <pt x="990" y="268" on="1"/>
        <pt x="669" y="268" on="1"/>
        <pt x="669" y="0" on="1"/>
        <pt x="615" y="0" on="1"/>
      </contour>
      <contour>
        <pt x="1077" y="-125" on="1"/>
        <pt x="1096" y="-89" on="0"/>
        <pt x="1122" y="-27" on="0"/>
        <pt x="1137" y="36" on="0"/>
        <pt x="1144" y="103" on="0"/>
        <pt x="1144" y="143" on="1"/>
        <pt x="1144" y="577" on="1"/>
        <pt x="1198" y="577" on="1"/>
        <pt x="1198" y="141" on="1"/>
        <pt x="1198" y="102" on="0"/>
        <pt x="1190" y="37" on="0"/>
        <pt x="1172" y="-28" on="0"/>
        <pt x="1141" y="-99" on="0"/>
        <pt x="1117" y="-144" on="1"/>
      </contour>
    </TTGlyph>
    <TTGlyph name="F_F_K.sc" xMin="96" yMin="0" xMax="1625" yMax="577">
      <contour>
        <pt x="96" y="577" on="1"/>
        <pt x="505" y="577" on="1"/>
        <pt x="505" y="531" on="1"/>
        <pt x="150" y="531" on="1"/>
        <pt x="150" y="311" on="1"/>
        <pt x="471" y="311" on="1"/>
        <pt x="471" y="268" on="1"/>
        <pt x="150" y="268" on="1"/>
        <pt x="150" y="0" on="1"/>
        <pt x="96" y="0" on="1"/>
      </contour>
      <contour>
        <pt x="615" y="577" on="1"/>
        <pt x="1024" y="577" on="1"/>
        <pt x="1024" y="531" on="1"/>
        <pt x="669" y="531" on="1"/>
        <pt x="669" y="311" on="1"/>
        <pt x="990" y="311" on="1"/>
        <pt x="990" y="268" on="1"/>
        <pt x="669" y="268" on="1"/>
        <pt x="669" y="0" on="1"/>
        <pt x="615" y="0" on="1"/>
      </contour>
      <contour>
        <pt x="1134" y="577" on="1"/>
        <pt x="1188" y="577" on="1"/>
        <pt x="1188" y="317" on="1"/>
        <pt x="1341" y="317" on="1"/>
        <pt x="1547" y="577" on="1"/>
        <pt x="1610" y="577" on="1"/>
        <pt x="1405" y="319" on="1"/>
        <pt x="1380" y="300" on="1"/>
        <pt x="1380" y="295" on="1"/>
        <pt x="1407" y="276" on="1"/>
        <pt x="1625" y="0" on="1"/>
        <pt x="1561" y="0" on="1"/>
        <pt x="1347" y="272" on="1"/>
        <pt x="1188" y="272" on="1"/>
        <pt x="1188" y="0" on="1"/>
        <pt x="1134" y="0" on="1"/>
      </contour>
    </TTGlyph>
    <TTGlyph name="F_F_L.sc" xMin="96" yMin="0" xMax="1513" yMax="577">
      <contour>
        <pt x="1134" y="577" on="1"/>
        <pt x="1188" y="577" on="1"/>
        <pt x="1188" y="46" on="1"/>
        <pt x="1513" y="46" on="1"/>
        <pt x="1513" y="0" on="1"/>
        <pt x="1134" y="0" on="1"/>
      </contour>
      <contour>
        <pt x="96" y="577" on="1"/>
        <pt x="505" y="577" on="1"/>
        <pt x="505" y="531" on="1"/>
        <pt x="150" y="531" on="1"/>
        <pt x="150" y="311" on="1"/>
        <pt x="471" y="311" on="1"/>
        <pt x="471" y="268" on="1"/>
        <pt x="150" y="268" on="1"/>
        <pt x="150" y="0" on="1"/>
        <pt x="96" y="0" on="1"/>
      </contour>
      <contour>
        <pt x="615" y="577" on="1"/>
        <pt x="1024" y="577" on="1"/>
        <pt x="1024" y="531" on="1"/>
        <pt x="669" y="531" on="1"/>
        <pt x="669" y="311" on="1"/>
        <pt x="990" y="311" on="1"/>
        <pt x="990" y="268" on="1"/>
        <pt x="669" y="268" on="1"/>
        <pt x="669" y="0" on="1"/>
        <pt x="615" y="0" on="1"/>
      </contour>
    </TTGlyph>
    <TTGlyph name="F_F_T.sc" xMin="96" yMin="0" xMax="1571" yMax="577">
      <contour>
        <pt x="1288" y="531" on="1"/>
        <pt x="1057" y="531" on="1"/>
        <pt x="1057" y="577" on="1"/>
        <pt x="1571" y="577" on="1"/>
        <pt x="1571" y="531" on="1"/>
        <pt x="1341" y="531" on="1"/>
        <pt x="1341" y="0" on="1"/>
        <pt x="1288" y="0" on="1"/>
      </contour>
      <contour>
        <pt x="96" y="577" on="1"/>
        <pt x="505" y="577" on="1"/>
        <pt x="505" y="531" on="1"/>
        <pt x="150" y="531" on="1"/>
        <pt x="150" y="311" on="1"/>
        <pt x="471" y="311" on="1"/>
        <pt x="471" y="268" on="1"/>
        <pt x="150" y="268" on="1"/>
        <pt x="150" y="0" on="1"/>
        <pt x="96" y="0" on="1"/>
      </contour>
      <contour>
        <pt x="615" y="577" on="1"/>
        <pt x="1024" y="577" on="1"/>
        <pt x="1024" y="531" on="1"/>
        <pt x="669" y="531" on="1"/>
        <pt x="669" y="311" on="1"/>
        <pt x="990" y="311" on="1"/>
        <pt x="990" y="268" on="1"/>
        <pt x="669" y="268" on="1"/>
        <pt x="669" y="0" on="1"/>
        <pt x="615" y="0" on="1"/>
      </contour>
    </TTGlyph>
    <TTGlyph name="F_H.sc" xMin="96" yMin="0" xMax="1130" yMax="577">
      <contour>
        <pt x="96" y="577" on="1"/>
        <pt x="505" y="577" on="1"/>
        <pt x="505" y="531" on="1"/>
        <pt x="150" y="531" on="1"/>
        <pt x="150" y="311" on="1"/>
        <pt x="471" y="311" on="1"/>
        <pt x="471" y="268" on="1"/>
        <pt x="150" y="268" on="1"/>
        <pt x="150" y="0" on="1"/>
        <pt x="96" y="0" on="1"/>
      </contour>
      <contour>
        <pt x="615" y="577" on="1"/>
        <pt x="669" y="577" on="1"/>
        <pt x="669" y="319" on="1"/>
        <pt x="1076" y="319" on="1"/>
        <pt x="1076" y="577" on="1"/>
        <pt x="1130" y="577" on="1"/>
        <pt x="1130" y="0" on="1"/>
        <pt x="1076" y="0" on="1"/>
        <pt x="1076" y="274" on="1"/>
        <pt x="669" y="274" on="1"/>
        <pt x="669" y="0" on="1"/>
        <pt x="615" y="0" on="1"/>
      </contour>
    </TTGlyph>
    <TTGlyph name="F_I.sc" xMin="96" yMin="0" xMax="669" yMax="577">
      <contour>
        <pt x="96" y="577" on="1"/>
        <pt x="505" y="577" on="1"/>
        <pt x="505" y="531" on="1"/>
        <pt x="150" y="531" on="1"/>
        <pt x="150" y="311" on="1"/>
        <pt x="471" y="311" on="1"/>
        <pt x="471" y="268" on="1"/>
        <pt x="150" y="268" on="1"/>
        <pt x="150" y="0" on="1"/>
        <pt x="96" y="0" on="1"/>
      </contour>
      <contour>
        <pt x="615" y="577" on="1"/>
        <pt x="669" y="577" on="1"/>
        <pt x="669" y="0" on="1"/>
        <pt x="615" y="0" on="1"/>
      </contour>
    </TTGlyph>
    <TTGlyph name="F_J.sc" xMin="96" yMin="-144" xMax="679" yMax="577">
      <contour>
        <pt x="96" y="577" on="1"/>
        <pt x="505" y="577" on="1"/>
        <pt x="505" y="531" on="1"/>
        <pt x="150" y="531" on="1"/>
        <pt x="150" y="311" on="1"/>
        <pt x="471" y="311" on="1"/>
        <pt x="471" y="268" on="1"/>
        <pt x="150" y="268" on="1"/>
        <pt x="150" y="0" on="1"/>
        <pt x="96" y="0" on="1"/>
      </contour>
      <contour>
        <pt x="558" y="-125" on="1"/>
        <pt x="577" y="-89" on="0"/>
        <pt x="603" y="-27" on="0"/>
        <pt x="618" y="36" on="0"/>
        <pt x="625" y="103" on="0"/>
        <pt x="625" y="143" on="1"/>
        <pt x="625" y="577" on="1"/>
        <pt x="679" y="577" on="1"/>
        <pt x="679" y="141" on="1"/>
        <pt x="679" y="102" on="0"/>
        <pt x="671" y="37" on="0"/>
        <pt x="653" y="-28" on="0"/>
        <pt x="622" y="-99" on="0"/>
        <pt x="598" y="-144" on="1"/>
      </contour>
    </TTGlyph>
    <TTGlyph name="F_K.sc" xMin="96" yMin="0" xMax="1106" yMax="577">
      <contour>
        <pt x="96" y="577" on="1"/>
        <pt x="505" y="577" on="1"/>
        <pt x="505" y="531" on="1"/>
        <pt x="150" y="531" on="1"/>
        <pt x="150" y="311" on="1"/>
        <pt x="471" y="311" on="1"/>
        <pt x="471" y="268" on="1"/>
        <pt x="150" y="268" on="1"/>
        <pt x="150" y="0" on="1"/>
        <pt x="96" y="0" on="1"/>
      </contour>
      <contour>
        <pt x="615" y="577" on="1"/>
        <pt x="669" y="577" on="1"/>
        <pt x="669" y="317" on="1"/>
        <pt x="822" y="317" on="1"/>
        <pt x="1028" y="577" on="1"/>
        <pt x="1091" y="577" on="1"/>
        <pt x="886" y="319" on="1"/>
        <pt x="861" y="300" on="1"/>
        <pt x="861" y="295" on="1"/>
        <pt x="888" y="276" on="1"/>
        <pt x="1106" y="0" on="1"/>
        <pt x="1042" y="0" on="1"/>
        <pt x="828" y="272" on="1"/>
        <pt x="669" y="272" on="1"/>
        <pt x="669" y="0" on="1"/>
        <pt x="615" y="0" on="1"/>
      </contour>
    </TTGlyph>
    <TTGlyph name="F_L.sc" xMin="96" yMin="0" xMax="994" yMax="577">
      <contour>
        <pt x="615" y="577" on="1"/>
        <pt x="669" y="577" on="1"/>
        <pt x="669" y="46" on="1"/>
        <pt x="994" y="46" on="1"/>
        <pt x="994" y="0" on="1"/>
        <pt x="615" y="0" on="1"/>
      </contour>
      <contour>
        <pt x="96" y="577" on="1"/>
        <pt x="505" y="577" on="1"/>
        <pt x="505" y="531" on="1"/>
        <pt x="150" y="531" on="1"/>
        <pt x="150" y="311" on="1"/>
        <pt x="471" y="311" on="1"/>
        <pt x="471" y="268" on="1"/>
        <pt x="150" y="268" on="1"/>
        <pt x="150" y="0" on="1"/>
        <pt x="96" y="0" on="1"/>
      </contour>
    </TTGlyph>
    <TTGlyph name="F_T.sc" xMin="96" yMin="0" xMax="1052" yMax="577">
      <contour>
        <pt x="769" y="531" on="1"/>
        <pt x="538" y="531" on="1"/>
        <pt x="538" y="577" on="1"/>
        <pt x="1052" y="577" on="1"/>
        <pt x="1052" y="531" on="1"/>
        <pt x="822" y="531" on="1"/>
        <pt x="822" y="0" on="1"/>
        <pt x="769" y="0" on="1"/>
      </contour>
      <contour>
        <pt x="96" y="577" on="1"/>
        <pt x="505" y="577" on="1"/>
        <pt x="505" y="531" on="1"/>
        <pt x="150" y="531" on="1"/>
        <pt x="150" y="311" on="1"/>
        <pt x="471" y="311" on="1"/>
        <pt x="471" y="268" on="1"/>
        <pt x="150" y="268" on="1"/>
        <pt x="150" y="0" on="1"/>
        <pt x="96" y="0" on="1"/>
      </contour>
    </TTGlyph>
    <TTGlyph name="G" xMin="60" yMin="-8" xMax="605" yMax="750">
      <contour>
        <pt x="397" y="-8" on="1"/>
        <pt x="232" y="-8" on="0"/>
        <pt x="60" y="184" on="0"/>
        <pt x="60" y="368" on="1"/>
        <pt x="60" y="555" on="0"/>
        <pt x="236" y="750" on="0"/>
        <pt x="407" y="750" on="1"/>
        <pt x="495" y="750" on="0"/>
        <pt x="598" y="722" on="1"/>
        <pt x="598" y="672" on="1"/>
        <pt x="565" y="680" on="0"/>
        <pt x="514" y="691" on="0"/>
        <pt x="471" y="697" on="0"/>
        <pt x="431" y="700" on="0"/>
        <pt x="409" y="700" on="1"/>
        <pt x="266" y="700" on="0"/>
        <pt x="115" y="530" on="0"/>
        <pt x="115" y="369" on="1"/>
        <pt x="115" y="209" on="0"/>
        <pt x="259" y="42" on="0"/>
        <pt x="396" y="42" on="1"/>
        <pt x="411" y="42" on="0"/>
        <pt x="451" y="45" on="0"/>
        <pt x="493" y="51" on="0"/>
        <pt x="535" y="58" on="0"/>
        <pt x="552" y="62" on="1"/>
        <pt x="552" y="376" on="1"/>
        <pt x="605" y="376" on="1"/>
        <pt x="605" y="27" on="1"/>
        <pt x="582" y="19" on="0"/>
        <pt x="527" y="7" on="0"/>
        <pt x="471" y="-3" on="0"/>
        <pt x="418" y="-8" on="0"/>
      </contour>
    </TTGlyph>
    <TTGlyph name="G.sc" xMin="60" yMin="-7" xMax="536" yMax="585">
      <contour>
        <pt x="352" y="-7" on="1"/>
        <pt x="209" y="-7" on="0"/>
        <pt x="60" y="143" on="0"/>
        <pt x="60" y="287" on="1"/>
        <pt x="60" y="433" on="0"/>
        <pt x="213" y="585" on="0"/>
        <pt x="361" y="585" on="1"/>
        <pt x="441" y="585" on="0"/>
        <pt x="529" y="563" on="1"/>
        <pt x="529" y="516" on="1"/>
        <pt x="500" y="522" on="0"/>
        <pt x="455" y="531" on="0"/>
        <pt x="417" y="536" on="0"/>
        <pt x="383" y="538" on="0"/>
        <pt x="364" y="538" on="1"/>
        <pt x="241" y="538" on="0"/>
        <pt x="114" y="410" on="0"/>
        <pt x="114" y="288" on="1"/>
        <pt x="114" y="167" on="0"/>
        <pt x="235" y="41" on="0"/>
        <pt x="353" y="41" on="1"/>
        <pt x="365" y="41" on="0"/>
        <pt x="400" y="43" on="0"/>
        <pt x="436" y="48" on="0"/>
        <pt x="471" y="54" on="0"/>
        <pt x="484" y="57" on="1"/>
        <pt x="484" y="293" on="1"/>
        <pt x="536" y="293" on="1"/>
        <pt x="536" y="22" on="1"/>
        <pt x="516" y="16" on="0"/>
        <pt x="467" y="5" on="0"/>
        <pt x="418" y="-2" on="0"/>
        <pt x="371" y="-7" on="0"/>
      </contour>
    </TTGlyph>
    <TTGlyph name="Gacute" xMin="60" yMin="-8" xMax="605" yMax="938">
      <contour>
        <pt x="334" y="811" on="1"/>
        <pt x="412" y="938" on="1"/>
        <pt x="470" y="938" on="1"/>
        <pt x="380" y="804" on="1"/>
      </contour>
      <contour>
        <pt x="397" y="-8" on="1"/>
        <pt x="232" y="-8" on="0"/>
        <pt x="60" y="184" on="0"/>
        <pt x="60" y="368" on="1"/>
        <pt x="60" y="555" on="0"/>
        <pt x="236" y="750" on="0"/>
        <pt x="407" y="750" on="1"/>
        <pt x="495" y="750" on="0"/>
        <pt x="598" y="722" on="1"/>
        <pt x="598" y="672" on="1"/>
        <pt x="565" y="680" on="0"/>
        <pt x="514" y="691" on="0"/>
        <pt x="471" y="697" on="0"/>
        <pt x="431" y="700" on="0"/>
        <pt x="409" y="700" on="1"/>
        <pt x="266" y="700" on="0"/>
        <pt x="115" y="530" on="0"/>
        <pt x="115" y="369" on="1"/>
        <pt x="115" y="209" on="0"/>
        <pt x="259" y="42" on="0"/>
        <pt x="396" y="42" on="1"/>
        <pt x="411" y="42" on="0"/>
        <pt x="451" y="45" on="0"/>
        <pt x="493" y="51" on="0"/>
        <pt x="535" y="58" on="0"/>
        <pt x="552" y="62" on="1"/>
        <pt x="552" y="376" on="1"/>
        <pt x="605" y="376" on="1"/>
        <pt x="605" y="27" on="1"/>
        <pt x="582" y="19" on="0"/>
        <pt x="527" y="7" on="0"/>
        <pt x="471" y="-3" on="0"/>
        <pt x="418" y="-8" on="0"/>
      </contour>
    </TTGlyph>
    <TTGlyph name="Gacute.sc" xMin="60" yMin="-7" xMax="536" yMax="736">
      <contour>
        <pt x="352" y="-7" on="1"/>
        <pt x="209" y="-7" on="0"/>
        <pt x="60" y="143" on="0"/>
        <pt x="60" y="287" on="1"/>
        <pt x="60" y="433" on="0"/>
        <pt x="213" y="585" on="0"/>
        <pt x="361" y="585" on="1"/>
        <pt x="441" y="585" on="0"/>
        <pt x="529" y="563" on="1"/>
        <pt x="529" y="515" on="1"/>
        <pt x="500" y="522" on="0"/>
        <pt x="455" y="531" on="0"/>
        <pt x="417" y="536" on="0"/>
        <pt x="383" y="538" on="0"/>
        <pt x="364" y="538" on="1"/>
        <pt x="242" y="538" on="0"/>
        <pt x="114" y="410" on="0"/>
        <pt x="114" y="288" on="1"/>
        <pt x="114" y="166" on="0"/>
        <pt x="235" y="41" on="0"/>
        <pt x="353" y="41" on="1"/>
        <pt x="365" y="41" on="0"/>
        <pt x="400" y="43" on="0"/>
        <pt x="436" y="48" on="0"/>
        <pt x="471" y="54" on="0"/>
        <pt x="484" y="57" on="1"/>
        <pt x="484" y="293" on="1"/>
        <pt x="536" y="293" on="1"/>
        <pt x="536" y="22" on="1"/>
        <pt x="516" y="16" on="0"/>
        <pt x="467" y="5" on="0"/>
        <pt x="418" y="-2" on="0"/>
        <pt x="371" y="-7" on="0"/>
      </contour>
      <contour>
        <pt x="296" y="634" on="1"/>
        <pt x="361" y="736" on="1"/>
        <pt x="418" y="736" on="1"/>
        <pt x="339" y="628" on="1"/>
      </contour>
    </TTGlyph>
    <TTGlyph name="Gbreve" xMin="60" yMin="-8" xMax="605" yMax="954">
      <contour>
        <pt x="365" y="816" on="1"/>
        <pt x="280" y="816" on="0"/>
        <pt x="191" y="890" on="0"/>
        <pt x="191" y="954" on="1"/>
        <pt x="237" y="954" on="1"/>
        <pt x="237" y="908" on="0"/>
        <pt x="303" y="857" on="0"/>
        <pt x="365" y="857" on="1"/>
        <pt x="426" y="857" on="0"/>
        <pt x="493" y="908" on="0"/>
        <pt x="493" y="954" on="1"/>
        <pt x="539" y="954" on="1"/>
        <pt x="539" y="890" on="0"/>
        <pt x="450" y="816" on="0"/>
      </contour>
      <contour>
        <pt x="397" y="-8" on="1"/>
        <pt x="232" y="-8" on="0"/>
        <pt x="60" y="184" on="0"/>
        <pt x="60" y="368" on="1"/>
        <pt x="60" y="555" on="0"/>
        <pt x="236" y="750" on="0"/>
        <pt x="407" y="750" on="1"/>
        <pt x="495" y="750" on="0"/>
        <pt x="598" y="722" on="1"/>
        <pt x="598" y="672" on="1"/>
        <pt x="565" y="680" on="0"/>
        <pt x="514" y="691" on="0"/>
        <pt x="471" y="697" on="0"/>
        <pt x="431" y="700" on="0"/>
        <pt x="409" y="700" on="1"/>
        <pt x="266" y="700" on="0"/>
        <pt x="115" y="530" on="0"/>
        <pt x="115" y="369" on="1"/>
        <pt x="115" y="209" on="0"/>
        <pt x="259" y="42" on="0"/>
        <pt x="396" y="42" on="1"/>
        <pt x="411" y="42" on="0"/>
        <pt x="451" y="45" on="0"/>
        <pt x="493" y="51" on="0"/>
        <pt x="535" y="58" on="0"/>
        <pt x="552" y="62" on="1"/>
        <pt x="552" y="376" on="1"/>
        <pt x="605" y="376" on="1"/>
        <pt x="605" y="27" on="1"/>
        <pt x="582" y="19" on="0"/>
        <pt x="527" y="7" on="0"/>
        <pt x="471" y="-3" on="0"/>
        <pt x="418" y="-8" on="0"/>
      </contour>
    </TTGlyph>
    <TTGlyph name="Gbreve.sc" xMin="60" yMin="-7" xMax="536" yMax="748">
      <contour>
        <pt x="352" y="-7" on="1"/>
        <pt x="209" y="-7" on="0"/>
        <pt x="60" y="143" on="0"/>
        <pt x="60" y="287" on="1"/>
        <pt x="60" y="433" on="0"/>
        <pt x="213" y="585" on="0"/>
        <pt x="361" y="585" on="1"/>
        <pt x="441" y="585" on="0"/>
        <pt x="529" y="563" on="1"/>
        <pt x="529" y="515" on="1"/>
        <pt x="500" y="522" on="0"/>
        <pt x="455" y="531" on="0"/>
        <pt x="417" y="536" on="0"/>
        <pt x="383" y="538" on="0"/>
        <pt x="364" y="538" on="1"/>
        <pt x="242" y="538" on="0"/>
        <pt x="114" y="410" on="0"/>
        <pt x="114" y="288" on="1"/>
        <pt x="114" y="166" on="0"/>
        <pt x="235" y="41" on="0"/>
        <pt x="353" y="41" on="1"/>
        <pt x="365" y="41" on="0"/>
        <pt x="400" y="43" on="0"/>
        <pt x="436" y="48" on="0"/>
        <pt x="471" y="54" on="0"/>
        <pt x="484" y="57" on="1"/>
        <pt x="484" y="293" on="1"/>
        <pt x="536" y="293" on="1"/>
        <pt x="536" y="22" on="1"/>
        <pt x="516" y="16" on="0"/>
        <pt x="467" y="5" on="0"/>
        <pt x="418" y="-2" on="0"/>
        <pt x="371" y="-7" on="0"/>
      </contour>
      <contour>
        <pt x="325" y="636" on="1"/>
        <pt x="250" y="636" on="0"/>
        <pt x="172" y="697" on="0"/>
        <pt x="172" y="748" on="1"/>
        <pt x="215" y="748" on="1"/>
        <pt x="215" y="712" on="0"/>
        <pt x="271" y="672" on="0"/>
        <pt x="325" y="672" on="1"/>
        <pt x="379" y="672" on="0"/>
        <pt x="435" y="712" on="0"/>
        <pt x="435" y="748" on="1"/>
        <pt x="478" y="748" on="1"/>
        <pt x="478" y="697" on="0"/>
        <pt x="400" y="636" on="0"/>
      </contour>
    </TTGlyph>
    <TTGlyph name="Gcircumflex" xMin="60" yMin="-8" xMax="605" yMax="942">
      <contour>
        <pt x="397" y="-8" on="1"/>
        <pt x="232" y="-8" on="0"/>
        <pt x="60" y="184" on="0"/>
        <pt x="60" y="368" on="1"/>
        <pt x="60" y="555" on="0"/>
        <pt x="236" y="750" on="0"/>
        <pt x="407" y="750" on="1"/>
        <pt x="495" y="750" on="0"/>
        <pt x="598" y="722" on="1"/>
        <pt x="598" y="672" on="1"/>
        <pt x="565" y="680" on="0"/>
        <pt x="514" y="691" on="0"/>
        <pt x="471" y="697" on="0"/>
        <pt x="431" y="700" on="0"/>
        <pt x="409" y="700" on="1"/>
        <pt x="266" y="700" on="0"/>
        <pt x="115" y="530" on="0"/>
        <pt x="115" y="369" on="1"/>
        <pt x="115" y="209" on="0"/>
        <pt x="259" y="42" on="0"/>
        <pt x="396" y="42" on="1"/>
        <pt x="411" y="42" on="0"/>
        <pt x="451" y="45" on="0"/>
        <pt x="493" y="51" on="0"/>
        <pt x="535" y="58" on="0"/>
        <pt x="552" y="62" on="1"/>
        <pt x="552" y="376" on="1"/>
        <pt x="605" y="376" on="1"/>
        <pt x="605" y="27" on="1"/>
        <pt x="582" y="19" on="0"/>
        <pt x="527" y="7" on="0"/>
        <pt x="471" y="-3" on="0"/>
        <pt x="418" y="-8" on="0"/>
      </contour>
      <contour>
        <pt x="204" y="869" on="1"/>
        <pt x="364" y="942" on="1"/>
        <pt x="524" y="869" on="1"/>
        <pt x="524" y="817" on="1"/>
        <pt x="364" y="890" on="1"/>
        <pt x="204" y="817" on="1"/>
      </contour>
    </TTGlyph>
    <TTGlyph name="Gcircumflex.sc" xMin="60" yMin="-7" xMax="536" yMax="740">
      <contour>
        <pt x="352" y="-7" on="1"/>
        <pt x="209" y="-7" on="0"/>
        <pt x="60" y="143" on="0"/>
        <pt x="60" y="287" on="1"/>
        <pt x="60" y="433" on="0"/>
        <pt x="213" y="585" on="0"/>
        <pt x="361" y="585" on="1"/>
        <pt x="441" y="585" on="0"/>
        <pt x="529" y="563" on="1"/>
        <pt x="529" y="515" on="1"/>
        <pt x="500" y="522" on="0"/>
        <pt x="455" y="531" on="0"/>
        <pt x="417" y="536" on="0"/>
        <pt x="383" y="538" on="0"/>
        <pt x="364" y="538" on="1"/>
        <pt x="242" y="538" on="0"/>
        <pt x="114" y="410" on="0"/>
        <pt x="114" y="288" on="1"/>
        <pt x="114" y="166" on="0"/>
        <pt x="235" y="41" on="0"/>
        <pt x="353" y="41" on="1"/>
        <pt x="365" y="41" on="0"/>
        <pt x="400" y="43" on="0"/>
        <pt x="436" y="48" on="0"/>
        <pt x="471" y="54" on="0"/>
        <pt x="484" y="57" on="1"/>
        <pt x="484" y="293" on="1"/>
        <pt x="536" y="293" on="1"/>
        <pt x="536" y="22" on="1"/>
        <pt x="516" y="16" on="0"/>
        <pt x="467" y="5" on="0"/>
        <pt x="418" y="-2" on="0"/>
        <pt x="371" y="-7" on="0"/>
      </contour>
      <contour>
        <pt x="183" y="682" on="1"/>
        <pt x="323" y="740" on="1"/>
        <pt x="464" y="682" on="1"/>
        <pt x="464" y="636" on="1"/>
        <pt x="323" y="693" on="1"/>
        <pt x="183" y="636" on="1"/>
      </contour>
    </TTGlyph>
    <TTGlyph name="Gcommaaccent" xMin="60" yMin="-220" xMax="605" yMax="750">
      <contour>
        <pt x="347" y="-70" on="1"/>
        <pt x="405" y="-70" on="1"/>
        <pt x="346" y="-220" on="1"/>
        <pt x="297" y="-220" on="1"/>
      </contour>
      <contour>
        <pt x="397" y="-8" on="1"/>
        <pt x="232" y="-8" on="0"/>
        <pt x="60" y="184" on="0"/>
        <pt x="60" y="368" on="1"/>
        <pt x="60" y="555" on="0"/>
        <pt x="236" y="750" on="0"/>
        <pt x="407" y="750" on="1"/>
        <pt x="495" y="750" on="0"/>
        <pt x="598" y="722" on="1"/>
        <pt x="598" y="672" on="1"/>
        <pt x="565" y="680" on="0"/>
        <pt x="514" y="691" on="0"/>
        <pt x="471" y="697" on="0"/>
        <pt x="431" y="700" on="0"/>
        <pt x="409" y="700" on="1"/>
        <pt x="266" y="700" on="0"/>
        <pt x="115" y="530" on="0"/>
        <pt x="115" y="369" on="1"/>
        <pt x="115" y="209" on="0"/>
        <pt x="259" y="42" on="0"/>
        <pt x="396" y="42" on="1"/>
        <pt x="411" y="42" on="0"/>
        <pt x="451" y="45" on="0"/>
        <pt x="493" y="51" on="0"/>
        <pt x="535" y="58" on="0"/>
        <pt x="552" y="62" on="1"/>
        <pt x="552" y="376" on="1"/>
        <pt x="605" y="376" on="1"/>
        <pt x="605" y="27" on="1"/>
        <pt x="582" y="19" on="0"/>
        <pt x="527" y="7" on="0"/>
        <pt x="471" y="-3" on="0"/>
        <pt x="418" y="-8" on="0"/>
      </contour>
    </TTGlyph>
    <TTGlyph name="Gcommaaccent.sc" xMin="60" yMin="-172" xMax="536" yMax="585">
      <contour>
        <pt x="352" y="-7" on="1"/>
        <pt x="209" y="-7" on="0"/>
        <pt x="60" y="143" on="0"/>
        <pt x="60" y="287" on="1"/>
        <pt x="60" y="433" on="0"/>
        <pt x="213" y="585" on="0"/>
        <pt x="361" y="585" on="1"/>
        <pt x="441" y="585" on="0"/>
        <pt x="529" y="563" on="1"/>
        <pt x="529" y="515" on="1"/>
        <pt x="500" y="522" on="0"/>
        <pt x="455" y="531" on="0"/>
        <pt x="417" y="536" on="0"/>
        <pt x="383" y="538" on="0"/>
        <pt x="364" y="538" on="1"/>
        <pt x="242" y="538" on="0"/>
        <pt x="114" y="410" on="0"/>
        <pt x="114" y="288" on="1"/>
        <pt x="114" y="166" on="0"/>
        <pt x="235" y="41" on="0"/>
        <pt x="353" y="41" on="1"/>
        <pt x="365" y="41" on="0"/>
        <pt x="400" y="43" on="0"/>
        <pt x="436" y="48" on="0"/>
        <pt x="471" y="54" on="0"/>
        <pt x="484" y="57" on="1"/>
        <pt x="484" y="293" on="1"/>
        <pt x="536" y="293" on="1"/>
        <pt x="536" y="22" on="1"/>
        <pt x="516" y="16" on="0"/>
        <pt x="467" y="5" on="0"/>
        <pt x="418" y="-2" on="0"/>
        <pt x="371" y="-7" on="0"/>
      </contour>
      <contour>
        <pt x="305" y="-55" on="1"/>
        <pt x="362" y="-55" on="1"/>
        <pt x="310" y="-172" on="1"/>
        <pt x="263" y="-172" on="1"/>
      </contour>
    </TTGlyph>
    <TTGlyph name="Gdotaccent" xMin="60" yMin="-8" xMax="605" yMax="908">
      <contour>
        <pt x="367" y="825" on="1"/>
        <pt x="347" y="825" on="0"/>
        <pt x="325" y="844" on="0"/>
        <pt x="325" y="866" on="1"/>
        <pt x="325" y="888" on="0"/>
        <pt x="347" y="908" on="0"/>
        <pt x="367" y="908" on="1"/>
        <pt x="385" y="908" on="0"/>
        <pt x="410" y="889" on="0"/>
        <pt x="410" y="866" on="1"/>
        <pt x="410" y="844" on="0"/>
        <pt x="385" y="825" on="0"/>
      </contour>
      <contour>
        <pt x="397" y="-8" on="1"/>
        <pt x="232" y="-8" on="0"/>
        <pt x="60" y="184" on="0"/>
        <pt x="60" y="368" on="1"/>
        <pt x="60" y="555" on="0"/>
        <pt x="236" y="750" on="0"/>
        <pt x="407" y="750" on="1"/>
        <pt x="495" y="750" on="0"/>
        <pt x="598" y="722" on="1"/>
        <pt x="598" y="672" on="1"/>
        <pt x="565" y="680" on="0"/>
        <pt x="514" y="691" on="0"/>
        <pt x="471" y="697" on="0"/>
        <pt x="431" y="700" on="0"/>
        <pt x="409" y="700" on="1"/>
        <pt x="266" y="700" on="0"/>
        <pt x="115" y="530" on="0"/>
        <pt x="115" y="369" on="1"/>
        <pt x="115" y="209" on="0"/>
        <pt x="259" y="42" on="0"/>
        <pt x="396" y="42" on="1"/>
        <pt x="411" y="42" on="0"/>
        <pt x="451" y="45" on="0"/>
        <pt x="493" y="51" on="0"/>
        <pt x="535" y="58" on="0"/>
        <pt x="552" y="62" on="1"/>
        <pt x="552" y="376" on="1"/>
        <pt x="605" y="376" on="1"/>
        <pt x="605" y="27" on="1"/>
        <pt x="582" y="19" on="0"/>
        <pt x="527" y="7" on="0"/>
        <pt x="471" y="-3" on="0"/>
        <pt x="418" y="-8" on="0"/>
      </contour>
    </TTGlyph>
    <TTGlyph name="Gdotaccent.sc" xMin="60" yMin="-7" xMax="536" yMax="717">
      <contour>
        <pt x="352" y="-7" on="1"/>
        <pt x="209" y="-7" on="0"/>
        <pt x="60" y="143" on="0"/>
        <pt x="60" y="287" on="1"/>
        <pt x="60" y="433" on="0"/>
        <pt x="213" y="585" on="0"/>
        <pt x="361" y="585" on="1"/>
        <pt x="441" y="585" on="0"/>
        <pt x="529" y="563" on="1"/>
        <pt x="529" y="515" on="1"/>
        <pt x="500" y="522" on="0"/>
        <pt x="455" y="531" on="0"/>
        <pt x="417" y="536" on="0"/>
        <pt x="383" y="538" on="0"/>
        <pt x="364" y="538" on="1"/>
        <pt x="242" y="538" on="0"/>
        <pt x="114" y="410" on="0"/>
        <pt x="114" y="288" on="1"/>
        <pt x="114" y="166" on="0"/>
        <pt x="235" y="41" on="0"/>
        <pt x="353" y="41" on="1"/>
        <pt x="365" y="41" on="0"/>
        <pt x="400" y="43" on="0"/>
        <pt x="436" y="48" on="0"/>
        <pt x="471" y="54" on="0"/>
        <pt x="484" y="57" on="1"/>
        <pt x="484" y="293" on="1"/>
        <pt x="536" y="293" on="1"/>
        <pt x="536" y="22" on="1"/>
        <pt x="516" y="16" on="0"/>
        <pt x="467" y="5" on="0"/>
        <pt x="418" y="-2" on="0"/>
        <pt x="371" y="-7" on="0"/>
      </contour>
      <contour>
        <pt x="326" y="643" on="1"/>
        <pt x="308" y="643" on="0"/>
        <pt x="287" y="660" on="0"/>
        <pt x="287" y="680" on="1"/>
        <pt x="287" y="700" on="0"/>
        <pt x="308" y="717" on="0"/>
        <pt x="326" y="717" on="1"/>
        <pt x="344" y="717" on="0"/>
        <pt x="366" y="700" on="0"/>
        <pt x="366" y="680" on="1"/>
        <pt x="366" y="660" on="0"/>
        <pt x="344" y="643" on="0"/>
      </contour>
    </TTGlyph>
    <TTGlyph name="H" xMin="102" yMin="0" xMax="689" yMax="740">
      <contour>
        <pt x="102" y="740" on="1"/>
        <pt x="156" y="740" on="1"/>
        <pt x="156" y="404" on="1"/>
        <pt x="635" y="404" on="1"/>
        <pt x="635" y="740" on="1"/>
        <pt x="689" y="740" on="1"/>
        <pt x="689" y="0" on="1"/>
        <pt x="635" y="0" on="1"/>
        <pt x="635" y="356" on="1"/>
        <pt x="156" y="356" on="1"/>
        <pt x="156" y="0" on="1"/>
        <pt x="102" y="0" on="1"/>
      </contour>
    </TTGlyph>
    <TTGlyph name="H.sc" xMin="96" yMin="0" xMax="611" yMax="577">
      <contour>
        <pt x="96" y="577" on="1"/>
        <pt x="150" y="577" on="1"/>
        <pt x="150" y="319" on="1"/>
        <pt x="557" y="319" on="1"/>
        <pt x="557" y="577" on="1"/>
        <pt x="611" y="577" on="1"/>
        <pt x="611" y="0" on="1"/>
        <pt x="557" y="0" on="1"/>
        <pt x="557" y="274" on="1"/>
        <pt x="150" y="274" on="1"/>
        <pt x="150" y="0" on="1"/>
        <pt x="96" y="0" on="1"/>
      </contour>
    </TTGlyph>
    <TTGlyph name="Hbar" xMin="9" yMin="0" xMax="792" yMax="740">
      <contour>
        <pt x="9" y="589" on="1"/>
        <pt x="106" y="589" on="1"/>
        <pt x="106" y="740" on="1"/>
        <pt x="160" y="740" on="1"/>
        <pt x="160" y="589" on="1"/>
        <pt x="639" y="589" on="1"/>
        <pt x="639" y="740" on="1"/>
        <pt x="693" y="740" on="1"/>
        <pt x="693" y="589" on="1"/>
        <pt x="792" y="589" on="1"/>
        <pt x="792" y="548" on="1"/>
        <pt x="693" y="548" on="1"/>
        <pt x="693" y="0" on="1"/>
        <pt x="639" y="0" on="1"/>
        <pt x="639" y="356" on="1"/>
        <pt x="160" y="356" on="1"/>
        <pt x="160" y="0" on="1"/>
        <pt x="106" y="0" on="1"/>
        <pt x="106" y="548" on="1"/>
        <pt x="9" y="548" on="1"/>
      </contour>
      <contour>
        <pt x="639" y="404" on="1"/>
        <pt x="639" y="548" on="1"/>
        <pt x="160" y="548" on="1"/>
        <pt x="160" y="404" on="1"/>
      </contour>
    </TTGlyph>
    <TTGlyph name="Hbar.sc" xMin="18" yMin="0" xMax="698" yMax="577">
      <contour>
        <pt x="18" y="463" on="1"/>
        <pt x="101" y="463" on="1"/>
        <pt x="101" y="577" on="1"/>
        <pt x="154" y="577" on="1"/>
        <pt x="154" y="463" on="1"/>
        <pt x="562" y="463" on="1"/>
        <pt x="562" y="577" on="1"/>
        <pt x="615" y="577" on="1"/>
        <pt x="615" y="463" on="1"/>
        <pt x="698" y="463" on="1"/>
        <pt x="698" y="427" on="1"/>
        <pt x="615" y="427" on="1"/>
        <pt x="615" y="0" on="1"/>
        <pt x="562" y="0" on="1"/>
        <pt x="562" y="272" on="1"/>
        <pt x="154" y="272" on="1"/>
        <pt x="154" y="0" on="1"/>
        <pt x="101" y="0" on="1"/>
        <pt x="101" y="427" on="1"/>
        <pt x="18" y="427" on="1"/>
      </contour>
      <contour>
        <pt x="562" y="317" on="1"/>
        <pt x="562" y="427" on="1"/>
        <pt x="154" y="427" on="1"/>
        <pt x="154" y="317" on="1"/>
      </contour>
    </TTGlyph>
    <TTGlyph name="Hcircumflex" xMin="102" yMin="0" xMax="689" yMax="942">
      <contour>
        <pt x="102" y="740" on="1"/>
        <pt x="156" y="740" on="1"/>
        <pt x="156" y="404" on="1"/>
        <pt x="635" y="404" on="1"/>
        <pt x="635" y="740" on="1"/>
        <pt x="689" y="740" on="1"/>
        <pt x="689" y="0" on="1"/>
        <pt x="635" y="0" on="1"/>
        <pt x="635" y="356" on="1"/>
        <pt x="156" y="356" on="1"/>
        <pt x="156" y="0" on="1"/>
        <pt x="102" y="0" on="1"/>
      </contour>
      <contour>
        <pt x="229" y="869" on="1"/>
        <pt x="389" y="942" on="1"/>
        <pt x="549" y="869" on="1"/>
        <pt x="549" y="817" on="1"/>
        <pt x="389" y="890" on="1"/>
        <pt x="229" y="817" on="1"/>
      </contour>
    </TTGlyph>
    <TTGlyph name="Hcircumflex.sc" xMin="96" yMin="0" xMax="611" yMax="740">
      <contour>
        <pt x="96" y="577" on="1"/>
        <pt x="150" y="577" on="1"/>
        <pt x="150" y="319" on="1"/>
        <pt x="557" y="319" on="1"/>
        <pt x="557" y="577" on="1"/>
        <pt x="611" y="577" on="1"/>
        <pt x="611" y="0" on="1"/>
        <pt x="557" y="0" on="1"/>
        <pt x="557" y="274" on="1"/>
        <pt x="150" y="274" on="1"/>
        <pt x="150" y="0" on="1"/>
        <pt x="96" y="0" on="1"/>
      </contour>
      <contour>
        <pt x="207" y="682" on="1"/>
        <pt x="348" y="740" on="1"/>
        <pt x="489" y="682" on="1"/>
        <pt x="489" y="636" on="1"/>
        <pt x="348" y="693" on="1"/>
        <pt x="207" y="636" on="1"/>
      </contour>
    </TTGlyph>
    <TTGlyph name="Hdotbelow" xMin="102" yMin="-175" xMax="689" yMax="740">
      <contour>
        <pt x="102" y="740" on="1"/>
        <pt x="156" y="740" on="1"/>
        <pt x="156" y="404" on="1"/>
        <pt x="635" y="404" on="1"/>
        <pt x="635" y="740" on="1"/>
        <pt x="689" y="740" on="1"/>
        <pt x="689" y="0" on="1"/>
        <pt x="635" y="0" on="1"/>
        <pt x="635" y="356" on="1"/>
        <pt x="156" y="356" on="1"/>
        <pt x="156" y="0" on="1"/>
        <pt x="102" y="0" on="1"/>
      </contour>
      <contour>
        <pt x="406" y="-175" on="1"/>
        <pt x="386" y="-175" on="0"/>
        <pt x="364" y="-156" on="0"/>
        <pt x="364" y="-133" on="1"/>
        <pt x="364" y="-110" on="0"/>
        <pt x="386" y="-90" on="0"/>
        <pt x="406" y="-90" on="1"/>
        <pt x="426" y="-90" on="0"/>
        <pt x="450" y="-110" on="0"/>
        <pt x="450" y="-133" on="1"/>
        <pt x="450" y="-156" on="0"/>
        <pt x="426" y="-175" on="0"/>
      </contour>
    </TTGlyph>
    <TTGlyph name="Hdotbelow.sc" xMin="96" yMin="-140" xMax="611" yMax="577">
      <contour>
        <pt x="96" y="577" on="1"/>
        <pt x="150" y="577" on="1"/>
        <pt x="150" y="319" on="1"/>
        <pt x="557" y="319" on="1"/>
        <pt x="557" y="577" on="1"/>
        <pt x="611" y="577" on="1"/>
        <pt x="611" y="0" on="1"/>
        <pt x="557" y="0" on="1"/>
        <pt x="557" y="274" on="1"/>
        <pt x="150" y="274" on="1"/>
        <pt x="150" y="0" on="1"/>
        <pt x="96" y="0" on="1"/>
      </contour>
      <contour>
        <pt x="363" y="-140" on="1"/>
        <pt x="325" y="-140" on="0"/>
        <pt x="325" y="-104" on="1"/>
        <pt x="325" y="-67" on="0"/>
        <pt x="363" y="-67" on="1"/>
        <pt x="401" y="-67" on="0"/>
        <pt x="401" y="-104" on="1"/>
        <pt x="401" y="-124" on="0"/>
        <pt x="381" y="-140" on="0"/>
      </contour>
    </TTGlyph>
    <TTGlyph name="I" xMin="102" yMin="0" xMax="156" yMax="740">
      <contour>
        <pt x="102" y="740" on="1"/>
        <pt x="156" y="740" on="1"/>
        <pt x="156" y="0" on="1"/>
        <pt x="102" y="0" on="1"/>
      </contour>
    </TTGlyph>
    <TTGlyph name="I.sc" xMin="96" yMin="0" xMax="150" yMax="577">
      <contour>
        <pt x="96" y="577" on="1"/>
        <pt x="150" y="577" on="1"/>
        <pt x="150" y="0" on="1"/>
        <pt x="96" y="0" on="1"/>
      </contour>
    </TTGlyph>
    <TTGlyph name="IJ" xMin="102" yMin="-181" xMax="416" yMax="740">
      <contour>
        <pt x="102" y="740" on="1"/>
        <pt x="156" y="740" on="1"/>
        <pt x="156" y="0" on="1"/>
        <pt x="102" y="0" on="1"/>
      </contour>
      <contour>
        <pt x="283" y="-161" on="1"/>
        <pt x="305" y="-115" on="0"/>
        <pt x="336" y="-34" on="0"/>
        <pt x="354" y="46" on="0"/>
        <pt x="362" y="131" on="0"/>
        <pt x="362" y="182" on="1"/>
        <pt x="362" y="740" on="1"/>
        <pt x="416" y="740" on="1"/>
        <pt x="416" y="180" on="1"/>
        <pt x="416" y="130" on="0"/>
        <pt x="408" y="47" on="0"/>
        <pt x="387" y="-35" on="0"/>
        <pt x="352" y="-125" on="0"/>
        <pt x="325" y="-181" on="1"/>
      </contour>
    </TTGlyph>
    <TTGlyph name="Iacute" xMin="100" yMin="0" xMax="236" yMax="938">
      <contour>
        <pt x="102" y="740" on="1"/>
        <pt x="156" y="740" on="1"/>
        <pt x="156" y="0" on="1"/>
        <pt x="102" y="0" on="1"/>
      </contour>
      <contour>
        <pt x="100" y="811" on="1"/>
        <pt x="178" y="938" on="1"/>
        <pt x="236" y="938" on="1"/>
        <pt x="146" y="804" on="1"/>
      </contour>
    </TTGlyph>
    <TTGlyph name="Iacute.sc" xMin="96" yMin="0" xMax="217" yMax="736">
      <contour>
        <pt x="96" y="577" on="1"/>
        <pt x="150" y="577" on="1"/>
        <pt x="150" y="0" on="1"/>
        <pt x="96" y="0" on="1"/>
      </contour>
      <contour>
        <pt x="96" y="634" on="1"/>
        <pt x="162" y="736" on="1"/>
        <pt x="217" y="736" on="1"/>
        <pt x="140" y="628" on="1"/>
      </contour>
    </TTGlyph>
    <TTGlyph name="Ibreve" xMin="-45" yMin="0" xMax="303" yMax="954">
      <contour>
        <pt x="102" y="740" on="1"/>
        <pt x="156" y="740" on="1"/>
        <pt x="156" y="0" on="1"/>
        <pt x="102" y="0" on="1"/>
      </contour>
      <contour>
        <pt x="129" y="816" on="1"/>
        <pt x="44" y="816" on="0"/>
        <pt x="-45" y="890" on="0"/>
        <pt x="-45" y="954" on="1"/>
        <pt x="1" y="954" on="1"/>
        <pt x="1" y="908" on="0"/>
        <pt x="67" y="857" on="0"/>
        <pt x="129" y="857" on="1"/>
        <pt x="190" y="857" on="0"/>
        <pt x="257" y="908" on="0"/>
        <pt x="257" y="954" on="1"/>
        <pt x="303" y="954" on="1"/>
        <pt x="303" y="890" on="0"/>
        <pt x="214" y="816" on="0"/>
      </contour>
    </TTGlyph>
    <TTGlyph name="Ibreve.sc" xMin="-31" yMin="0" xMax="276" yMax="748">
      <contour>
        <pt x="96" y="577" on="1"/>
        <pt x="150" y="577" on="1"/>
        <pt x="150" y="0" on="1"/>
        <pt x="96" y="0" on="1"/>
      </contour>
      <contour>
        <pt x="123" y="636" on="1"/>
        <pt x="48" y="636" on="0"/>
        <pt x="-31" y="697" on="0"/>
        <pt x="-31" y="748" on="1"/>
        <pt x="12" y="748" on="1"/>
        <pt x="12" y="712" on="0"/>
        <pt x="69" y="672" on="0"/>
        <pt x="123" y="672" on="1"/>
        <pt x="177" y="672" on="0"/>
        <pt x="233" y="712" on="0"/>
        <pt x="233" y="748" on="1"/>
        <pt x="276" y="748" on="1"/>
        <pt x="276" y="697" on="0"/>
        <pt x="198" y="636" on="0"/>
      </contour>
    </TTGlyph>
    <TTGlyph name="Icircumflex" xMin="-30" yMin="0" xMax="290" yMax="942">
      <contour>
        <pt x="102" y="740" on="1"/>
        <pt x="156" y="740" on="1"/>
        <pt x="156" y="0" on="1"/>
        <pt x="102" y="0" on="1"/>
      </contour>
      <contour>
        <pt x="-30" y="869" on="1"/>
        <pt x="130" y="942" on="1"/>
        <pt x="290" y="869" on="1"/>
        <pt x="290" y="817" on="1"/>
        <pt x="130" y="890" on="1"/>
        <pt x="-30" y="817" on="1"/>
      </contour>
    </TTGlyph>
    <TTGlyph name="Icircumflex.sc" xMin="-17" yMin="0" xMax="264" yMax="740">
      <contour>
        <pt x="96" y="577" on="1"/>
        <pt x="150" y="577" on="1"/>
        <pt x="150" y="0" on="1"/>
        <pt x="96" y="0" on="1"/>
      </contour>
      <contour>
        <pt x="-17" y="682" on="1"/>
        <pt x="124" y="740" on="1"/>
        <pt x="264" y="682" on="1"/>
        <pt x="264" y="636" on="1"/>
        <pt x="124" y="693" on="1"/>
        <pt x="-17" y="636" on="1"/>
      </contour>
    </TTGlyph>
    <TTGlyph name="Idblgrave" xMin="-50" yMin="0" xMax="225" yMax="929">
      <contour>
        <pt x="102" y="740" on="1"/>
        <pt x="156" y="740" on="1"/>
        <pt x="156" y="0" on="1"/>
        <pt x="102" y="0" on="1"/>
      </contour>
      <contour>
        <pt x="40" y="795" on="1"/>
        <pt x="-50" y="929" on="1"/>
        <pt x="8" y="929" on="1"/>
        <pt x="85" y="809" on="1"/>
      </contour>
      <contour>
        <pt x="180" y="795" on="1"/>
        <pt x="90" y="929" on="1"/>
        <pt x="148" y="929" on="1"/>
        <pt x="225" y="809" on="1"/>
      </contour>
    </TTGlyph>
    <TTGlyph name="Idblgrave.sc" xMin="-35" yMin="0" xMax="210" yMax="730">
      <contour>
        <pt x="96" y="577" on="1"/>
        <pt x="150" y="577" on="1"/>
        <pt x="150" y="0" on="1"/>
        <pt x="96" y="0" on="1"/>
      </contour>
      <contour>
        <pt x="43" y="621" on="1"/>
        <pt x="-35" y="730" on="1"/>
        <pt x="21" y="730" on="1"/>
        <pt x="86" y="632" on="1"/>
      </contour>
      <contour>
        <pt x="167" y="621" on="1"/>
        <pt x="89" y="730" on="1"/>
        <pt x="145" y="730" on="1"/>
        <pt x="210" y="632" on="1"/>
      </contour>
    </TTGlyph>
    <TTGlyph name="Idieresis" xMin="-48" yMin="0" xMax="308" yMax="913">
      <contour>
        <pt x="102" y="740" on="1"/>
        <pt x="156" y="740" on="1"/>
        <pt x="156" y="0" on="1"/>
        <pt x="102" y="0" on="1"/>
      </contour>
      <contour>
        <pt x="-6" y="830" on="1"/>
        <pt x="-26" y="830" on="0"/>
        <pt x="-48" y="850" on="0"/>
        <pt x="-48" y="872" on="1"/>
        <pt x="-48" y="894" on="0"/>
        <pt x="-26" y="913" on="0"/>
        <pt x="-6" y="913" on="1"/>
        <pt x="12" y="913" on="0"/>
        <pt x="36" y="894" on="0"/>
        <pt x="36" y="872" on="1"/>
        <pt x="36" y="849" on="0"/>
        <pt x="12" y="830" on="0"/>
      </contour>
      <contour>
        <pt x="265" y="830" on="1"/>
        <pt x="245" y="830" on="0"/>
        <pt x="223" y="850" on="0"/>
        <pt x="223" y="872" on="1"/>
        <pt x="223" y="894" on="0"/>
        <pt x="245" y="913" on="0"/>
        <pt x="265" y="913" on="1"/>
        <pt x="284" y="913" on="0"/>
        <pt x="308" y="894" on="0"/>
        <pt x="308" y="872" on="1"/>
        <pt x="308" y="849" on="0"/>
        <pt x="284" y="830" on="0"/>
      </contour>
    </TTGlyph>
    <TTGlyph name="Idieresis.sc" xMin="-34" yMin="0" xMax="282" yMax="721">
      <contour>
        <pt x="96" y="577" on="1"/>
        <pt x="150" y="577" on="1"/>
        <pt x="150" y="0" on="1"/>
        <pt x="96" y="0" on="1"/>
      </contour>
      <contour>
        <pt x="5" y="646" on="1"/>
        <pt x="-34" y="646" on="0"/>
        <pt x="-34" y="683" on="1"/>
        <pt x="-34" y="721" on="0"/>
        <pt x="5" y="721" on="1"/>
        <pt x="22" y="721" on="0"/>
        <pt x="45" y="703" on="0"/>
        <pt x="45" y="683" on="1"/>
        <pt x="45" y="663" on="0"/>
        <pt x="22" y="646" on="0"/>
      </contour>
      <contour>
        <pt x="243" y="646" on="1"/>
        <pt x="204" y="646" on="0"/>
        <pt x="204" y="683" on="1"/>
        <pt x="204" y="721" on="0"/>
        <pt x="243" y="721" on="1"/>
        <pt x="260" y="721" on="0"/>
        <pt x="282" y="703" on="0"/>
        <pt x="282" y="683" on="1"/>
        <pt x="282" y="663" on="0"/>
        <pt x="260" y="646" on="0"/>
      </contour>
    </TTGlyph>
    <TTGlyph name="Idotaccent" xMin="88" yMin="0" xMax="173" yMax="908">
      <contour>
        <pt x="102" y="740" on="1"/>
        <pt x="156" y="740" on="1"/>
        <pt x="156" y="0" on="1"/>
        <pt x="102" y="0" on="1"/>
      </contour>
      <contour>
        <pt x="130" y="825" on="1"/>
        <pt x="110" y="825" on="0"/>
        <pt x="88" y="844" on="0"/>
        <pt x="88" y="866" on="1"/>
        <pt x="88" y="888" on="0"/>
        <pt x="110" y="908" on="0"/>
        <pt x="130" y="908" on="1"/>
        <pt x="148" y="908" on="0"/>
        <pt x="173" y="889" on="0"/>
        <pt x="173" y="866" on="1"/>
        <pt x="173" y="844" on="0"/>
        <pt x="148" y="825" on="0"/>
      </contour>
    </TTGlyph>
    <TTGlyph name="Idotaccent.sc" xMin="84" yMin="0" xMax="163" yMax="717">
      <contour>
        <pt x="96" y="577" on="1"/>
        <pt x="150" y="577" on="1"/>
        <pt x="150" y="0" on="1"/>
        <pt x="96" y="0" on="1"/>
      </contour>
      <contour>
        <pt x="124" y="643" on="1"/>
        <pt x="104" y="643" on="0"/>
        <pt x="84" y="660" on="0"/>
        <pt x="84" y="680" on="1"/>
        <pt x="84" y="717" on="0"/>
        <pt x="124" y="717" on="1"/>
        <pt x="141" y="717" on="0"/>
        <pt x="163" y="700" on="0"/>
        <pt x="163" y="680" on="1"/>
        <pt x="163" y="660" on="0"/>
        <pt x="141" y="643" on="0"/>
      </contour>
    </TTGlyph>
    <TTGlyph name="Idotbelow" xMin="87" yMin="-175" xMax="173" yMax="740">
      <contour>
        <pt x="102" y="740" on="1"/>
        <pt x="156" y="740" on="1"/>
        <pt x="156" y="0" on="1"/>
        <pt x="102" y="0" on="1"/>
      </contour>
      <contour>
        <pt x="129" y="-175" on="1"/>
        <pt x="109" y="-175" on="0"/>
        <pt x="87" y="-156" on="0"/>
        <pt x="87" y="-133" on="1"/>
        <pt x="87" y="-110" on="0"/>
        <pt x="109" y="-90" on="0"/>
        <pt x="129" y="-90" on="1"/>
        <pt x="149" y="-90" on="0"/>
        <pt x="173" y="-110" on="0"/>
        <pt x="173" y="-133" on="1"/>
        <pt x="173" y="-156" on="0"/>
        <pt x="149" y="-175" on="0"/>
      </contour>
    </TTGlyph>
    <TTGlyph name="Idotbelow.sc" xMin="86" yMin="-140" xMax="163" yMax="577">
      <contour>
        <pt x="96" y="577" on="1"/>
        <pt x="150" y="577" on="1"/>
        <pt x="150" y="0" on="1"/>
        <pt x="96" y="0" on="1"/>
      </contour>
      <contour>
        <pt x="124" y="-140" on="1"/>
        <pt x="86" y="-140" on="0"/>
        <pt x="86" y="-104" on="1"/>
        <pt x="86" y="-67" on="0"/>
        <pt x="124" y="-67" on="1"/>
        <pt x="142" y="-67" on="0"/>
        <pt x="163" y="-84" on="0"/>
        <pt x="163" y="-104" on="1"/>
        <pt x="163" y="-124" on="0"/>
        <pt x="142" y="-140" on="0"/>
      </contour>
    </TTGlyph>
    <TTGlyph name="Igrave" xMin="23" yMin="0" xMax="158" yMax="938">
      <contour>
        <pt x="102" y="740" on="1"/>
        <pt x="156" y="740" on="1"/>
        <pt x="156" y="0" on="1"/>
        <pt x="102" y="0" on="1"/>
      </contour>
      <contour>
        <pt x="113" y="804" on="1"/>
        <pt x="23" y="938" on="1"/>
        <pt x="81" y="938" on="1"/>
        <pt x="158" y="818" on="1"/>
      </contour>
    </TTGlyph>
    <TTGlyph name="Igrave.sc" xMin="29" yMin="0" xMax="151" yMax="736">
      <contour>
        <pt x="96" y="577" on="1"/>
        <pt x="150" y="577" on="1"/>
        <pt x="150" y="0" on="1"/>
        <pt x="96" y="0" on="1"/>
      </contour>
      <contour>
        <pt x="107" y="628" on="1"/>
        <pt x="29" y="736" on="1"/>
        <pt x="85" y="736" on="1"/>
        <pt x="151" y="639" on="1"/>
      </contour>
    </TTGlyph>
    <TTGlyph name="Iinvertedbreve" xMin="-45" yMin="0" xMax="304" yMax="955">
      <contour>
        <pt x="102" y="740" on="1"/>
        <pt x="156" y="740" on="1"/>
        <pt x="156" y="0" on="1"/>
        <pt x="102" y="0" on="1"/>
      </contour>
      <contour>
        <pt x="258" y="817" on="1"/>
        <pt x="258" y="862" on="0"/>
        <pt x="191" y="914" on="0"/>
        <pt x="129" y="914" on="1"/>
        <pt x="68" y="914" on="0"/>
        <pt x="1" y="862" on="0"/>
        <pt x="1" y="817" on="1"/>
        <pt x="-45" y="817" on="1"/>
        <pt x="-45" y="880" on="0"/>
        <pt x="45" y="955" on="0"/>
        <pt x="129" y="955" on="1"/>
        <pt x="214" y="955" on="0"/>
        <pt x="304" y="880" on="0"/>
        <pt x="304" y="817" on="1"/>
      </contour>
    </TTGlyph>
    <TTGlyph name="Iinvertedbreve.sc" xMin="-30" yMin="0" xMax="277" yMax="749">
      <contour>
        <pt x="96" y="577" on="1"/>
        <pt x="150" y="577" on="1"/>
        <pt x="150" y="0" on="1"/>
        <pt x="96" y="0" on="1"/>
      </contour>
      <contour>
        <pt x="234" y="637" on="1"/>
        <pt x="234" y="672" on="0"/>
        <pt x="177" y="712" on="0"/>
        <pt x="123" y="712" on="1"/>
        <pt x="69" y="712" on="0"/>
        <pt x="13" y="672" on="0"/>
        <pt x="13" y="637" on="1"/>
        <pt x="-30" y="637" on="1"/>
        <pt x="-30" y="688" on="0"/>
        <pt x="48" y="749" on="0"/>
        <pt x="123" y="749" on="1"/>
        <pt x="198" y="749" on="0"/>
        <pt x="277" y="688" on="0"/>
        <pt x="277" y="637" on="1"/>
      </contour>
    </TTGlyph>
    <TTGlyph name="Imacron" xMin="-27" yMin="0" xMax="288" yMax="888">
      <contour>
        <pt x="102" y="740" on="1"/>
        <pt x="156" y="740" on="1"/>
        <pt x="156" y="0" on="1"/>
        <pt x="102" y="0" on="1"/>
      </contour>
      <contour>
        <pt x="-27" y="888" on="1"/>
        <pt x="288" y="888" on="1"/>
        <pt x="288" y="842" on="1"/>
        <pt x="-27" y="842" on="1"/>
      </contour>
    </TTGlyph>
    <TTGlyph name="Imacron.sc" xMin="-14" yMin="0" xMax="264" yMax="699">
      <contour>
        <pt x="96" y="577" on="1"/>
        <pt x="150" y="577" on="1"/>
        <pt x="150" y="0" on="1"/>
        <pt x="96" y="0" on="1"/>
      </contour>
      <contour>
        <pt x="-14" y="699" on="1"/>
        <pt x="264" y="699" on="1"/>
        <pt x="264" y="657" on="1"/>
        <pt x="-14" y="657" on="1"/>
      </contour>
    </TTGlyph>
    <TTGlyph name="Iogonek" xMin="-11" yMin="-220" xMax="156" yMax="740">
      <contour>
        <pt x="102" y="740" on="1"/>
        <pt x="156" y="740" on="1"/>
        <pt x="156" y="-22" on="1"/>
        <pt x="90" y="-54" on="0"/>
        <pt x="33" y="-110" on="0"/>
        <pt x="33" y="-142" on="1"/>
        <pt x="33" y="-182" on="0"/>
        <pt x="86" y="-182" on="1"/>
        <pt x="116" y="-182" on="0"/>
        <pt x="155" y="-171" on="1"/>
        <pt x="155" y="-208" on="1"/>
        <pt x="140" y="-213" on="0"/>
        <pt x="100" y="-220" on="0"/>
        <pt x="80" y="-220" on="1"/>
        <pt x="32" y="-220" on="0"/>
        <pt x="-11" y="-183" on="0"/>
        <pt x="-11" y="-144" on="1"/>
        <pt x="-11" y="-124" on="0"/>
        <pt x="1" y="-89" on="0"/>
        <pt x="29" y="-56" on="0"/>
        <pt x="76" y="-21" on="0"/>
        <pt x="111" y="0" on="1"/>
        <pt x="102" y="0" on="1"/>
      </contour>
    </TTGlyph>
    <TTGlyph name="Iogonek.sc" xMin="1" yMin="-172" xMax="150" yMax="577">
      <contour>
        <pt x="96" y="577" on="1"/>
        <pt x="150" y="577" on="1"/>
        <pt x="150" y="-16" on="1"/>
        <pt x="98" y="-38" on="0"/>
        <pt x="43" y="-79" on="0"/>
        <pt x="43" y="-107" on="1"/>
        <pt x="43" y="-125" on="0"/>
        <pt x="66" y="-137" on="0"/>
        <pt x="87" y="-137" on="1"/>
        <pt x="118" y="-137" on="0"/>
        <pt x="148" y="-129" on="1"/>
        <pt x="148" y="-162" on="1"/>
        <pt x="120" y="-172" on="0"/>
        <pt x="81" y="-172" on="1"/>
        <pt x="1" y="-172" on="0"/>
        <pt x="1" y="-111" on="1"/>
        <pt x="1" y="-96" on="0"/>
        <pt x="10" y="-70" on="0"/>
        <pt x="33" y="-45" on="0"/>
        <pt x="72" y="-17" on="0"/>
        <pt x="103" y="0" on="1"/>
        <pt x="96" y="0" on="1"/>
      </contour>
    </TTGlyph>
    <TTGlyph name="Itilde" xMin="-63" yMin="0" xMax="348" yMax="924">
      <contour>
        <pt x="102" y="740" on="1"/>
        <pt x="156" y="740" on="1"/>
        <pt x="156" y="0" on="1"/>
        <pt x="102" y="0" on="1"/>
      </contour>
      <contour>
        <pt x="-63" y="867" on="1"/>
        <pt x="-6" y="924" on="0"/>
        <pt x="58" y="924" on="1"/>
        <pt x="82" y="924" on="0"/>
        <pt x="124" y="911" on="0"/>
        <pt x="164" y="895" on="0"/>
        <pt x="203" y="882" on="0"/>
        <pt x="226" y="882" on="1"/>
        <pt x="277" y="882" on="0"/>
        <pt x="324" y="920" on="1"/>
        <pt x="348" y="894" on="1"/>
        <pt x="321" y="867" on="0"/>
        <pt x="254" y="837" on="0"/>
        <pt x="219" y="837" on="1"/>
        <pt x="198" y="837" on="0"/>
        <pt x="156" y="850" on="0"/>
        <pt x="115" y="866" on="0"/>
        <pt x="75" y="879" on="0"/>
        <pt x="55" y="879" on="1"/>
        <pt x="31" y="879" on="0"/>
        <pt x="-15" y="862" on="0"/>
        <pt x="-39" y="842" on="1"/>
      </contour>
    </TTGlyph>
    <TTGlyph name="Itilde.sc" xMin="-46" yMin="0" xMax="314" yMax="727">
      <contour>
        <pt x="96" y="577" on="1"/>
        <pt x="150" y="577" on="1"/>
        <pt x="150" y="0" on="1"/>
        <pt x="96" y="0" on="1"/>
      </contour>
      <contour>
        <pt x="-46" y="677" on="1"/>
        <pt x="4" y="727" on="0"/>
        <pt x="60" y="727" on="1"/>
        <pt x="81" y="727" on="0"/>
        <pt x="118" y="717" on="0"/>
        <pt x="153" y="704" on="0"/>
        <pt x="188" y="694" on="0"/>
        <pt x="208" y="694" on="1"/>
        <pt x="251" y="694" on="0"/>
        <pt x="294" y="723" on="1"/>
        <pt x="314" y="703" on="1"/>
        <pt x="290" y="679" on="0"/>
        <pt x="231" y="653" on="0"/>
        <pt x="200" y="653" on="1"/>
        <pt x="182" y="653" on="0"/>
        <pt x="145" y="663" on="0"/>
        <pt x="109" y="675" on="0"/>
        <pt x="73" y="685" on="0"/>
        <pt x="55" y="685" on="1"/>
        <pt x="35" y="685" on="0"/>
        <pt x="-5" y="672" on="0"/>
        <pt x="-26" y="656" on="1"/>
      </contour>
    </TTGlyph>
    <TTGlyph name="J" xMin="25" yMin="-181" xMax="158" yMax="740">
      <contour>
        <pt x="25" y="-161" on="1"/>
        <pt x="47" y="-115" on="0"/>
        <pt x="78" y="-34" on="0"/>
        <pt x="96" y="46" on="0"/>
        <pt x="104" y="131" on="0"/>
        <pt x="104" y="182" on="1"/>
        <pt x="104" y="740" on="1"/>
        <pt x="158" y="740" on="1"/>
        <pt x="158" y="180" on="1"/>
        <pt x="158" y="130" on="0"/>
        <pt x="150" y="47" on="0"/>
        <pt x="129" y="-35" on="0"/>
        <pt x="94" y="-125" on="0"/>
        <pt x="67" y="-181" on="1"/>
      </contour>
    </TTGlyph>
    <TTGlyph name="J.sc" xMin="31" yMin="-144" xMax="152" yMax="577">
      <contour>
        <pt x="31" y="-125" on="1"/>
        <pt x="50" y="-89" on="0"/>
        <pt x="76" y="-27" on="0"/>
        <pt x="91" y="36" on="0"/>
        <pt x="98" y="103" on="0"/>
        <pt x="98" y="143" on="1"/>
        <pt x="98" y="577" on="1"/>
        <pt x="152" y="577" on="1"/>
        <pt x="152" y="141" on="1"/>
        <pt x="152" y="102" on="0"/>
        <pt x="144" y="37" on="0"/>
        <pt x="126" y="-28" on="0"/>
        <pt x="95" y="-99" on="0"/>
        <pt x="71" y="-144" on="1"/>
      </contour>
    </TTGlyph>
    <TTGlyph name="Jcircumflex" xMin="-26" yMin="-181" xMax="294" yMax="942">
      <contour>
        <pt x="25" y="-161" on="1"/>
        <pt x="47" y="-115" on="0"/>
        <pt x="78" y="-34" on="0"/>
        <pt x="96" y="46" on="0"/>
        <pt x="104" y="131" on="0"/>
        <pt x="104" y="182" on="1"/>
        <pt x="104" y="740" on="1"/>
        <pt x="158" y="740" on="1"/>
        <pt x="158" y="180" on="1"/>
        <pt x="158" y="130" on="0"/>
        <pt x="150" y="47" on="0"/>
        <pt x="129" y="-35" on="0"/>
        <pt x="94" y="-125" on="0"/>
        <pt x="67" y="-181" on="1"/>
      </contour>
      <contour>
        <pt x="-26" y="869" on="1"/>
        <pt x="134" y="942" on="1"/>
        <pt x="294" y="869" on="1"/>
        <pt x="294" y="817" on="1"/>
        <pt x="134" y="890" on="1"/>
        <pt x="-26" y="817" on="1"/>
      </contour>
    </TTGlyph>
    <TTGlyph name="Jcircumflex.sc" xMin="-14" yMin="-144" xMax="267" yMax="740">
      <contour>
        <pt x="30" y="-125" on="1"/>
        <pt x="49" y="-89" on="0"/>
        <pt x="75" y="-27" on="0"/>
        <pt x="90" y="36" on="0"/>
        <pt x="97" y="103" on="0"/>
        <pt x="97" y="143" on="1"/>
        <pt x="97" y="577" on="1"/>
        <pt x="151" y="577" on="1"/>
        <pt x="151" y="141" on="1"/>
        <pt x="151" y="102" on="0"/>
        <pt x="143" y="37" on="0"/>
        <pt x="125" y="-28" on="0"/>
        <pt x="94" y="-99" on="0"/>
        <pt x="70" y="-144" on="1"/>
      </contour>
      <contour>
        <pt x="-14" y="682" on="1"/>
        <pt x="126" y="740" on="1"/>
        <pt x="267" y="682" on="1"/>
        <pt x="267" y="636" on="1"/>
        <pt x="127" y="693" on="1"/>
        <pt x="-14" y="636" on="1"/>
      </contour>
    </TTGlyph>
    <TTGlyph name="K" xMin="102" yMin="0" xMax="662" yMax="740">
      <contour>
        <pt x="102" y="740" on="1"/>
        <pt x="156" y="740" on="1"/>
        <pt x="156" y="402" on="1"/>
        <pt x="335" y="402" on="1"/>
        <pt x="581" y="740" on="1"/>
        <pt x="645" y="740" on="1"/>
        <pt x="403" y="408" on="1"/>
        <pt x="376" y="383" on="1"/>
        <pt x="376" y="377" on="1"/>
        <pt x="406" y="353" on="1"/>
        <pt x="662" y="0" on="1"/>
        <pt x="598" y="0" on="1"/>
        <pt x="342" y="354" on="1"/>
        <pt x="156" y="354" on="1"/>
        <pt x="156" y="0" on="1"/>
        <pt x="102" y="0" on="1"/>
      </contour>
    </TTGlyph>
    <TTGlyph name="K.sc" xMin="96" yMin="0" xMax="587" yMax="577">
      <contour>
        <pt x="96" y="577" on="1"/>
        <pt x="150" y="577" on="1"/>
        <pt x="150" y="317" on="1"/>
        <pt x="303" y="317" on="1"/>
        <pt x="509" y="577" on="1"/>
        <pt x="572" y="577" on="1"/>
        <pt x="367" y="319" on="1"/>
        <pt x="342" y="300" on="1"/>
        <pt x="342" y="295" on="1"/>
        <pt x="369" y="276" on="1"/>
        <pt x="587" y="0" on="1"/>
        <pt x="523" y="0" on="1"/>
        <pt x="309" y="272" on="1"/>
        <pt x="150" y="272" on="1"/>
        <pt x="150" y="0" on="1"/>
        <pt x="96" y="0" on="1"/>
      </contour>
    </TTGlyph>
    <TTGlyph name="Kcommaaccent" xMin="102" yMin="-220" xMax="662" yMax="740">
      <contour>
        <pt x="332" y="-70" on="1"/>
        <pt x="390" y="-70" on="1"/>
        <pt x="331" y="-220" on="1"/>
        <pt x="282" y="-220" on="1"/>
      </contour>
      <contour>
        <pt x="102" y="740" on="1"/>
        <pt x="156" y="740" on="1"/>
        <pt x="156" y="402" on="1"/>
        <pt x="335" y="402" on="1"/>
        <pt x="581" y="740" on="1"/>
        <pt x="645" y="740" on="1"/>
        <pt x="403" y="408" on="1"/>
        <pt x="376" y="383" on="1"/>
        <pt x="376" y="377" on="1"/>
        <pt x="406" y="353" on="1"/>
        <pt x="662" y="0" on="1"/>
        <pt x="598" y="0" on="1"/>
        <pt x="342" y="354" on="1"/>
        <pt x="156" y="354" on="1"/>
        <pt x="156" y="0" on="1"/>
        <pt x="102" y="0" on="1"/>
      </contour>
    </TTGlyph>
    <TTGlyph name="Kcommaaccent.sc" xMin="96" yMin="-172" xMax="587" yMax="577">
      <contour>
        <pt x="96" y="577" on="1"/>
        <pt x="150" y="577" on="1"/>
        <pt x="150" y="317" on="1"/>
        <pt x="303" y="317" on="1"/>
        <pt x="509" y="577" on="1"/>
        <pt x="572" y="577" on="1"/>
        <pt x="367" y="319" on="1"/>
        <pt x="342" y="300" on="1"/>
        <pt x="342" y="295" on="1"/>
        <pt x="369" y="276" on="1"/>
        <pt x="587" y="0" on="1"/>
        <pt x="523" y="0" on="1"/>
        <pt x="309" y="272" on="1"/>
        <pt x="150" y="272" on="1"/>
        <pt x="150" y="0" on="1"/>
        <pt x="96" y="0" on="1"/>
      </contour>
      <contour>
        <pt x="298" y="-55" on="1"/>
        <pt x="354" y="-55" on="1"/>
        <pt x="302" y="-172" on="1"/>
        <pt x="256" y="-172" on="1"/>
      </contour>
    </TTGlyph>
    <TTGlyph name="L" xMin="102" yMin="0" xMax="533" yMax="740">
      <contour>
        <pt x="102" y="740" on="1"/>
        <pt x="156" y="740" on="1"/>
        <pt x="156" y="48" on="1"/>
        <pt x="533" y="48" on="1"/>
        <pt x="533" y="0" on="1"/>
        <pt x="102" y="0" on="1"/>
      </contour>
    </TTGlyph>
    <TTGlyph name="L.sc" xMin="96" yMin="0" xMax="475" yMax="577">
      <contour>
        <pt x="96" y="577" on="1"/>
        <pt x="150" y="577" on="1"/>
        <pt x="150" y="46" on="1"/>
        <pt x="475" y="46" on="1"/>
        <pt x="475" y="0" on="1"/>
        <pt x="96" y="0" on="1"/>
      </contour>
    </TTGlyph>
    <TTGlyph name="Lacute" xMin="102" yMin="0" xMax="533" yMax="938">
      <contour>
        <pt x="103" y="811" on="1"/>
        <pt x="181" y="938" on="1"/>
        <pt x="239" y="938" on="1"/>
        <pt x="149" y="804" on="1"/>
      </contour>
      <contour>
        <pt x="102" y="740" on="1"/>
        <pt x="156" y="740" on="1"/>
        <pt x="156" y="48" on="1"/>
        <pt x="533" y="48" on="1"/>
        <pt x="533" y="0" on="1"/>
        <pt x="102" y="0" on="1"/>
      </contour>
    </TTGlyph>
    <TTGlyph name="Lacute.sc" xMin="96" yMin="0" xMax="476" yMax="736">
      <contour>
        <pt x="96" y="577" on="1"/>
        <pt x="150" y="577" on="1"/>
        <pt x="150" y="46" on="1"/>
        <pt x="476" y="46" on="1"/>
        <pt x="476" y="0" on="1"/>
        <pt x="96" y="0" on="1"/>
      </contour>
      <contour>
        <pt x="98" y="634" on="1"/>
        <pt x="164" y="736" on="1"/>
        <pt x="220" y="736" on="1"/>
        <pt x="142" y="628" on="1"/>
      </contour>
    </TTGlyph>
    <TTGlyph name="Lcaron" xMin="102" yMin="0" xMax="533" yMax="747">
      <contour>
        <pt x="415" y="747" on="1"/>
        <pt x="463" y="747" on="1"/>
        <pt x="440" y="519" on="1"/>
        <pt x="415" y="519" on="1"/>
      </contour>
      <contour>
        <pt x="102" y="740" on="1"/>
        <pt x="156" y="740" on="1"/>
        <pt x="156" y="48" on="1"/>
        <pt x="533" y="48" on="1"/>
        <pt x="533" y="0" on="1"/>
        <pt x="102" y="0" on="1"/>
      </contour>
    </TTGlyph>
    <TTGlyph name="Lcaron.sc" xMin="96" yMin="0" xMax="475" yMax="586">
      <contour>
        <pt x="96" y="577" on="1"/>
        <pt x="150" y="577" on="1"/>
        <pt x="150" y="46" on="1"/>
        <pt x="475" y="46" on="1"/>
        <pt x="475" y="0" on="1"/>
        <pt x="96" y="0" on="1"/>
      </contour>
      <contour>
        <pt x="369" y="586" on="1"/>
        <pt x="415" y="586" on="1"/>
        <pt x="394" y="408" on="1"/>
        <pt x="369" y="408" on="1"/>
      </contour>
    </TTGlyph>
    <TTGlyph name="Lcommaaccent" xMin="102" yMin="-220" xMax="533" yMax="740">
      <contour>
        <pt x="298" y="-70" on="1"/>
        <pt x="356" y="-70" on="1"/>
        <pt x="297" y="-220" on="1"/>
        <pt x="248" y="-220" on="1"/>
      </contour>
      <contour>
        <pt x="102" y="740" on="1"/>
        <pt x="156" y="740" on="1"/>
        <pt x="156" y="48" on="1"/>
        <pt x="533" y="48" on="1"/>
        <pt x="533" y="0" on="1"/>
        <pt x="102" y="0" on="1"/>
      </contour>
    </TTGlyph>
    <TTGlyph name="Lcommaaccent.sc" xMin="96" yMin="-172" xMax="475" yMax="577">
      <contour>
        <pt x="96" y="577" on="1"/>
        <pt x="150" y="577" on="1"/>
        <pt x="150" y="46" on="1"/>
        <pt x="475" y="46" on="1"/>
        <pt x="475" y="0" on="1"/>
        <pt x="96" y="0" on="1"/>
      </contour>
      <contour>
        <pt x="263" y="-55" on="1"/>
        <pt x="320" y="-55" on="1"/>
        <pt x="267" y="-172" on="1"/>
        <pt x="221" y="-172" on="1"/>
      </contour>
    </TTGlyph>
    <TTGlyph name="Ldot" xMin="102" yMin="0" xMax="533" yMax="740">
      <contour>
        <pt x="102" y="740" on="1"/>
        <pt x="156" y="740" on="1"/>
        <pt x="156" y="48" on="1"/>
        <pt x="533" y="48" on="1"/>
        <pt x="533" y="0" on="1"/>
        <pt x="102" y="0" on="1"/>
      </contour>
      <contour>
        <pt x="456" y="331" on="1"/>
        <pt x="436" y="331" on="0"/>
        <pt x="414" y="351" on="0"/>
        <pt x="414" y="373" on="1"/>
        <pt x="414" y="395" on="0"/>
        <pt x="436" y="415" on="0"/>
        <pt x="456" y="415" on="1"/>
        <pt x="474" y="415" on="0"/>
        <pt x="499" y="396" on="0"/>
        <pt x="499" y="373" on="1"/>
        <pt x="499" y="351" on="0"/>
        <pt x="474" y="331" on="0"/>
      </contour>
    </TTGlyph>
    <TTGlyph name="Ldot.sc" xMin="96" yMin="0" xMax="475" yMax="577">
      <contour>
        <pt x="96" y="577" on="1"/>
        <pt x="150" y="577" on="1"/>
        <pt x="150" y="46" on="1"/>
        <pt x="475" y="46" on="1"/>
        <pt x="475" y="0" on="1"/>
        <pt x="96" y="0" on="1"/>
      </contour>
      <contour>
        <pt x="409" y="256" on="1"/>
        <pt x="369" y="256" on="0"/>
        <pt x="369" y="293" on="1"/>
        <pt x="369" y="331" on="0"/>
        <pt x="409" y="331" on="1"/>
        <pt x="426" y="331" on="0"/>
        <pt x="448" y="313" on="0"/>
        <pt x="448" y="293" on="1"/>
        <pt x="448" y="273" on="0"/>
        <pt x="426" y="256" on="0"/>
      </contour>
    </TTGlyph>
    <TTGlyph name="Lslash" xMin="17" yMin="0" xMax="555" yMax="740">
      <contour>
        <pt x="17" y="277" on="1"/>
        <pt x="124" y="343" on="1"/>
        <pt x="124" y="740" on="1"/>
        <pt x="178" y="740" on="1"/>
        <pt x="178" y="376" on="1"/>
        <pt x="370" y="495" on="1"/>
        <pt x="370" y="444" on="1"/>
        <pt x="178" y="325" on="1"/>
        <pt x="178" y="48" on="1"/>
        <pt x="555" y="48" on="1"/>
        <pt x="555" y="0" on="1"/>
        <pt x="124" y="0" on="1"/>
        <pt x="124" y="291" on="1"/>
        <pt x="17" y="225" on="1"/>
      </contour>
    </TTGlyph>
    <TTGlyph name="Lslash.sc" xMin="25" yMin="0" xMax="494" yMax="577">
      <contour>
        <pt x="25" y="223" on="1"/>
        <pt x="115" y="273" on="1"/>
        <pt x="115" y="577" on="1"/>
        <pt x="168" y="577" on="1"/>
        <pt x="168" y="298" on="1"/>
        <pt x="335" y="391" on="1"/>
        <pt x="335" y="345" on="1"/>
        <pt x="168" y="252" on="1"/>
        <pt x="168" y="46" on="1"/>
        <pt x="494" y="46" on="1"/>
        <pt x="494" y="0" on="1"/>
        <pt x="115" y="0" on="1"/>
        <pt x="115" y="226" on="1"/>
        <pt x="25" y="176" on="1"/>
      </contour>
    </TTGlyph>
    <TTGlyph name="M" xMin="102" yMin="0" xMax="843" yMax="740">
      <contour>
        <pt x="102" y="740" on="1"/>
        <pt x="179" y="740" on="1"/>
        <pt x="391" y="269" on="1"/>
        <pt x="469" y="85" on="1"/>
        <pt x="475" y="85" on="1"/>
        <pt x="554" y="269" on="1"/>
        <pt x="766" y="740" on="1"/>
        <pt x="843" y="740" on="1"/>
        <pt x="843" y="0" on="1"/>
        <pt x="791" y="0" on="1"/>
        <pt x="791" y="668" on="1"/>
        <pt x="786" y="668" on="1"/>
        <pt x="679" y="420" on="1"/>
        <pt x="500" y="27" on="1"/>
        <pt x="445" y="27" on="1"/>
        <pt x="266" y="420" on="1"/>
        <pt x="158" y="668" on="1"/>
        <pt x="154" y="668" on="1"/>
        <pt x="154" y="0" on="1"/>
        <pt x="102" y="0" on="1"/>
      </contour>
    </TTGlyph>
    <TTGlyph name="M.sc" xMin="96" yMin="0" xMax="743" yMax="577">
      <contour>
        <pt x="96" y="577" on="1"/>
        <pt x="169" y="577" on="1"/>
        <pt x="349" y="223" on="1"/>
        <pt x="416" y="79" on="1"/>
        <pt x="422" y="79" on="1"/>
        <pt x="490" y="223" on="1"/>
        <pt x="671" y="577" on="1"/>
        <pt x="743" y="577" on="1"/>
        <pt x="743" y="0" on="1"/>
        <pt x="693" y="0" on="1"/>
        <pt x="693" y="513" on="1"/>
        <pt x="688" y="513" on="1"/>
        <pt x="594" y="314" on="1"/>
        <pt x="446" y="23" on="1"/>
        <pt x="393" y="23" on="1"/>
        <pt x="245" y="314" on="1"/>
        <pt x="151" y="513" on="1"/>
        <pt x="146" y="513" on="1"/>
        <pt x="146" y="0" on="1"/>
        <pt x="96" y="0" on="1"/>
      </contour>
    </TTGlyph>
    <TTGlyph name="N" xMin="102" yMin="0" xMax="705" yMax="740">
      <contour>
        <pt x="102" y="740" on="1"/>
        <pt x="151" y="740" on="1"/>
        <pt x="584" y="175" on="1"/>
        <pt x="649" y="84" on="1"/>
        <pt x="654" y="84" on="1"/>
        <pt x="654" y="740" on="1"/>
        <pt x="705" y="740" on="1"/>
        <pt x="705" y="0" on="1"/>
        <pt x="655" y="0" on="1"/>
        <pt x="217" y="571" on="1"/>
        <pt x="158" y="654" on="1"/>
        <pt x="153" y="654" on="1"/>
        <pt x="153" y="0" on="1"/>
        <pt x="102" y="0" on="1"/>
      </contour>
    </TTGlyph>
    <TTGlyph name="N.sc" xMin="96" yMin="0" xMax="619" yMax="577">
      <contour>
        <pt x="96" y="577" on="1"/>
        <pt x="142" y="577" on="1"/>
        <pt x="508" y="150" on="1"/>
        <pt x="564" y="78" on="1"/>
        <pt x="569" y="78" on="1"/>
        <pt x="569" y="577" on="1"/>
        <pt x="619" y="577" on="1"/>
        <pt x="619" y="0" on="1"/>
        <pt x="573" y="0" on="1"/>
        <pt x="203" y="431" on="1"/>
        <pt x="151" y="498" on="1"/>
        <pt x="146" y="498" on="1"/>
        <pt x="146" y="0" on="1"/>
        <pt x="96" y="0" on="1"/>
      </contour>
    </TTGlyph>
    <TTGlyph name="Nacute" xMin="102" yMin="0" xMax="705" yMax="938">
      <contour>
        <pt x="369" y="811" on="1"/>
        <pt x="447" y="938" on="1"/>
        <pt x="505" y="938" on="1"/>
        <pt x="415" y="804" on="1"/>
      </contour>
      <contour>
        <pt x="102" y="740" on="1"/>
        <pt x="151" y="740" on="1"/>
        <pt x="584" y="175" on="1"/>
        <pt x="649" y="84" on="1"/>
        <pt x="654" y="84" on="1"/>
        <pt x="654" y="740" on="1"/>
        <pt x="705" y="740" on="1"/>
        <pt x="705" y="0" on="1"/>
        <pt x="655" y="0" on="1"/>
        <pt x="217" y="571" on="1"/>
        <pt x="158" y="654" on="1"/>
        <pt x="153" y="654" on="1"/>
        <pt x="153" y="0" on="1"/>
        <pt x="102" y="0" on="1"/>
      </contour>
    </TTGlyph>
    <TTGlyph name="Nacute.sc" xMin="96" yMin="0" xMax="619" yMax="736">
      <contour>
        <pt x="96" y="577" on="1"/>
        <pt x="142" y="577" on="1"/>
        <pt x="508" y="150" on="1"/>
        <pt x="564" y="78" on="1"/>
        <pt x="569" y="78" on="1"/>
        <pt x="569" y="577" on="1"/>
        <pt x="619" y="577" on="1"/>
        <pt x="619" y="0" on="1"/>
        <pt x="573" y="0" on="1"/>
        <pt x="203" y="431" on="1"/>
        <pt x="151" y="498" on="1"/>
        <pt x="146" y="498" on="1"/>
        <pt x="146" y="0" on="1"/>
        <pt x="96" y="0" on="1"/>
      </contour>
      <contour>
        <pt x="326" y="634" on="1"/>
        <pt x="391" y="736" on="1"/>
        <pt x="447" y="736" on="1"/>
        <pt x="369" y="628" on="1"/>
      </contour>
    </TTGlyph>
    <TTGlyph name="Ncaron" xMin="102" yMin="0" xMax="705" yMax="942">
      <contour>
        <pt x="243" y="942" on="1"/>
        <pt x="403" y="869" on="1"/>
        <pt x="562" y="942" on="1"/>
        <pt x="562" y="890" on="1"/>
        <pt x="402" y="817" on="1"/>
        <pt x="243" y="890" on="1"/>
      </contour>
      <contour>
        <pt x="102" y="740" on="1"/>
        <pt x="151" y="740" on="1"/>
        <pt x="584" y="175" on="1"/>
        <pt x="649" y="84" on="1"/>
        <pt x="654" y="84" on="1"/>
        <pt x="654" y="740" on="1"/>
        <pt x="705" y="740" on="1"/>
        <pt x="705" y="0" on="1"/>
        <pt x="655" y="0" on="1"/>
        <pt x="217" y="571" on="1"/>
        <pt x="158" y="654" on="1"/>
        <pt x="153" y="654" on="1"/>
        <pt x="153" y="0" on="1"/>
        <pt x="102" y="0" on="1"/>
      </contour>
    </TTGlyph>
    <TTGlyph name="Ncaron.sc" xMin="96" yMin="0" xMax="619" yMax="740">
      <contour>
        <pt x="96" y="577" on="1"/>
        <pt x="142" y="577" on="1"/>
        <pt x="508" y="150" on="1"/>
        <pt x="564" y="78" on="1"/>
        <pt x="569" y="78" on="1"/>
        <pt x="569" y="577" on="1"/>
        <pt x="619" y="577" on="1"/>
        <pt x="619" y="0" on="1"/>
        <pt x="573" y="0" on="1"/>
        <pt x="203" y="431" on="1"/>
        <pt x="151" y="498" on="1"/>
        <pt x="146" y="498" on="1"/>
        <pt x="146" y="0" on="1"/>
        <pt x="96" y="0" on="1"/>
      </contour>
      <contour>
        <pt x="216" y="694" on="1"/>
        <pt x="216" y="740" on="1"/>
        <pt x="357" y="683" on="1"/>
        <pt x="498" y="740" on="1"/>
        <pt x="498" y="694" on="1"/>
        <pt x="356" y="637" on="1"/>
      </contour>
    </TTGlyph>
    <TTGlyph name="Ncommaaccent" xMin="102" yMin="-220" xMax="705" yMax="740">
      <contour>
        <pt x="390" y="-70" on="1"/>
        <pt x="448" y="-70" on="1"/>
        <pt x="389" y="-220" on="1"/>
        <pt x="340" y="-220" on="1"/>
      </contour>
      <contour>
        <pt x="102" y="740" on="1"/>
        <pt x="151" y="740" on="1"/>
        <pt x="584" y="175" on="1"/>
        <pt x="649" y="84" on="1"/>
        <pt x="654" y="84" on="1"/>
        <pt x="654" y="740" on="1"/>
        <pt x="705" y="740" on="1"/>
        <pt x="705" y="0" on="1"/>
        <pt x="655" y="0" on="1"/>
        <pt x="217" y="571" on="1"/>
        <pt x="158" y="654" on="1"/>
        <pt x="153" y="654" on="1"/>
        <pt x="153" y="0" on="1"/>
        <pt x="102" y="0" on="1"/>
      </contour>
    </TTGlyph>
    <TTGlyph name="Ncommaaccent.sc" xMin="96" yMin="-172" xMax="619" yMax="577">
      <contour>
        <pt x="96" y="577" on="1"/>
        <pt x="142" y="577" on="1"/>
        <pt x="508" y="150" on="1"/>
        <pt x="564" y="78" on="1"/>
        <pt x="569" y="78" on="1"/>
        <pt x="569" y="577" on="1"/>
        <pt x="619" y="577" on="1"/>
        <pt x="619" y="0" on="1"/>
        <pt x="573" y="0" on="1"/>
        <pt x="203" y="431" on="1"/>
        <pt x="151" y="498" on="1"/>
        <pt x="146" y="498" on="1"/>
        <pt x="146" y="0" on="1"/>
        <pt x="96" y="0" on="1"/>
      </contour>
      <contour>
        <pt x="341" y="-55" on="1"/>
        <pt x="398" y="-55" on="1"/>
        <pt x="345" y="-172" on="1"/>
        <pt x="299" y="-172" on="1"/>
      </contour>
    </TTGlyph>
    <TTGlyph name="Ndotaccent" xMin="102" yMin="0" xMax="705" yMax="908">
      <contour>
        <pt x="403" y="825" on="1"/>
        <pt x="383" y="825" on="0"/>
        <pt x="361" y="844" on="0"/>
        <pt x="361" y="866" on="1"/>
        <pt x="361" y="888" on="0"/>
        <pt x="383" y="908" on="0"/>
        <pt x="403" y="908" on="1"/>
        <pt x="421" y="908" on="0"/>
        <pt x="446" y="889" on="0"/>
        <pt x="446" y="866" on="1"/>
        <pt x="446" y="844" on="0"/>
        <pt x="421" y="825" on="0"/>
      </contour>
      <contour>
        <pt x="102" y="740" on="1"/>
        <pt x="151" y="740" on="1"/>
        <pt x="584" y="175" on="1"/>
        <pt x="649" y="84" on="1"/>
        <pt x="654" y="84" on="1"/>
        <pt x="654" y="740" on="1"/>
        <pt x="705" y="740" on="1"/>
        <pt x="705" y="0" on="1"/>
        <pt x="655" y="0" on="1"/>
        <pt x="217" y="571" on="1"/>
        <pt x="158" y="654" on="1"/>
        <pt x="153" y="654" on="1"/>
        <pt x="153" y="0" on="1"/>
        <pt x="102" y="0" on="1"/>
      </contour>
    </TTGlyph>
    <TTGlyph name="Ndotaccent.sc" xMin="96" yMin="0" xMax="619" yMax="717">
      <contour>
        <pt x="96" y="577" on="1"/>
        <pt x="142" y="577" on="1"/>
        <pt x="508" y="150" on="1"/>
        <pt x="564" y="78" on="1"/>
        <pt x="569" y="78" on="1"/>
        <pt x="569" y="577" on="1"/>
        <pt x="619" y="577" on="1"/>
        <pt x="619" y="0" on="1"/>
        <pt x="573" y="0" on="1"/>
        <pt x="203" y="431" on="1"/>
        <pt x="151" y="498" on="1"/>
        <pt x="146" y="498" on="1"/>
        <pt x="146" y="0" on="1"/>
        <pt x="96" y="0" on="1"/>
      </contour>
      <contour>
        <pt x="357" y="643" on="1"/>
        <pt x="338" y="643" on="0"/>
        <pt x="318" y="660" on="0"/>
        <pt x="318" y="680" on="1"/>
        <pt x="318" y="717" on="0"/>
        <pt x="357" y="717" on="1"/>
        <pt x="375" y="717" on="0"/>
        <pt x="397" y="700" on="0"/>
        <pt x="397" y="680" on="1"/>
        <pt x="397" y="660" on="0"/>
        <pt x="375" y="643" on="0"/>
      </contour>
    </TTGlyph>
    <TTGlyph name="Ntilde" xMin="102" yMin="0" xMax="705" yMax="924">
      <contour>
        <pt x="210" y="867" on="1"/>
        <pt x="267" y="924" on="0"/>
        <pt x="331" y="924" on="1"/>
        <pt x="355" y="924" on="0"/>
        <pt x="397" y="911" on="0"/>
        <pt x="437" y="895" on="0"/>
        <pt x="476" y="882" on="0"/>
        <pt x="499" y="882" on="1"/>
        <pt x="550" y="882" on="0"/>
        <pt x="597" y="920" on="1"/>
        <pt x="621" y="894" on="1"/>
        <pt x="594" y="867" on="0"/>
        <pt x="527" y="837" on="0"/>
        <pt x="492" y="837" on="1"/>
        <pt x="471" y="837" on="0"/>
        <pt x="429" y="850" on="0"/>
        <pt x="388" y="866" on="0"/>
        <pt x="348" y="879" on="0"/>
        <pt x="328" y="879" on="1"/>
        <pt x="304" y="879" on="0"/>
        <pt x="258" y="862" on="0"/>
        <pt x="234" y="842" on="1"/>
      </contour>
      <contour>
        <pt x="102" y="740" on="1"/>
        <pt x="151" y="740" on="1"/>
        <pt x="584" y="175" on="1"/>
        <pt x="649" y="84" on="1"/>
        <pt x="654" y="84" on="1"/>
        <pt x="654" y="740" on="1"/>
        <pt x="705" y="740" on="1"/>
        <pt x="705" y="0" on="1"/>
        <pt x="655" y="0" on="1"/>
        <pt x="217" y="571" on="1"/>
        <pt x="158" y="654" on="1"/>
        <pt x="153" y="654" on="1"/>
        <pt x="153" y="0" on="1"/>
        <pt x="102" y="0" on="1"/>
      </contour>
    </TTGlyph>
    <TTGlyph name="Ntilde.sc" xMin="96" yMin="0" xMax="619" yMax="727">
      <contour>
        <pt x="188" y="677" on="1"/>
        <pt x="213" y="703" on="0"/>
        <pt x="267" y="727" on="0"/>
        <pt x="294" y="727" on="1"/>
        <pt x="315" y="727" on="0"/>
        <pt x="352" y="717" on="0"/>
        <pt x="387" y="704" on="0"/>
        <pt x="422" y="694" on="0"/>
        <pt x="442" y="694" on="1"/>
        <pt x="465" y="694" on="0"/>
        <pt x="506" y="709" on="0"/>
        <pt x="528" y="723" on="1"/>
        <pt x="548" y="703" on="1"/>
        <pt x="524" y="679" on="0"/>
        <pt x="465" y="653" on="0"/>
        <pt x="434" y="653" on="1"/>
        <pt x="416" y="653" on="0"/>
        <pt x="379" y="663" on="0"/>
        <pt x="343" y="675" on="0"/>
        <pt x="307" y="685" on="0"/>
        <pt x="289" y="685" on="1"/>
        <pt x="269" y="685" on="0"/>
        <pt x="229" y="672" on="0"/>
        <pt x="208" y="656" on="1"/>
      </contour>
      <contour>
        <pt x="96" y="577" on="1"/>
        <pt x="142" y="577" on="1"/>
        <pt x="508" y="150" on="1"/>
        <pt x="564" y="78" on="1"/>
        <pt x="569" y="78" on="1"/>
        <pt x="569" y="577" on="1"/>
        <pt x="619" y="577" on="1"/>
        <pt x="619" y="0" on="1"/>
        <pt x="573" y="0" on="1"/>
        <pt x="203" y="431" on="1"/>
        <pt x="151" y="498" on="1"/>
        <pt x="146" y="498" on="1"/>
        <pt x="146" y="0" on="1"/>
        <pt x="96" y="0" on="1"/>
      </contour>
    </TTGlyph>
    <TTGlyph name="O" xMin="60" yMin="-10" xMax="711" yMax="750">
      <contour>
        <pt x="385" y="-10" on="1"/>
        <pt x="232" y="-10" on="0"/>
        <pt x="60" y="184" on="0"/>
        <pt x="60" y="369" on="1"/>
        <pt x="60" y="462" on="0"/>
        <pt x="104" y="604" on="0"/>
        <pt x="188" y="700" on="0"/>
        <pt x="308" y="750" on="0"/>
        <pt x="385" y="750" on="1"/>
        <pt x="462" y="750" on="0"/>
        <pt x="583" y="700" on="0"/>
        <pt x="667" y="604" on="0"/>
        <pt x="711" y="462" on="0"/>
        <pt x="711" y="369" on="1"/>
        <pt x="711" y="276" on="0"/>
        <pt x="667" y="135" on="0"/>
        <pt x="583" y="39" on="0"/>
        <pt x="462" y="-10" on="0"/>
      </contour>
      <contour>
        <pt x="385" y="39" on="1"/>
        <pt x="516" y="39" on="0"/>
        <pt x="656" y="211" on="0"/>
        <pt x="656" y="369" on="1"/>
        <pt x="656" y="530" on="0"/>
        <pt x="516" y="701" on="0"/>
        <pt x="385" y="701" on="1"/>
        <pt x="254" y="701" on="0"/>
        <pt x="115" y="530" on="0"/>
        <pt x="115" y="369" on="1"/>
        <pt x="115" y="210" on="0"/>
        <pt x="255" y="39" on="0"/>
      </contour>
    </TTGlyph>
</ttFont>
